<svg width="27.000000" height="35.000000" viewBox="0 0 27 25" fill="none" xmlns="http://www.w3.org/2000/svg" xmlns:xlink="http://www.w3.org/1999/xlink">
	<defs/>
	<path d="M1.63 13.81L4.44 25L22.52 25L25.33 13.81L26.96 13.81L26.96 7.5L20.74 7.5L17.68 0L15.93 0.68L18.68 7.53L8.25 7.53L11.03 0.68L9.28 0L6.22 7.5L0 7.5L0 13.81L1.63 13.81ZM25.09 9.4L25.09 11.98L1.9 11.98L1.9 9.4L25.09 9.4ZM23.43 13.84L21.07 23.16L5.92 23.16L3.56 13.84L23.43 13.84ZM8.91 15.39L10.82 15.39L10.82 22.06L8.91 22.06L8.91 15.39ZM12.54 15.39L14.45 15.39L14.45 22.06L12.54 22.06L12.54 15.39ZM18.08 15.39L16.17 15.39L16.17 22.06L18.08 22.06L18.08 15.39Z" fill="#FFFFFF" fill-opacity="1.000000" fill-rule="evenodd"/>
</svg>
