<svg width="119.490000" height="266.470000" viewBox="0 0 120 266" fill="none" xmlns="http://www.w3.org/2000/svg" xmlns:xlink="http://www.w3.org/1999/xlink">
	<desc>
			Created with Pixso.
	</desc>
	<defs/>
	<path id="Vector" d="M17.21 46.03C17.21 45.57 17.21 45.27 17.21 44.66C17.67 44.96 17.97 45.12 18.13 45.27C18.43 44.66 18.58 44.05 19.04 43.59C19.34 43.29 19.95 43.29 20.71 43.14C21.01 43.29 21.47 43.44 22.08 43.75C22.69 42.98 23.14 42.38 23.9 41.61C24.21 41.61 24.51 41.61 24.97 41.61C25.12 41.77 25.42 42.07 25.57 42.38C26.79 42.22 27.85 40.55 29.37 41.77C29.83 41.61 30.29 41.46 30.74 41.16C30.74 40.85 30.59 40.7 30.59 40.24C30.74 39.48 31.35 38.57 30.44 37.5C30.59 37.2 30.89 37.05 30.89 36.74C31.2 35.07 31.35 33.24 31.5 31.56C31.66 30.65 31.66 29.74 32.42 29.13C32.11 28.82 31.81 28.37 31.35 27.91C31.81 27.76 32.11 27.61 32.26 27.61C32.57 26.69 32.57 25.63 33.02 24.86C34.09 23.19 35.3 21.67 36.52 20.14C37.43 20.14 38.04 20.14 38.95 20.3C39.26 20.6 39.71 20.91 40.02 21.21C40.78 20.45 41.23 19.84 41.99 19.08C42.45 19.08 43.06 19.08 43.51 19.08C43.82 18.77 35.15 47.4 44.42 18.32C47.47 18.62 50.51 18.16 53.55 17.1C54.15 18.01 55.22 16.95 56.13 17.4C56.13 17.25 56.28 16.95 56.28 16.79C57.19 16.19 57.95 17.25 58.87 17.1C58.87 17.25 59.02 17.4 59.02 17.4C59.17 17.25 59.17 17.1 59.32 17.1C59.78 16.95 60.23 16.79 60.69 16.79C60.99 17.1 61.3 17.4 61.6 17.71L61.75 17.56C61.6 17.25 61.45 16.95 61.3 16.49C62.82 16.19 64.34 16.03 65.86 15.73C66.32 15.88 67.08 16.34 67.23 16.03C67.99 15.42 68.44 15.73 69.05 16.19C69.05 16.19 69.36 15.88 69.66 15.73C69.96 15.58 70.12 15.42 70.42 15.42C70.57 15.58 70.72 15.73 70.88 15.88C71.03 15.42 71.03 14.97 71.18 14.36C71.64 14.97 71.79 15.42 72.09 15.88C72.24 15.58 72.24 15.42 72.4 15.12C72.7 15.12 73.16 14.97 73.61 14.97C74.37 14.81 75.44 14.66 76.2 14.81C76.65 14.81 77.26 15.12 77.87 14.51C78.33 14.05 78.93 13.9 79.54 13.6C80.15 13.75 80.61 14.51 81.37 13.9C81.67 13.75 82.28 13.9 83.04 14.05C83.04 14.21 83.04 14.51 83.04 14.66C82.89 14.51 82.73 14.51 82.73 14.66L82.89 14.81C82.89 14.66 83.04 14.51 83.04 14.36C83.34 14.05 83.8 13.75 84.25 13.6C84.56 13.9 84.71 14.05 85.01 14.51C85.32 14.05 85.62 13.6 85.93 13.14C86.69 13.75 87.75 13.14 88.51 13.44C89.57 13.75 90.64 12.84 91.4 13.9C91.7 13.75 91.85 13.6 92.16 13.44C92.61 14.21 93.53 14.66 93.68 15.58C93.53 15.73 93.37 15.88 93.22 16.03C93.37 16.34 93.53 16.79 93.68 17.1C93.68 17.25 93.53 17.56 93.37 17.71C93.83 18.77 94.13 19.69 93.22 20.6C93.68 21.06 93.68 21.51 93.37 22.12C93.22 22.58 93.22 23.04 93.37 23.49C93.53 23.95 93.37 24.71 94.74 24.26C94.13 24.86 93.83 25.02 93.53 25.32C93.68 25.93 93.68 26.39 93.68 26.84C93.68 27.45 94.59 27.91 93.68 28.52C94.13 28.98 93.98 29.59 93.98 30.04C93.98 30.65 93.68 31.26 94.44 31.56C94.29 31.72 94.13 31.87 93.83 32.17C94.13 32.63 94.44 33.09 94.74 33.54C94.59 33.7 94.44 34 94.29 34.31C94.44 34.91 94.74 35.68 95.05 36.44C94.59 37.2 94.59 37.2 95.05 38.57C94.74 38.72 94.44 38.72 94.29 38.87C94.29 39.79 94.44 40.7 94.44 41.46C94.44 42.38 94.59 43.14 95.2 43.75C95.05 45.12 94.89 46.49 95.66 47.86C95.96 48.47 94.89 48.62 95.66 49.23C96.26 49.68 95.96 50.29 95.35 50.75C95.66 50.9 95.96 51.21 96.26 51.51C96.11 52.12 96.26 52.73 95.96 53.19C95.66 53.8 96.41 54.25 96.11 54.86C95.96 55.32 96.26 -0.16 96.41 0.45C96.26 0.6 96.11 0.75 96.11 0.9C96.57 1.21 96.26 2.12 97.18 2.12C97.18 2.12 97.33 2.58 97.02 3.34C97.02 3.64 97.33 3.49 97.33 3.49C97.33 3.34 97.18 3.03 97.18 2.88C97.02 3.19 97.02 3.34 97.18 3.34C97.48 2.73 97.78 2.73 97.94 2.73C98.24 2.27 98.39 1.97 98.7 1.51C99 1.51 99.46 1.51 99.76 1.51C99.91 1.21 100.06 0.9 100.22 0.45C100.37 0.75 100.37 1.05 100.52 1.36C101.28 1.05 101.89 0.75 102.65 0.45C102.5 0.29 102.34 0.14 102.19 -0.01C102.95 -0.01 103.56 -0.01 104.47 0.14C104.47 0.45 104.47 0.6 104.47 1.05L104.47 0.9C104.17 0.9 103.86 1.05 103.56 1.05C103.56 1.21 103.56 1.21 103.56 1.36C103.86 1.36 104.17 1.36 104.32 1.21C105.08 1.21 105.38 0.6 105.84 0.29C105.99 0.6 106.3 0.9 106.45 1.21C106.6 1.36 106.6 1.51 106.75 1.51L106.9 1.36C106.75 1.21 106.75 1.21 106.6 1.05C106.75 0.29 107.21 -0.32 107.51 -0.92C108.27 -0.62 108.73 -0.47 109.34 -0.32C109.79 -0.32 110.4 -0.62 111.01 -0.32C111.47 -0.01 112.38 -0.32 112.83 -0.01C113.44 0.45 113.9 0.6 114.51 -0.16C114.81 0.45 115.27 1.05 115.57 1.66C116.03 1.66 116.48 1.66 116.94 1.66C117.24 2.12 117.55 2.58 118 3.19C118.15 4.1 118 5.17 117.39 6.38C117.7 6.54 118 6.84 118.31 6.99C117.85 7.91 117.85 8.97 118.46 10.34C118.15 10.65 117.7 10.95 117.39 11.26C117.24 11.41 116.94 11.26 116.79 11.41C118 13.39 115.57 13.85 115.27 15.22C115.42 15.37 115.57 15.67 115.72 15.83C115.42 16.13 115.27 16.28 114.96 16.59C115.11 16.74 115.11 16.89 115.42 17.2C115.27 17.8 114.2 18.57 115.27 19.33C115.11 19.48 114.96 19.63 114.81 19.78C114.96 20.09 115.11 20.55 115.27 20.85C115.11 21 114.96 21.15 114.81 21.31C114.96 21.76 115.27 22.22 115.42 22.68C115.42 23.59 115.27 24.5 115.57 25.42C115.87 26.33 115.87 27.09 115.27 28.16C116.33 29.23 114.51 30.44 115.27 32.12C115.27 32.12 115.57 32.42 115.87 32.58C115.72 33.34 115.27 34.1 115.42 34.4C115.87 35.16 115.27 35.47 115.27 36.08C115.11 37.75 115.57 39.43 115.57 41.1C115.57 41.71 115.27 42.32 115.27 42.78C115.27 43.39 115.72 43.84 115.87 44.45C115.87 44.76 115.87 45.21 115.72 45.52C115.27 46.43 115.27 47.19 115.72 47.95C115.57 48.72 115.42 49.32 115.42 50.09C115.42 50.7 115.72 51.46 115.72 52.07C115.87 52.67 115.42 53.44 116.03 54.05C115.87 54.2 115.72 54.35 115.57 54.5C116.33 56.18 115.57 58 115.87 59.68C116.03 59.98 116.33 60.14 116.63 60.59C116.33 60.75 115.87 61.05 115.57 61.2C116.03 61.51 116.18 61.81 116.63 62.27C116.48 63.03 116.33 63.79 116.18 64.86C116.79 68.05 116.18 71.86 117.24 75.52C116.33 76.43 117.24 77.34 117.55 78.41C116.63 79.47 116.33 80.85 117.39 82.22L117.39 82.37C116.63 82.98 117.09 84.04 116.94 84.8C118 85.87 116.63 87.55 117.7 88.61C116.79 89.52 116.79 90.59 117.09 91.5C117.39 92.27 117.24 93.03 117.39 93.79C117.39 94.55 117.85 95.46 117.55 96.07C117.09 96.99 118.15 97.59 117.7 98.51C117.39 99.27 117.55 100.18 117.55 101.1C117.55 101.4 117.85 101.55 118 101.86C117.85 102.01 117.7 102.32 117.39 102.62C117.7 103.53 118.15 104.6 117.24 105.67C117.55 105.82 117.7 105.82 118 105.97C117.85 106.58 117.7 107.04 117.39 107.65C117.7 107.95 118 108.25 118.31 108.41C117.85 109.02 117.55 109.62 117.24 110.08C117.39 111 118.15 112.06 117.24 112.97C117.24 113.13 117.24 113.28 117.39 113.43C117.85 114.95 118.15 116.48 118 118.15C117.24 118.91 118.31 119.52 118 120.44C117.7 121.2 117.85 122.11 118 123.02C118 123.33 118 123.48 118 123.79C118 125.46 118.15 127.14 118.61 128.81L118.61 128.96C118.46 129.12 118.31 129.27 118.15 129.42C118.31 130.18 119.07 130.94 118 131.55C118.15 131.86 118.46 132.16 118.46 132.47C118.46 133.38 118.61 134.45 118.31 135.21C118 135.97 119.07 136.73 118.31 137.49C119.22 139.62 118 141.75 118.76 143.89C118.15 144.5 118.76 145.1 118.76 145.71C118.76 146.02 118.46 146.47 118.31 146.93C118.31 147.08 118.46 147.24 118.61 147.54C118.46 147.69 118.31 147.84 118.15 148C118.31 148.15 118.31 148.15 118.46 148.3C118.31 148.45 118.15 148.61 118.15 148.76C118.31 149.52 118.31 150.28 118.46 150.89C118.46 151.65 118.61 152.26 118.61 153.02C118.61 153.63 118.31 154.24 118.15 155C118.46 155.15 118.76 155.15 119.07 155.31C118.91 155.46 118.76 155.61 118.61 155.92C118.46 156.68 118.91 157.59 118.15 158.35C118.91 159.11 118 159.72 118 160.33C118 161.4 118 162.46 118.76 163.22C118.15 164.29 118.15 165.51 118.31 166.88C118.46 167.49 118.91 168.25 118.15 168.86C118.31 169.92 118.61 170.99 118.76 172.36C118.61 172.67 118.31 173.12 118 173.73C118.15 174.04 118.15 174.34 118.31 174.64C118.46 174.95 118.76 175.1 118.61 175.41C118.46 176.17 118 177.08 118.15 177.69C118.46 178.45 118.46 179.21 118.31 179.97C118.31 180.13 118 180.43 117.85 180.58C118 180.89 118.15 181.04 118.46 181.34C117.85 182.11 118 182.87 118.31 183.93C118.61 184.85 118 185.91 118.76 186.83C118.61 187.13 118.46 187.28 118.15 187.59C118.31 187.89 118.46 188.35 118.61 188.65C118.46 188.96 118.31 189.11 118.15 189.42C118.76 190.79 118.61 191.55 118.15 192.61C118.31 193.22 118.46 193.53 118.46 193.98C118.31 197.33 118.91 200.84 118.46 204.19C118.46 204.79 118.76 205.4 118.76 206.01C118.76 206.62 118.76 207.38 118.61 207.99C118.61 208.45 118.31 208.75 118.15 209.21C118.76 210.12 118.76 211.19 118 212.1C118.46 213.63 119.22 215 118.31 216.67C118.46 216.98 118.76 217.43 118.91 218.04C118.31 218.65 118.46 219.56 118.61 220.33C118.61 220.63 118.91 221.09 118.76 221.09C117.85 221.54 119.22 222 118.61 222.46C117.7 223.22 118.46 224.13 118.61 224.89C118.61 225.66 118.31 226.57 118.91 227.18C118.76 227.79 118.61 228.4 118.46 229.01C118.31 231.9 118.31 234.79 118 237.69C118 238.45 118.15 239.36 117.55 240.12C117.24 240.43 117.55 241.34 117.55 241.95C117.55 242.71 117.85 243.47 117.7 244.08C117.09 245.6 117.09 247.13 117.55 248.65C117.7 249.26 117.24 250.02 118 250.48C117.7 250.63 117.39 250.63 117.24 250.78C117.7 252.15 117.55 253.67 117.09 255.04C116.94 255.5 117.85 255.96 117.09 256.41C116.63 256.72 116.79 257.18 117.09 257.79C117.85 257.33 117.85 257.94 117.85 258.55C118 259.16 118 259.61 118.15 260.22C116.63 260.83 117.39 263.11 115.42 263.42C115.42 263.72 115.42 264.03 115.42 264.33C114.96 264.79 114.66 265.09 114.2 265.4C114.05 265.09 113.9 264.79 113.75 264.48C113.59 264.79 113.44 265.09 113.29 265.55C112.68 265.25 112.23 264.94 111.47 264.48C111.31 264.79 111.01 265.09 110.86 265.4C110.25 265.09 109.64 264.94 109.18 264.64C109.03 264.79 108.73 264.94 108.43 265.09C108.12 264.79 107.66 264.48 107.21 264.18C107.21 264.33 107.06 264.64 106.9 264.79C106.3 264.94 105.69 265.09 104.78 265.4C104.93 265.09 105.08 264.79 105.23 264.33C104.78 264.48 104.47 264.64 104.02 264.79C103.86 264.48 103.56 264.33 103.26 263.88C103.1 264.18 103.1 264.33 102.95 264.64C102.34 264.33 101.74 263.88 101.13 264.79C100.82 264.48 100.67 264.18 100.52 263.88C100.67 263.72 100.82 263.72 100.82 263.57L100.67 263.42C100.52 263.57 100.52 263.57 100.37 263.72C99.91 263.72 99.46 263.72 98.85 263.72C98.85 263.42 98.7 262.96 98.7 262.51C98.09 262.2 97.33 262.66 96.87 261.9C96.41 262.66 95.66 262.05 95.2 262.2C94.89 261.9 94.59 261.59 94.29 261.29C93.98 261.29 93.68 261.29 93.22 261.29C91.7 261.29 90.64 260.37 89.42 259.61C89.27 258.7 88.51 258.7 87.9 258.24C87.75 257.79 87.6 257.18 87.29 256.57C87.45 256.41 87.6 256.41 87.6 256.26L87.45 256.11C87.29 256.26 87.29 256.26 87.14 256.41C86.99 256.26 86.84 256.26 86.84 256.11C86.84 255.35 86.84 254.74 86.84 254.13C86.38 253.83 85.93 253.52 85.62 253.22C85.93 252.61 86.08 251.24 85.77 250.63C85.47 249.56 85.17 248.5 85.01 247.58C85.01 247.28 85.32 246.97 85.32 246.67C85.17 246.52 84.86 246.21 84.56 245.91C84.71 243.78 84.71 241.64 84.86 239.36C84.56 239.21 84.1 239.06 84.1 238.9C84.1 238.14 84.1 237.84 84.1 237.53C83.8 237.38 83.49 237.38 83.34 237.23C83.8 235.86 83.8 235.86 83.49 234.34C83.8 233.88 84.1 233.42 84.56 232.51C84.41 231.29 84.1 229.77 83.95 228.24C83.95 227.64 83.8 226.87 84.1 226.26C84.56 225.35 84.56 224.44 83.95 223.37C84.25 223.07 84.56 222.76 85.01 222.31C84.1 221.24 84.56 219.72 83.8 218.5C85.01 217.43 83.49 216.52 83.8 215.45C83.8 215.3 83.49 215 83.34 214.84C83.8 214.39 84.1 214.08 84.71 213.47C84.25 213.32 83.8 213.17 83.19 213.02C83.34 212.86 83.49 212.71 83.65 212.56C83.34 211.49 84.1 210.28 83.19 209.36L83.19 209.21C83.95 207.23 83.04 205.25 83.34 203.27C83.49 202.66 83.65 201.9 83.04 201.29C82.89 201.14 83.04 200.68 83.19 200.38C83.65 199.46 83.65 198.55 83.34 197.64C83.04 196.72 83.04 195.51 82.89 194.59C82.89 194.29 83.19 193.83 83.19 193.68C83.04 192.61 83.04 191.85 82.89 190.79C82.73 190.63 82.43 190.48 82.13 190.18C82.43 189.87 82.58 189.57 82.73 189.26C82.58 188.96 82.43 188.65 82.28 188.35C82.43 188.2 82.58 187.89 82.73 187.89C82.73 186.83 81.52 185.91 82.43 184.85C81.67 184.09 82.89 183.32 82.58 182.72C82.43 182.26 82.13 181.95 81.97 181.5C82.43 180.74 82.58 179.97 82.28 179.21C81.82 177.84 81.67 176.62 81.67 175.25C81.67 174.19 81.37 173.27 81.06 172.21C81.21 171.9 81.52 171.6 81.82 170.99C81.67 170.84 81.52 170.53 81.52 170.53C82.13 169.77 81.37 168.86 81.52 168.1C81.67 167.18 81.06 166.42 80.91 165.51C80.76 164.75 80.45 163.99 80.76 163.07C80.91 162.46 80.76 161.55 80.61 160.48C80.45 160.64 80.61 160.33 80.91 160.03C80.76 159.87 80.61 159.57 80.45 159.11C80.61 158.05 80.76 156.83 79.69 155.76C80 155.61 80.15 155.31 80.3 155.15C80.15 153.48 80.15 151.8 79.08 150.13C79.69 149.98 80 149.82 80.15 149.82C80.15 148.45 80.3 147.54 80.3 146.63C80 146.63 79.54 146.63 79.08 146.63C79.24 146.17 79.39 145.87 79.54 145.41C79.54 145.41 79.39 145.26 79.24 144.95C79.69 144.95 80.15 144.8 80.45 144.8C80.61 144.5 80.61 144.34 80.76 144.04C81.21 144.04 81.52 144.04 81.82 144.04C81.97 142.97 82.13 142.06 82.28 140.69C82.28 140.69 81.97 140.08 81.82 139.62C81.67 139.62 81.52 139.62 81.21 139.62C81.21 140.69 81.06 141.91 81.06 142.97C80.91 142.97 80.91 142.97 80.76 142.97C80.61 142.67 80.61 142.52 80.3 141.91C80.15 142.67 80 143.28 80 143.89C79.69 143.58 79.54 143.43 79.39 143.12C79.24 142.21 79.69 141.14 79.08 140.08C78.93 139.93 79.24 139.47 79.39 139.17C79.24 139.01 78.93 138.71 78.48 138.1C78.78 137.95 79.24 137.64 79.85 137.34C79.24 137.19 79.08 137.19 78.78 137.03C78.78 136.27 78.93 135.51 78.78 134.75C78.78 133.99 78.48 133.38 78.17 132.31C77.72 132.92 77.41 133.23 77.11 133.68C77.26 133.84 77.41 133.99 77.56 134.29C77.41 134.6 77.26 134.9 77.11 135.05C77.41 135.21 77.56 135.21 78.02 135.36C77.72 135.82 77.26 136.27 76.96 136.73C77.11 137.64 76.5 138.71 77.11 139.47C76.96 140.54 76.65 141.6 76.8 142.52C76.96 143.12 76.5 143.73 77.11 144.19C76.65 144.65 76.8 145.41 76.5 145.87C76.04 146.78 76.04 147.69 76.04 148.45C76.35 148.91 76.5 149.52 76.96 150.13C76.35 150.89 76.2 151.8 76.8 152.72C76.65 152.87 76.5 153.02 76.5 153.17C76.2 153.63 76.2 154.09 76.5 154.54C76.65 154.7 76.2 155.15 76.2 155.61C76.2 156.07 76.2 156.52 76.35 156.98C76.65 158.35 76.65 159.57 76.04 160.79C76.2 160.94 76.2 160.94 76.35 161.09C76.04 161.24 75.89 161.24 75.44 161.4C75.44 162.16 75.44 163.07 75.28 163.83C75.13 164.59 74.83 165.36 74.52 166.42C74.68 166.57 74.98 166.73 75.44 166.88C75.13 167.64 74.98 168.1 74.83 168.71C75.28 169.16 74.98 169.77 74.98 170.38C74.98 170.99 74.98 171.6 74.68 172.06C74.37 172.67 74.83 173.43 74.07 174.04C75.13 174.64 73.92 175.41 74.22 175.86C74.83 176.78 73.76 177.39 73.76 178.15C73.92 178.91 74.07 179.67 73.31 180.28C73.46 180.43 73.61 180.58 73.76 180.74C72.55 183.17 73.92 185.61 73.61 188.2C73.76 188.2 74.07 188.5 74.37 188.65C74.22 189.11 74.07 189.26 73.92 189.57C73.76 189.87 73.76 190.02 73.76 190.63C73.46 189.57 73.16 188.81 73 188.2C72.85 188.96 72.24 189.87 73 190.63C72.85 190.79 72.55 190.94 72.55 191.09C72.24 192.16 72.85 193.22 72.09 194.14C73 194.9 71.94 196.27 72.7 197.03C72.09 198.25 71.33 199.46 72.09 200.99C71.94 201.44 71.64 202.05 71.33 202.81C71.48 202.97 71.94 203.12 72.24 203.27C72.24 205.1 72.09 206.77 72.09 208.45C72.09 208.6 72.24 208.6 72.4 208.91C72.09 208.91 71.79 209.06 71.48 209.06C71.48 208.45 71.48 207.84 71.48 207.23C71.18 207.38 71.03 207.54 71.03 207.54C71.03 208.3 71.03 209.06 70.88 209.97C70.88 210.43 70.57 210.73 70.42 211.19C70.72 211.95 71.18 213.02 70.27 213.93C70.42 213.93 70.57 214.08 70.72 214.08C70.88 214.08 70.88 214.24 71.18 214.39C70.88 214.84 70.57 215.3 70.12 215.76C70.27 216.21 70.42 216.82 70.57 217.43C70.57 218.04 70.57 218.65 70.57 219.87C70.88 219.11 71.03 218.8 71.03 218.5C71.33 218.8 71.64 218.96 71.79 219.11C71.64 219.41 71.48 219.72 71.48 219.72C70.12 219.26 70.12 221.09 69.05 221.09C67.68 222.46 67.23 222.76 65.56 222.91C65.4 222.91 65.25 222.91 65.1 222.91C64.95 223.07 64.8 223.22 64.64 223.22C63.88 222.91 63.27 222.31 62.67 222.91C61.6 222.61 60.84 222.46 59.47 222.15C58.87 222.46 57.95 222.91 56.89 223.22C56.43 223.37 55.83 223.07 55.22 222.76C55.07 222.76 54.91 222.91 54.61 223.07C54.46 222.76 54.46 222.61 54.31 222.31C54.15 222.46 53.85 222.61 53.7 222.61C52.63 222 51.57 221.85 50.35 222.46C49.75 222.15 48.99 221.85 48.38 221.54C48.23 221.7 47.92 221.85 47.77 222C47.62 222 45.49 221.7 45.34 221.7C44.58 221.7 43.51 222 43.06 221.7C42.45 221.24 41.69 221.54 41.08 221.09C41.23 220.78 41.38 220.63 41.54 220.33C41.69 220.17 41.84 220.17 41.84 220.02L41.69 219.87C41.54 220.02 41.54 220.02 41.38 220.17C40.78 220.02 40.32 220.48 40.02 220.78C38.8 220.63 37.43 221.09 36.22 220.63C36.22 220.48 36.22 220.17 36.06 220.02C35.76 220.17 35.3 220.33 35 220.33C34.54 220.33 33.94 220.33 33.63 220.17C33.18 219.87 32.87 219.87 32.57 220.33C31.96 219.87 31.35 219.56 30.74 219.11C30.29 219.41 29.53 219.56 29.37 220.33C29.07 220.33 28.77 220.33 28.46 220.33C28.46 219.87 28.31 219.56 28.31 219.11C28.01 219.11 27.7 219.11 27.09 219.11C27.09 219.11 26.79 219.41 26.49 219.87C26.33 219.56 26.18 219.56 26.03 219.26C25.73 219.41 25.57 219.72 25.42 219.87C25.27 220.02 25.27 220.33 25.12 220.63C24.36 220.17 23.9 219.87 23.29 219.41C23.45 219.11 23.6 218.96 23.75 218.5C22.99 218.65 22.38 218.8 21.77 218.96C21.47 218.65 21.17 218.35 20.86 218.04C20.1 218.19 19.49 218.35 18.89 218.5C17.52 217.28 17.82 215.61 17.06 214.08C17.37 213.32 18.13 212.41 17.06 211.49C17.37 211.04 17.67 210.43 17.97 209.82C17.67 209.67 17.37 209.36 17.37 209.36C17.52 208.6 17.67 208.14 17.67 207.69C17.82 207.23 17.82 206.93 17.97 206.32C17.82 206.16 17.67 205.71 17.37 205.1C17.82 204.34 18.28 203.42 18.28 202.36C18.43 202.21 18.58 202.21 18.58 202.05L18.43 201.9C18.28 202.05 18.28 202.05 18.13 202.21C17.52 201.75 17.37 201.29 17.37 200.53C17.52 198.86 16.76 197.33 17.06 195.66C17.06 195.51 16.91 195.2 16.76 194.9C16.91 194.74 17.06 194.59 17.21 194.44C16.45 193.07 16.91 191.7 16.91 190.33C17.06 188.81 16.91 187.59 16.15 185.91C16.45 185.61 16.76 185.3 17.06 185C16.91 183.63 16.3 182.26 17.21 180.89C17.06 180.43 16.3 179.82 17.37 179.21C17.06 178.91 16.76 178.6 16.3 178.15C16.61 177.84 16.91 177.54 17.21 177.08C16.91 176.78 16.76 176.47 16.45 176.17C16.76 175.1 17.52 173.88 16.91 172.82C16.45 171.9 16.76 171.14 16.76 170.38C16.76 170.23 16.91 170.08 17.21 169.77C16 169.32 16.76 167.94 16.15 166.88C16.45 166.57 17.06 166.27 17.37 165.81C17.67 164.59 16.15 164.59 16.45 163.07C16.76 162.31 16.91 161.7 16.15 160.18C16.61 160.33 16.91 160.48 17.37 160.64C17.37 160.18 17.52 159.72 17.52 159.11C17.21 158.96 16.91 158.81 16.76 158.81C17.06 158.35 17.37 157.74 17.67 157.13C17.21 156.83 16.76 156.37 16.3 156.07C16.61 155.92 16.91 155.92 17.21 155.76C17.21 155.31 17.21 154.85 17.21 154.39C16.91 154.09 16.76 153.94 16.45 153.48C16.76 153.33 17.21 153.02 17.52 152.87C17.37 151.5 15.54 151.35 16 149.82C16.3 149.82 16.45 149.82 16.91 149.82L16.76 149.82C16.76 150.13 16.91 150.43 16.91 150.74C17.06 150.74 17.06 150.74 17.21 150.74C17.21 150.43 17.21 150.13 17.06 149.98C17.06 149.52 17.37 148.91 17.37 148.45C17.37 148 17.21 147.39 16.61 146.93C16.61 147.54 16.45 148.3 16.3 149.06C16.15 149.06 15.85 149.06 15.54 149.22C15.69 148.76 15.85 148.45 15.85 148C15.09 147.54 16 146.32 15.24 145.87C16.15 144.65 14.48 143.12 15.69 142.06C15.54 141.6 15.24 141.14 14.93 140.54C14.93 139.77 15.24 138.71 14.63 137.95C14.78 137.34 15.09 136.88 15.24 136.42C14.93 136.27 14.78 136.27 14.33 136.12C14.48 135.97 14.48 135.82 14.63 135.51C14.48 135.05 14.48 134.29 14.33 133.68C14.17 133.07 14.17 132.47 14.17 131.86C14.17 131.25 14.63 130.33 14.48 130.03C14.02 129.27 14.48 128.51 14.17 128.05C13.87 127.44 13.87 126.83 13.87 126.22C13.87 125.46 14.02 124.85 13.87 124.09C13.87 123.48 13.56 122.72 13.56 122.11C13.56 121.5 13.72 120.74 13.56 120.13C13.26 119.52 13.11 118.91 13.41 118.15C13.72 118 13.87 118 14.33 117.85C14.02 117.54 13.72 117.24 13.41 116.78C13.41 116.93 13.41 116.78 13.41 116.63C13.41 115.72 13.56 114.8 13.11 113.89C12.96 113.58 13.26 113.13 13.41 112.82C13.11 111.91 12.81 110.84 12.5 109.78C13.72 107.65 12.2 105.21 12.81 102.77C12.5 102.47 12.2 102.16 11.74 101.86C12.35 101.25 12.81 100.64 13.41 99.88C13.56 99.42 12.2 99.73 12.5 98.97C11.89 98.51 12.35 97.9 12.04 97.44C11.74 96.83 12.04 96.53 12.04 96.07C12.2 95.46 12.2 94.85 11.89 94.25C11.59 93.48 11.89 92.42 11.89 91.66C11.44 91.5 11.28 91.35 10.83 91.2C11.13 90.59 11.59 90.13 11.89 89.68C12.35 89.22 12.35 89.22 12.04 88.46C12.04 88.92 12.04 89.37 11.89 89.68C11.59 89.68 11.44 89.68 11.13 89.68C11.13 88.15 10.98 86.78 10.37 85.26C10.37 85.11 10.37 84.65 10.37 84.65C11.13 84.35 10.37 83.89 10.52 83.59C10.98 83.13 10.37 82.82 10.22 82.37C9.92 81.3 9.92 81.3 10.37 80.24C10.07 79.47 9.61 78.71 9.31 77.8C9.46 77.5 9.61 77.04 9.76 76.58C9.92 76.28 9.92 75.82 10.07 75.36C9.76 74.75 9.46 73.99 9.16 73.23C9.31 73.08 9.46 72.77 9.46 72.47C9.31 71.25 9.31 69.88 8.7 68.66C8.09 67.45 7.79 66.23 7.94 64.86C8.09 63.94 8.09 63.18 8.09 62.27C7.33 61.51 7.33 60.75 7.33 59.68C7.33 59.22 7.18 58.92 7.18 58.46C7.18 58.16 7.48 57.7 7.33 57.4C7.03 56.63 6.72 55.72 6.27 54.81C6.27 54.81 6.57 54.5 6.72 54.2C6.42 53.44 6.27 52.67 5.96 51.76C5.96 51.46 7.03 51.15 6.12 50.54C5.51 50.09 6.72 49.78 6.12 49.17C5.81 48.87 6.12 48.11 5.96 47.35C5.81 47.19 5.36 46.89 5.2 46.74C5.51 44.91 5.05 43.08 4.75 41.41C5.51 40.65 4.6 39.88 4.75 38.97C4.9 37.6 4.75 36.08 4.44 34.86C4.29 34.1 4.29 33.49 4.14 32.88C4.14 32.12 4.14 31.36 3.68 30.75C3.38 30.14 3.68 29.68 3.38 29.07C3.08 28.62 3.53 28.01 4.14 27.7C4.44 29.38 4.75 30.9 5.05 32.73C5.81 31.51 5.05 30.6 5.05 29.53C5.05 28.46 5.05 27.4 4.29 26.64C4.75 26.18 4.9 25.72 4.6 25.11C3.99 23.9 3.99 22.68 3.99 21.46C3.99 20.39 3.68 19.48 3.53 18.41C3.53 18.26 3.68 17.96 3.68 17.65C2.62 16.43 3.08 14.91 3.08 13.39C2.77 13.24 2.47 13.08 2.47 13.08C2.01 10.8 1.56 8.82 1.4 6.99C1.25 5.01 0.49 3.19 0.49 1.21C0.19 0.9 -0.12 0.6 -0.42 0.14C-0.27 -0.01 -0.12 55.78 0.04 55.78C0.49 55.47 0.95 55.01 1.4 54.71C1.71 55.01 2.32 55.32 2.77 55.62C2.01 56.69 2.92 4.1 4.14 7.45C3.99 7.6 3.84 7.75 3.68 7.91C3.99 8.21 4.29 8.52 4.6 8.97C4.44 9.43 4.29 9.89 3.99 10.65C3.99 10.95 4.6 11.87 5.51 12.32C5.51 12.93 5.51 13.54 5.36 14.76C5.05 14.15 5.05 13.85 4.75 13.24C4.6 13.69 4.44 14.15 4.6 14.3C4.75 15.67 5.05 16.89 5.51 18.72C5.81 17.04 5.81 17.04 5.36 16.28C5.66 16.28 5.81 16.13 6.27 16.13C6.27 16.74 6.12 17.2 6.27 17.65C6.27 18.11 6.57 18.57 6.88 19.02C6.27 19.02 5.81 19.18 5.51 19.18C4.9 19.78 5.96 20.39 5.2 21.15C5.66 21.31 6.12 21.31 6.42 21.31C6.27 21.76 6.12 22.37 5.96 23.13C6.57 22.83 6.88 22.68 7.18 22.68C7.18 22.68 7.18 22.68 7.33 22.68C7.48 23.59 7.79 24.66 7.64 25.57C7.48 26.64 7.94 27.55 8.09 28.62C8.24 29.38 8.55 30.14 8.7 30.9C8.7 31.36 8.4 31.81 8.24 32.27C8.55 32.58 8.85 33.03 9.16 33.34C9 33.64 8.85 33.95 8.7 34.25C8.7 35.01 9.61 35.32 9.16 36.38C8.85 36.99 9.46 37.9 9.61 38.36C9.46 39.12 9.31 39.73 9.31 40.34C9.61 42.02 10.52 43.69 10.22 45.52C10.22 45.98 10.68 46.43 10.22 46.89C10.07 47.19 10.37 47.95 10.52 48.41C10.68 49.02 10.68 49.63 10.98 50.24C11.74 51.46 11.28 52.67 10.98 53.89C11.13 53.89 11.28 53.89 11.59 54.05C11.44 54.35 11.44 54.65 11.28 55.11C11.44 55.26 11.74 55.57 12.2 55.87C12.5 55.11 12.65 54.65 12.96 54.05C12.81 54.05 12.5 53.89 12.2 53.74C12.2 53.28 12.35 52.67 12.2 52.07C12.2 51.46 12.5 50.7 11.89 50.24C12.2 49.78 12.5 49.48 11.89 48.87C11.59 48.41 11.59 47.65 11.44 47.19C11.28 46.74 11.28 46.13 11.13 45.52C11.28 45.37 11.44 45.21 11.59 44.91C11.28 44.45 11.13 43.84 10.83 43.23C11.44 42.93 10.83 42.47 10.83 42.17C10.83 41.56 10.98 41.1 10.52 40.65C10.22 40.34 11.28 40.04 10.68 39.43C10.37 39.28 10.52 38.51 10.37 37.9C10.37 37.9 10.52 37.75 10.68 37.6C10.37 36.23 10.07 34.86 9.61 33.49C9.76 33.34 10.07 33.03 10.37 32.73C10.07 32.58 9.92 32.58 9.61 32.42C9 30.75 9.31 28.92 8.85 27.09C8.7 26.79 9 26.33 9.16 26.03C9 26.03 8.85 25.88 8.55 25.88C8.4 25.11 8.55 24.35 8.24 23.74C7.79 22.83 8.85 22.37 8.7 21.61C9 21.76 9.46 21.92 9.76 22.22C10.37 20.85 9.16 19.63 9.76 18.26C9.31 18.26 9 18.26 8.7 18.26C8.85 18.11 9 17.8 9.16 17.65C9 17.5 9 17.5 8.85 17.35C9 17.2 9.16 17.04 9.16 16.89C9.16 16.74 9.16 16.59 9.31 16.28C9 16.13 8.7 15.98 8.55 15.83C8.55 15.98 8.4 16.43 8.4 16.89C8.09 16.43 7.79 16.13 7.33 15.37C7.33 14.76 7.33 13.69 6.57 12.78C6.72 12.63 6.88 12.48 6.88 12.32C6.12 9.58 6.12 9.58 6.57 8.82C5.96 8.06 5.96 7.3 5.81 6.38C5.51 4.4 5.05 2.43 4.6 0.45C3.99 0.14 4.9 55.93 4.6 55.62C4.29 55.32 4.29 54.71 4.14 54.25C3.99 53.95 3.68 53.64 3.38 53.19C4.29 52.43 4.44 53.64 5.36 53.8C4.44 52.27 5.36 50.45 3.99 49.08C3.99 48.62 3.99 48.01 4.14 47.4C4.29 46.94 4.6 46.49 4.9 45.88C5.2 46.49 5.36 47.1 5.81 47.86C5.96 46.94 5.96 46.18 5.96 45.57C5.05 45.27 4.9 44.51 4.6 43.75C5.2 43.9 5.66 44.05 6.27 44.36C6.42 44.81 6.57 45.57 7.48 45.57C7.64 45.27 7.64 44.81 7.64 44.51C8.09 44.2 8.7 43.9 9.31 43.44C9.31 43.75 9.31 44.2 9.31 44.66C10.22 44.51 10.83 45.57 12.04 45.12C11.74 44.96 11.44 44.81 10.98 44.66C11.59 44.05 12.04 43.44 12.81 42.68C12.81 42.68 12.81 42.38 12.81 42.22C13.41 41.92 13.87 41.46 14.48 41.16C14.48 41.92 14.48 42.53 14.33 43.14C16.45 44.96 16.91 45.42 17.21 46.03C17.21 46.18 17.37 46.33 17.37 46.49L17.52 46.33C17.52 46.18 17.37 46.03 17.21 46.03ZM19.65 59.83C19.49 59.83 19.34 59.98 19.19 59.98L19.34 60.14C19.49 60.14 19.65 59.98 19.65 59.83C19.8 59.68 19.95 59.68 19.95 59.53L19.8 59.37C19.8 59.53 19.65 59.68 19.65 59.83ZM84.86 118C85.01 118 85.17 117.85 85.32 117.85L85.17 117.7C85.01 117.7 84.86 117.85 84.86 118C84.71 118.15 84.56 118.15 84.56 118.3L84.71 118.46C84.71 118.3 84.86 118.15 84.86 118ZM14.48 49.63C14.48 49.78 14.63 49.93 14.63 50.09L14.78 49.93C14.63 49.78 14.63 49.78 14.48 49.63C14.33 49.48 14.33 49.32 14.17 49.32L14.02 49.48C14.17 49.48 14.33 49.63 14.48 49.63ZM79.85 135.21C79.85 135.05 79.69 134.9 79.69 134.75L79.54 134.9C79.54 135.05 79.69 135.05 79.85 135.21C80 135.36 80 135.51 80.15 135.51L80.3 135.36C80.15 135.36 80 135.21 79.85 135.21ZM24.51 173.73C24.66 173.73 24.81 173.58 24.97 173.58L24.81 173.43C24.81 173.43 24.66 173.58 24.51 173.73C24.36 173.88 24.21 173.88 24.21 174.04L24.36 174.19C24.36 174.04 24.51 173.88 24.51 173.73ZM29.53 26.94C29.53 26.79 29.37 26.64 29.37 26.48L29.22 26.64C29.37 26.64 29.53 26.79 29.53 26.94C29.68 27.09 29.68 27.25 29.83 27.25L29.98 27.09C29.83 26.94 29.83 26.94 29.53 26.94ZM16.76 65.31C16.76 65.47 16.76 65.62 16.61 65.62C16.15 66.07 16 66.53 16.45 66.99C16.61 66.99 16.91 66.84 17.21 66.84C17.06 66.38 16.91 66.07 16.76 65.62C16.91 65.62 17.06 65.47 17.06 65.47C17.06 65.62 16.91 65.47 16.76 65.31C16.76 65.16 16.61 65.01 16.45 64.86L16.3 65.01C16.61 65.16 16.61 65.31 16.76 65.31ZM92.01 110.39C92.16 110.39 92.31 110.23 92.46 110.23L92.31 110.08C92.16 110.23 92.16 110.23 92.01 110.84C92.16 110.69 92.16 110.54 92.01 110.39C91.7 110.39 91.55 110.54 91.25 110.54C91.25 110.69 91.25 110.69 91.25 110.84C91.55 110.84 91.85 110.84 92.01 110.39ZM16.45 61.51C16.3 61.51 16.15 61.51 16.15 61.51C16.15 61.81 16.3 62.12 16.3 62.42C16.45 62.42 16.45 62.42 16.61 62.42C16.61 62.12 16.61 61.81 16.3 61.66C16.15 61.51 16 61.35 15.85 61.35C15.85 60.75 15.85 60.44 15.85 60.14C15.24 59.83 14.63 59.53 14.02 59.07C14.02 58.61 14.02 58.16 14.02 57.55C13.72 57.55 13.56 57.55 13.26 57.55C13.26 58.31 12.96 59.22 13.26 59.83C13.56 60.59 12.81 61.2 13.11 61.81C13.11 61.96 13.11 62.27 13.26 62.42C14.17 64.25 14.17 66.23 14.63 68.05C14.93 69.12 15.09 70.19 14.93 71.25C14.78 72.17 15.09 72.77 15.54 73.54C15.69 73.54 15.85 73.38 16.15 73.38C16 73.23 15.85 73.08 15.69 72.93C15.85 72.47 16.15 71.86 16.15 71.4C16.15 70.8 15.54 70.19 15.54 69.58C15.54 68.97 15.85 68.21 15.39 67.6C14.78 66.53 15.24 65.31 14.78 64.25C14.63 63.94 15.09 63.49 15.24 63.18C14.78 62.12 14.78 62.12 15.09 60.59C15.24 60.75 15.39 60.9 15.69 61.05C15.85 61.2 16 61.35 16.45 61.51ZM22.99 173.27C23.14 173.27 23.29 173.27 23.29 173.27C23.29 172.97 23.14 172.67 23.14 172.36C22.99 172.36 22.99 172.36 22.84 172.36C22.84 172.67 22.84 172.97 23.29 173.12C23.29 173.12 23.29 173.12 23.14 173.27C23.29 173.43 23.29 173.58 23.45 173.58L23.6 173.43C23.6 173.43 23.45 173.27 22.99 173.27ZM15.09 26.33C15.39 26.03 15.54 25.88 16 25.42C15.39 25.42 15.24 25.42 14.78 25.57C14.78 25.88 14.93 26.18 15.24 26.33C15.24 26.33 15.24 26.33 15.09 26.48C15.24 26.64 15.24 26.79 15.39 26.79L15.54 26.64C15.69 26.48 15.54 26.33 15.09 26.33ZM30.89 34.71C30.74 34.71 30.59 34.71 30.59 34.71C30.59 35.16 30.74 35.62 30.74 35.92C31.05 35.77 31.05 35.62 31.05 35.32C31.05 35.01 31.05 34.86 30.29 34.55C30.44 34.55 30.59 34.55 30.59 34.55C30.59 34.25 30.44 33.95 30.44 33.64C30.29 33.64 30.29 33.64 30.14 33.64C30.29 34.1 30.29 34.4 30.89 34.71ZM8.4 51.61C8.24 51.61 8.09 51.76 7.94 51.76L8.09 51.91C8.09 51.91 8.24 51.76 8.4 51.61C8.85 51 8.85 51 8.4 50.24C8.4 50.85 8.4 51.15 8.4 51.61ZM14.33 98.66C14.33 97.75 14.17 97.44 14.17 96.83C13.87 96.99 13.56 97.14 13.26 97.29C13.56 97.75 13.87 98.05 14.33 98.2C14.33 98.2 14.33 98.2 14.17 98.36C14.33 98.51 14.33 98.66 14.48 98.66L14.63 98.51C14.48 98.36 14.33 98.36 14.33 98.66ZM17.97 81.91C18.43 81.3 18.58 80.85 19.04 80.39C18.58 80.39 18.28 80.24 17.97 80.24C17.97 80.85 17.97 81.15 18.73 81.61C18.58 81.61 18.43 81.61 18.43 81.61C18.43 81.91 18.58 82.22 18.58 82.52C18.73 82.52 18.73 82.52 18.89 82.52C18.73 82.06 18.73 81.76 17.97 81.91ZM9.76 51.36C9.46 50.6 9.31 50.14 9 49.38C8.7 50.45 8.85 51.06 9.76 51.36C9.61 51.21 9.61 51.21 9.61 51.36C9.76 51.51 9.76 51.66 9.92 51.66L10.07 51.51C9.92 51.51 9.76 51.36 9.76 51.36ZM28.46 44C28.46 43.69 28.46 43.08 28.46 42.32C28.01 42.78 27.85 43.08 27.4 43.39C27.85 43.69 28.16 43.84 28.46 44.15C28.46 44.3 28.46 44.45 28.46 44.6C27.7 45.67 27.85 45.98 29.22 46.28C29.22 45.98 29.22 45.67 29.22 45.37C29.22 45.37 29.22 45.37 29.37 45.52C29.53 45.37 29.53 45.37 29.68 45.21L29.53 45.06C29.37 45.21 29.37 45.21 29.22 45.52C28.92 45.21 28.61 44.91 28.46 44.6C28.61 44.6 28.77 44.45 28.77 44.45C28.77 44.3 28.61 44.3 28.46 44ZM10.68 24.35C10.83 24.35 10.98 24.2 11.13 24.2L10.98 24.05C10.83 24.05 10.68 24.2 10.68 24.35C9.61 25.27 10.83 25.88 10.83 26.64C11.13 26.64 11.28 26.48 11.59 26.48C11.28 25.72 10.98 24.96 10.68 24.35ZM22.99 59.07C23.14 59.83 23.29 60.44 23.45 61.05C23.29 61.2 23.14 61.35 22.99 61.51C23.14 61.66 23.14 61.66 23.29 61.81C23.6 61.66 24.05 61.35 24.36 61.2C24.21 60.9 24.05 60.59 23.9 60.44C24.05 60.14 24.21 59.98 24.36 59.68C23.9 59.53 23.6 59.22 22.84 59.37C23.29 58.77 23.45 58.31 23.9 57.85C23.45 57.85 23.14 57.7 22.84 57.7C22.69 58.31 22.84 58.77 22.99 59.07ZM35.61 30.8C35.46 30.8 35.3 30.96 35.15 30.96L35.3 31.11C35.46 30.96 35.61 30.8 35.61 30.8L35.76 30.96C35.91 30.65 36.06 30.35 36.22 29.89L36.37 30.04C36.37 29.43 36.37 28.67 36.52 28.06C36.22 28.06 36.06 28.06 35.76 28.06C35.76 28.98 35.76 29.89 35.61 30.8ZM25.12 169.92C25.12 170.08 25.12 170.23 25.12 170.23C25.42 170.23 25.73 170.08 26.03 170.08C26.03 169.92 26.03 169.92 26.03 169.77C25.73 169.77 25.42 169.77 25.73 170.84C25.27 170.53 24.97 170.23 24.36 169.77C24.21 170.23 24.21 170.53 24.21 170.84C24.05 171.14 23.9 171.45 23.9 171.6C24.21 171.75 24.51 171.9 24.97 172.21C24.97 172.06 24.97 171.75 25.12 171.6C25.27 171.6 25.42 171.45 25.12 169.92ZM24.97 21.15C25.42 20.24 26.03 19.48 25.12 18.57C25.12 18.57 24.97 18.41 24.81 18.41C24.66 18.57 24.36 18.87 24.05 19.02C24.21 19.33 24.36 19.63 24.51 19.78C24.36 19.94 24.21 20.09 24.21 20.24C24.36 20.55 24.66 20.7 25.12 20.85C25.12 21 25.12 21 24.97 21.15C25.12 21.15 25.12 21.31 25.27 21.46L25.42 21.31C25.42 21.15 25.27 21.15 24.97 21.15ZM25.27 29.68C25.12 29.68 24.97 29.83 24.81 29.83L24.97 29.99C25.12 29.83 25.12 29.83 25.12 29.53C25.73 29.83 26.18 29.99 26.94 30.29C26.79 29.99 26.79 29.83 26.79 29.68C26.79 29.53 26.64 29.38 26.64 29.07C26.64 28.92 26.64 28.62 26.64 28.46C26.64 28.31 26.49 28.16 26.49 28.01C26.03 28.01 25.73 28.01 25.27 28.01C25.42 28.46 25.57 28.77 25.73 29.07C25.42 29.23 25.27 29.38 25.27 29.68ZM29.83 70.49C30.29 69.88 30.44 69.58 30.59 69.27C30.44 68.82 30.14 68.36 29.98 67.9C29.37 67.9 28.61 67.9 28.01 67.9C28.16 68.36 28.16 68.51 28.31 68.66C28.77 68.66 29.22 68.66 29.83 68.66C29.83 69.12 29.98 69.58 30.59 69.88C30.44 69.88 30.29 69.88 30.29 69.88C30.29 70.19 30.44 70.49 30.44 70.8C30.59 70.8 30.59 70.8 30.74 70.8C30.44 70.8 30.44 70.49 29.83 70.49ZM18.13 101.1C19.04 100.03 18.89 98.81 18.89 97.75C17.97 97.14 18.73 96.22 18.28 95.46C17.97 95.01 18.13 94.7 17.52 94.55C17.82 95.62 17.82 95.77 17.37 96.53C17.67 98.05 17.82 99.57 18.58 100.95C18.28 101.25 18.13 101.4 17.97 101.55C18.28 102.01 18.43 102.62 18.73 102.92C18.89 103.08 19.19 103.08 19.65 103.08C19.34 102.32 19.19 101.86 18.89 101.4C18.89 101.25 18.73 101.1 18.13 101.1ZM30.29 56.33C30.14 55.57 29.83 54.96 29.68 54.05C29.37 54.35 29.22 54.5 29.07 54.65C29.68 55.57 29.22 56.48 29.37 57.4C29.83 58 30.14 58.61 30.59 59.37C30.44 59.68 30.29 59.98 30.14 60.29C30.44 60.75 30.59 60.9 30.74 61.35C31.05 60.75 31.2 60.29 31.5 59.98C31.2 59.22 31.05 58.61 30.89 58.31C31.05 57.55 31.05 56.94 31.2 56.48C30.74 56.33 30.59 56.33 30.29 56.33ZM25.88 32.73C26.18 32.73 26.49 32.73 26.79 32.73C26.79 32.42 26.79 32.12 26.79 31.97C26.49 31.97 26.33 31.97 26.03 31.97C26.03 32.27 26.03 32.58 26.18 35.32C26.49 34.55 24.97 33.95 25.88 33.03C25.57 32.27 25.27 31.36 25.12 30.6C24.97 32.58 23.9 34.55 25.42 36.23C26.03 36.08 26.64 35.92 27.25 35.77C26.94 34.71 26.79 33.95 26.64 33.18L26.49 33.18C26.33 33.95 26.33 34.55 25.88 32.73ZM24.51 165.05C24.66 164.59 25.12 163.99 24.97 163.83C24.51 163.07 24.81 162.16 24.66 161.09C24.36 161.09 24.05 161.24 23.75 161.24C23.9 161.7 24.05 162.01 24.36 162.31C23.9 162.46 23.6 162.62 22.99 162.92C23.29 162.01 23.45 161.55 23.75 160.94C23.45 160.64 23.14 160.33 22.69 160.03C23.75 159.42 23.14 158.66 22.99 158.05C23.9 156.98 22.69 156.22 22.69 155.31C22.53 156.22 22.23 156.98 22.84 157.89C22.53 158.05 22.23 158.2 21.93 158.35C22.38 159.27 22.38 159.27 21.77 160.33C22.08 160.64 22.38 160.79 22.53 160.94C22.38 161.7 22.38 162.01 22.38 162.46C22.38 162.77 22.69 162.92 22.69 163.22C22.69 165.66 22.84 167.94 22.84 170.38C22.84 170.84 22.84 171.29 22.84 171.75C22.99 171.75 22.99 171.75 23.14 171.75C23.45 171.14 23.75 170.38 24.05 169.77C23.9 169.47 23.6 169.16 23.45 169.01C24.05 167.64 24.05 166.27 23.6 164.9C24.05 164.9 24.36 164.9 24.97 164.9C24.66 165.51 24.36 165.97 24.36 166.57C24.36 167.03 24.66 167.64 24.81 168.1C24.97 167.49 24.66 166.88 24.81 166.57C24.81 165.97 25.12 165.66 24.51 165.05ZM34.24 34.46C33.63 34.91 33.94 36.13 32.72 36.44C32.42 37.2 32.11 38.11 31.81 38.87C31.66 39.18 31.66 39.63 31.81 40.09C31.81 40.55 32.11 41.01 32.26 41.46C33.63 41.31 35 40.55 35.15 39.94C35.3 39.48 35.46 38.87 35.61 38.26C35 37.81 35.61 36.89 35.46 36.13C35.15 35.37 36.06 34.76 35.61 33.85C35.3 33.24 35.61 32.33 35.61 31.11C34.85 32.33 34.39 33.09 33.94 34C33.94 34 33.94 34.15 34.24 34.46ZM16.61 80.54C16 81.76 15.85 81.91 16.15 82.98C16.3 83.43 16 83.89 16.3 84.5C16.61 84.96 16.76 85.87 16.61 86.02C15.69 86.78 16.76 87.09 16.76 87.7C16.76 88.61 16.91 89.68 17.06 90.59C17.21 91.66 17.37 92.57 17.52 93.79C17.97 93.48 18.28 93.18 18.73 93.03C18.43 92.72 18.13 92.42 17.97 92.11C18.28 91.5 18.43 90.89 18.73 90.44C18.43 89.98 18.13 89.52 18.13 89.07C17.67 87.24 17.82 85.41 17.52 83.59C17.37 82.06 17.06 80.69 16.61 79.32C16.61 79.17 16.45 79.17 16.15 79.02C16 79.17 15.85 79.32 15.85 79.47C16.15 80.08 16.45 80.39 16.61 80.54ZM25.12 158.81C24.97 157.89 24.36 157.13 24.66 156.52C24.81 155.92 24.97 155.46 24.66 154.85C24.36 154.24 24.66 153.48 24.51 152.87C24.05 151.65 24.21 150.28 24.81 149.22C24.66 148.45 24.51 147.69 24.36 146.78C23.9 147.08 23.6 147.39 23.14 147.54C23.75 148.91 23.6 150.28 23.6 151.5C23.45 152.41 23.9 153.17 24.21 153.78C24.05 154.24 23.9 154.7 23.9 155C23.9 155.31 24.51 155.61 23.9 156.07C23.75 156.22 24.21 156.83 24.21 157.28C24.21 157.74 24.21 158.2 24.21 158.66C24.21 159.11 24.21 159.42 24.36 160.33C24.51 159.57 24.81 159.27 25.12 158.81ZM19.8 130.18C19.95 130.64 20.1 130.94 20.1 131.25C20.25 131.55 20.25 131.86 20.41 132.16C19.34 133.07 20.25 133.68 20.86 134.29C19.8 135.05 20.86 135.82 20.86 136.42C20.71 136.73 20.41 136.88 20.25 137.03C20.71 138.1 20.71 138.1 20.25 139.17C20.86 139.62 20.56 140.69 21.77 140.69C21.47 139.93 21.32 139.17 21.01 138.56C21.62 137.8 21.77 136.88 21.32 135.97C21.17 135.66 21.01 135.36 21.17 135.21C21.62 134.29 21.32 133.68 21.01 132.77C20.71 132.16 20.71 131.4 21.32 130.94C21.01 130.33 20.86 129.72 20.56 129.12C20.56 129.12 20.41 129.12 20.1 128.96C20.25 129.42 20.41 129.72 20.41 130.03C20.41 130.18 20.25 130.18 19.8 130.18ZM22.38 132.47C22.38 132.92 22.23 133.84 22.38 133.84C23.45 134.29 21.93 135.05 22.69 135.51C22.23 136.12 22.23 136.58 22.53 137.34C22.99 138.25 22.84 139.47 22.99 140.54C22.99 140.69 23.14 140.84 23.14 140.99C23.75 141.14 24.36 140.99 24.66 140.38C24.21 140.08 23.9 139.93 23.75 139.77C22.69 138.25 24.81 137.19 23.6 135.97C23.9 134.75 22.99 133.53 23.29 132.31C22.84 132.47 22.69 132.47 22.38 132.47ZM11.59 74.75C11.74 72.77 11.74 71.25 11.74 69.58C11.59 69.42 11.28 69.12 10.83 68.82C10.83 68.21 10.83 67.6 10.98 66.68C10.68 67.29 10.37 67.6 10.22 67.9C10.98 68.36 10.52 68.82 10.22 69.12C10.98 70.49 10.98 72.01 11.13 73.38C11.28 73.84 11.28 73.99 11.59 74.75ZM19.95 112.37C19.8 111.76 19.8 111.3 19.8 110.84C19.8 110.39 19.95 109.93 19.8 109.62C19.8 109.17 19.65 108.71 19.49 108.25C19.34 107.95 19.19 107.49 18.89 107.19C18.73 108.86 18.73 110.54 18.89 112.06C18.89 112.52 19.34 112.82 19.49 113.28C19.65 112.82 19.8 112.52 19.95 112.37ZM29.53 47.65C29.22 47.5 28.92 47.35 28.31 47.04C28.31 47.95 28.16 48.41 28.46 49.02C28.77 49.48 28.31 50.24 28.16 51C28.61 51 28.92 51 29.22 51C29.37 50.54 29.53 50.24 29.68 49.93C29.22 49.32 29.83 48.56 29.53 47.65ZM22.08 149.67C21.93 149.67 21.77 149.82 21.62 149.82C21.62 150.28 21.62 150.74 21.62 151.35C21.47 151.8 22.23 152.26 21.62 152.72C21.93 153.02 22.08 153.17 22.38 153.48C22.23 153.78 22.08 154.09 21.93 154.09C22.23 154.54 22.38 154.85 22.53 155C22.69 154.09 23.14 153.48 22.69 152.57C22.38 152.11 22.84 151.35 22.84 150.59C22.53 150.43 22.38 149.98 22.08 149.67ZM19.95 116.17C20.1 115.87 20.41 115.56 20.41 115.41C19.95 114.8 19.65 114.19 19.04 113.28C19.19 115.26 19.34 116.78 19.49 118.3C19.65 118.46 19.8 118.76 20.1 118.91C20.25 118.76 20.56 118.46 20.71 118.3C20.41 117.7 20.25 116.93 19.95 116.17ZM18.28 44.3C17.67 44.76 17.37 44.91 17.21 45.21C17.06 46.28 17.06 47.35 17.67 47.95C18.13 47.8 18.43 47.5 18.73 47.5C18.58 46.43 18.43 45.52 18.28 44.3ZM15.69 74.3C15.54 75.97 15.39 77.34 16 78.71C16.15 78.71 16.45 78.71 16.61 78.71C17.21 77.95 16.45 77.5 16.45 76.89C16.45 76.28 16.76 75.67 16.91 74.91C16.45 74.75 16.15 74.6 15.69 74.3ZM20.1 120.13C18.73 121.2 19.49 122.57 19.65 123.79C19.65 123.94 19.8 123.94 19.95 124.09C20.1 124.09 20.25 123.94 20.56 123.94C20.41 123.79 20.25 123.63 20.1 123.48C20.86 122.42 20.41 121.35 20.56 120.28C20.41 120.13 20.25 120.13 20.1 120.13ZM17.82 105.06C18.28 105.67 18.58 106.12 18.89 106.58C18.89 105.82 18.89 104.9 19.04 104.14C18.73 103.99 18.43 103.84 17.97 103.53C17.97 104.3 17.82 104.9 17.82 105.06ZM24.51 14.45C24.36 13.69 24.05 13.08 23.9 12.48C23.6 12.93 23.29 13.24 22.84 13.69C22.69 13.24 22.69 12.93 22.69 12.93C22.38 13.08 22.08 13.08 21.77 13.24C22.69 14.15 23.45 14.61 24.51 14.45ZM78.17 128.66C77.87 129.57 77.72 130.33 77.56 131.1C77.56 131.1 78.48 131.86 78.63 132.01C78.63 131.25 78.63 130.33 78.78 129.57C78.63 129.57 78.63 129.72 78.48 129.72C78.33 129.57 78.33 129.27 78.17 128.66ZM26.49 122.11C27.09 120.74 26.03 119.83 25.42 118.76C25.57 119.83 25.73 120.89 25.88 122.11C26.18 122.11 26.33 122.11 26.49 122.11ZM28.92 67.45C29.53 68.05 30.29 67.14 31.05 67.45C31.05 67.29 31.05 66.99 31.05 66.84C30.59 66.68 30.29 66.68 29.68 66.53C29.98 66.07 30.14 65.92 30.29 65.62C30.14 65.77 29.98 65.92 29.83 66.07C29.83 65.77 29.68 65.31 29.68 64.7C29.37 65.92 29.07 66.68 28.92 67.45ZM20.56 128.35L20.71 128.35C20.71 127.44 20.86 126.37 20.86 125.46C20.56 125.46 20.41 125.31 20.25 125.46C20.1 125.46 19.8 125.46 19.65 125.61C19.8 126.53 20.1 127.44 20.56 128.35ZM16.91 72.47C16.76 72.62 16.61 72.93 16.61 73.08C16.76 73.08 16.76 73.23 16.91 73.23C17.21 73.08 17.52 72.77 17.82 72.62C17.82 72.01 17.82 71.56 17.82 70.95C17.52 70.8 17.06 70.64 16.45 70.19C16.61 71.25 16.76 71.86 16.91 72.47ZM21.77 145.1C21.93 143.89 22.23 142.82 21.62 141.91C21.47 141.75 21.17 141.6 21.01 141.6C21.01 142.67 21.17 143.58 21.17 144.5C21.17 144.5 21.47 144.8 21.77 145.1ZM21.01 146.02C21.17 146.93 21.32 147.84 21.47 148.91C21.62 149.06 21.77 149.22 21.93 149.52C22.23 149.22 22.38 148.91 22.69 148.61C22.23 148.45 21.93 148.15 21.77 148.15C21.77 147.39 21.77 146.78 21.62 146.02C21.32 145.87 21.17 145.87 21.01 146.02ZM26.03 39.73C25.57 39.73 25.27 39.73 24.51 39.73C25.88 40.49 25.57 41.86 26.33 42.62C26.49 42.47 26.79 42.32 26.79 42.17C26.49 41.25 26.18 40.49 26.03 39.73ZM14.33 43.54C13.72 42.78 13.72 42.78 12.96 42.78C12.65 44 13.72 44.6 14.17 45.67C14.17 45.21 14.02 44.76 14.02 44C14.02 44 14.17 43.84 14.33 43.54ZM20.41 63.79C20.41 64.86 20.25 65.92 20.25 67.14C20.41 67.14 20.41 66.99 20.56 66.99C20.56 67.29 20.71 67.6 20.86 67.9C21.62 66.38 20.41 65.16 20.41 63.79ZM22.23 15.22C22.38 15.52 22.53 15.52 22.53 15.67C22.53 15.83 22.53 15.98 22.38 16.13C22.08 17.35 22.08 17.5 23.45 17.8C23.29 16.89 23.14 16.13 22.99 15.22C22.84 15.37 22.69 15.22 22.23 15.22ZM10.07 63.79C10.07 64.4 10.07 65.16 9.92 65.92C10.37 66.07 10.68 66.23 11.13 66.38C11.28 66.23 11.44 66.07 11.59 66.07C10.22 65.62 11.28 64.25 10.07 63.79ZM25.57 23.29C25.42 23.59 25.27 24.05 24.97 24.35C25.12 24.81 25.27 25.11 25.42 25.42C25.57 25.42 25.73 25.42 25.88 25.42C26.03 24.81 26.18 24.05 26.49 23.29C26.33 23.29 26.03 23.29 25.57 23.29ZM13.26 32.73C12.65 32.27 12.2 31.97 11.74 31.66C11.74 32.27 11.59 32.88 11.89 33.79C12.35 33.34 12.65 33.03 13.26 32.73ZM7.33 0.45C6.88 0.14 6.72 55.62 5.96 55.47C6.27 56.38 6.57 1.05 6.72 1.66C6.72 1.82 7.03 1.82 7.18 2.12C7.18 1.51 7.18 1.05 7.33 0.45ZM16.76 35.62C16.76 35.32 17.37 35.32 17.06 35.01C16.91 35.01 16.61 35.01 16.45 35.01C16.45 35.92 16.45 36.69 16.3 37.45C16.61 37.45 16.76 37.45 17.21 37.45C17.06 36.84 16.91 36.23 16.76 35.62ZM24.21 175.56C23.29 176.02 22.84 176.17 22.23 176.47C22.53 176.62 22.84 176.78 23.14 176.78C23.14 177.23 23.29 177.54 23.29 178.3C23.6 177.39 23.75 176.62 24.21 175.56ZM15.54 55.26C15.39 54.35 15.24 53.59 15.09 52.67C14.78 52.67 14.63 52.67 14.33 52.83C15.24 53.59 14.48 54.5 14.93 55.26C14.93 55.26 15.09 55.26 15.54 55.26ZM12.96 39.12C12.65 40.65 12.65 40.65 13.41 42.02C13.56 41.1 13.41 40.04 12.96 39.12ZM8.7 49.78C9 48.87 8.24 48.11 7.94 47.35C7.94 47.65 7.94 47.95 7.94 48.41C7.94 48.72 7.94 49.02 7.94 49.32C8.24 49.63 8.4 49.78 8.55 49.93C8.55 49.78 8.55 49.78 8.7 49.78ZM82.58 145.41C81.67 146.78 81.82 147.08 83.04 147.24C83.04 146.78 82.89 146.17 82.58 145.41ZM11.59 28.31C11.44 29.23 11.44 29.99 11.28 30.9C11.59 30.9 11.74 30.9 12.04 30.75C11.89 29.99 11.74 29.07 11.59 28.31ZM8.7 9.73C8.7 10.34 8.7 10.65 8.7 10.8C8.7 11.1 8.4 11.26 8.4 11.56C8.55 11.87 8.7 12.02 8.85 12.17C9.16 11.71 9.31 11.26 9.61 10.8C9.31 10.5 9.16 10.19 8.7 9.73ZM19.04 51.91C19.04 51.3 19.04 50.85 19.04 50.24C18.73 50.24 18.58 50.24 18.43 50.24C18.13 51 18.28 51.61 19.04 51.91ZM15.09 30.75C15.39 31.05 15.54 31.36 15.69 31.51C16 31.05 16.76 30.9 16.15 30.14C15.85 30.29 15.54 30.44 15.09 30.75ZM21.17 70.49C21.47 70.03 21.62 69.58 21.93 69.12C21.32 69.12 21.01 69.12 20.41 69.12C20.56 69.42 20.71 69.42 20.86 69.58C21.01 69.88 21.01 70.03 21.17 70.49ZM18.73 54.65C18.89 54.65 19.04 54.65 19.19 54.65C19.19 54.2 19.19 53.74 19.19 53.28C18.89 53.28 18.73 53.44 18.43 53.44C18.58 53.89 18.73 54.2 18.73 54.65ZM23.29 90.13C23.29 91.05 23.29 91.5 23.14 92.11C23.45 92.11 23.75 92.11 24.05 91.96C23.9 91.35 23.6 90.89 23.29 90.13ZM26.18 126.68C26.49 126.53 26.79 126.53 27.09 126.37C26.79 125.77 26.64 125.31 26.33 124.55C26.18 125.31 26.18 125.77 26.18 126.68ZM23.6 16.74C24.05 16.43 24.97 17.2 24.81 15.83C24.36 15.83 24.05 15.83 23.6 15.83C23.6 16.13 23.6 16.28 23.6 16.74ZM19.04 56.18C19.04 56.94 19.04 57.24 19.04 57.7C19.34 57.7 19.65 57.7 20.1 57.55C19.65 57.09 19.34 56.63 19.04 56.18ZM88.05 93.33C87.6 92.87 86.99 92.87 87.14 92.27C86.99 92.27 86.99 92.27 86.84 92.27C86.84 92.72 86.84 93.03 86.84 93.33C87.29 93.33 87.6 93.33 88.05 93.33ZM17.82 40.34C17.67 40.34 17.67 40.34 17.52 40.19C17.37 40.49 17.21 40.95 16.91 41.41C17.37 41.41 17.52 41.41 17.82 41.41C17.67 41.1 17.67 40.8 17.82 40.34ZM12.5 11.26C12.96 10.8 13.26 10.5 13.56 10.04C13.11 9.89 12.81 9.89 12.5 9.73C12.65 10.19 12.5 10.5 12.5 11.26ZM12.65 38.06C12.65 37.3 12.65 36.99 12.65 36.53C12.35 36.53 12.04 36.69 11.59 36.69C12.04 37.14 12.2 37.45 12.65 38.06ZM28.61 59.07C28.61 58.46 28.61 58 28.61 57.4C28.31 57.55 28.01 57.55 27.7 57.7C28.01 58.31 28.31 58.61 28.61 59.07ZM16.91 40.04C16.91 39.28 16.91 38.82 16.91 38.36C16.61 38.36 16.3 38.51 16.15 38.51C16.45 38.97 16.61 39.28 16.91 40.04ZM6.72 37.14C6.88 36.23 6.42 36.23 5.81 36.53C5.81 36.69 5.81 36.99 5.96 37.14C6.12 37.14 6.42 37.14 6.72 37.14ZM30.59 74.15C30.59 73.84 30.59 73.54 30.59 73.23C30.29 73.23 30.14 73.38 29.83 73.38C29.83 73.69 29.98 73.99 29.98 74.15C30.29 74.15 30.44 74.15 30.59 74.15ZM25.27 103.38C25.42 102.47 24.97 102.47 24.36 102.77C24.36 102.92 24.36 103.23 24.51 103.38C24.66 103.38 24.97 103.38 25.27 103.38ZM18.58 79.78C18.43 79.17 18.28 78.41 17.52 79.02C17.82 79.32 18.28 79.63 18.58 79.78ZM24.81 99.88C24.51 100.34 23.9 100.34 24.21 101.25C24.51 100.95 25.27 100.79 24.81 99.88ZM17.21 44.15C18.13 44.3 18.13 43.84 17.82 43.23C17.67 43.23 17.37 43.23 17.21 43.39C17.37 43.54 17.37 43.84 17.21 44.15ZM21.77 81.15C22.08 81.15 22.38 81.15 22.69 81.15C22.69 80.85 22.53 80.69 22.53 80.39C22.23 80.39 21.93 80.54 21.77 80.54C21.77 80.69 21.77 80.85 21.77 81.15ZM24.36 93.79C24.05 93.33 23.9 92.87 23.6 92.27C23.6 92.87 23.6 93.33 23.6 93.79C23.75 93.79 24.05 93.79 24.36 93.79ZM18.73 85.41C18.73 85.72 18.73 86.02 18.73 86.33C19.04 86.33 19.19 86.17 19.49 86.17C19.49 85.87 19.34 85.57 19.34 85.41C19.04 85.41 19.04 85.41 18.73 85.41ZM20.56 58.31C19.95 58.31 19.65 58.31 19.19 58.31C19.19 58.61 19.34 58.77 19.34 59.22C19.8 58.92 19.95 58.61 20.56 58.31ZM86.53 95.16C86.53 95.92 86.69 96.38 86.69 96.83C86.99 96.53 87.29 96.38 87.45 96.07C87.29 96.07 87.14 95.77 86.53 95.16ZM22.53 84.8C22.38 85.72 22.84 85.72 23.45 85.41C23.45 85.26 23.45 84.96 23.29 84.8C22.99 84.8 22.84 84.8 22.53 84.8ZM81.21 136.88C81.37 136.88 81.52 136.88 81.52 136.88C81.52 136.42 81.52 135.82 81.52 135.36C81.37 135.36 81.37 135.36 81.21 135.36C81.21 135.82 81.21 136.42 81.21 136.88ZM28.77 56.63C28.61 56.33 28.46 56.02 28.46 55.72L28.31 55.87C28.31 56.18 28.31 56.33 28.31 56.63C28.31 56.63 28.46 56.63 28.77 56.63ZM21.62 72.62C21.32 72.77 21.01 72.93 20.25 73.23C21.01 73.23 21.32 73.23 21.47 73.23C21.62 73.08 21.62 72.93 21.62 72.62ZM20.41 61.66C20.25 61.66 20.1 61.66 19.95 61.66C19.95 62.12 19.95 62.42 20.1 62.88L20.25 62.88C20.25 62.42 20.41 62.12 20.41 61.66ZM85.47 57.85C85.17 58 84.86 58.16 84.1 58.46C84.86 58.46 85.17 58.46 85.32 58.46C85.47 58.31 85.47 58.16 85.47 57.85ZM86.53 89.22C86.53 89.37 86.53 89.52 86.53 89.98C86.84 89.98 86.99 89.98 87.6 89.83C87.14 89.52 86.84 89.37 86.53 89.22ZM10.22 53.19C10.07 53.8 10.07 53.8 11.13 53.8C10.68 53.49 10.37 53.34 10.22 53.19ZM9.61 14.76C9.46 14.45 9.31 14.15 9 13.39C9 14.15 9 14.45 9 14.61C9.16 14.76 9.46 14.76 9.61 14.76ZM29.53 24.66C29.83 23.9 29.68 23.59 29.22 23.74C29.22 24.05 29.37 24.35 29.53 24.66ZM7.94 7.6C8.09 7.6 8.24 7.6 8.4 7.6C8.4 7.15 8.4 6.84 8.24 6.38L8.09 6.38C7.94 6.84 7.94 7.3 7.94 7.6ZM26.79 128.81C26.64 128.81 26.49 128.81 26.33 128.81C26.33 129.12 26.49 129.57 26.49 129.88L26.64 129.88C26.64 129.57 26.79 129.12 26.79 128.81ZM26.03 37.9C25.73 38.67 25.88 38.97 26.33 38.82C26.18 38.51 26.03 38.21 26.03 37.9ZM16 33.03C16 33.18 16 33.34 16 33.79C16.3 33.79 16.45 33.79 17.06 33.64C16.61 33.34 16.3 33.18 16 33.03ZM19.04 83.74L18.89 83.74C18.89 84.2 18.89 84.65 18.89 85.11L19.04 85.11C19.04 84.5 19.04 84.04 19.04 83.74ZM26.49 122.57L26.33 122.57C26.33 123.02 26.33 123.48 26.33 123.94L26.49 123.94C26.49 123.48 26.49 123.02 26.49 122.57ZM29.07 54.05C29.07 53.74 28.92 53.44 28.92 53.13C28.61 53.44 28.46 53.74 28.31 53.89C28.46 54.05 28.61 54.05 29.07 54.05ZM28.16 52.07C28.01 52.07 27.85 52.07 27.7 52.07C27.7 52.52 27.7 52.83 27.85 53.28L28.01 53.28C28.01 52.83 28.16 52.37 28.16 52.07ZM36.37 25.78C37.58 25.93 37.58 25.93 37.43 25.47C37.28 25.47 36.98 25.63 36.37 25.78ZM21.93 7.6C21.77 8.21 21.77 8.21 22.84 8.21C22.38 7.91 22.08 7.75 21.93 7.6ZM12.2 7.6C12.5 7.6 12.81 7.45 13.11 7.45C12.81 7.15 12.5 6.99 12.35 6.84C12.35 6.99 12.2 7.15 12.2 7.6ZM21.62 70.64C21.32 70.95 21.01 71.25 20.56 71.71C21.32 71.56 21.47 71.56 21.77 71.56C21.77 71.25 21.77 71.1 21.62 70.64ZM22.99 82.98C22.69 82.98 22.38 83.13 22.08 83.13C22.38 83.43 22.69 83.59 22.84 83.74C22.99 83.43 22.99 83.28 22.99 82.98ZM19.34 92.57C19.95 92.72 19.95 92.72 19.95 91.66C19.65 92.11 19.49 92.42 19.34 92.57ZM28.46 182.87L28.46 182.72C28.16 182.72 27.85 182.72 27.55 182.72L27.55 182.87C28.01 182.87 28.31 182.87 28.46 182.87ZM30.59 75.06C30.44 75.06 30.29 75.06 30.29 75.06C30.29 75.36 30.44 75.52 30.44 75.82L30.59 75.82C30.59 75.52 30.59 75.36 30.59 75.06ZM24.36 169.32L24.51 169.32C24.51 169.01 24.51 168.71 24.51 168.4L24.36 168.4C24.51 168.86 24.51 169.01 24.36 169.32ZM24.97 111L24.97 111.15C25.27 111.15 25.57 111.15 25.88 111.15L25.88 111C25.57 111 25.27 111 24.97 111ZM23.75 144.19L23.9 144.19C23.9 143.89 23.9 143.58 23.9 143.28L23.75 143.28C23.75 143.58 23.75 143.89 23.75 144.19ZM25.12 105.21L24.97 105.21C24.97 105.51 24.97 105.82 24.97 106.12L25.12 106.12C24.97 105.82 25.12 105.51 25.12 105.21ZM21.47 178.3L21.62 178.3C21.62 177.99 21.62 177.69 21.62 177.39L21.47 177.39C21.47 177.84 21.47 177.99 21.47 178.3ZM27.25 30.75C27.09 30.75 26.94 30.75 26.94 30.75C26.94 31.05 27.09 31.2 27.09 31.51L27.25 31.51C27.25 31.2 27.25 30.9 27.25 30.75ZM24.21 98.97C24.36 98.97 24.51 98.97 24.51 98.97C24.51 98.66 24.36 98.51 24.36 98.2L24.21 98.2C24.21 98.51 24.21 98.81 24.21 98.97ZM24.97 1.66L24.97 1.82C25.27 1.82 25.57 1.82 25.88 1.82L25.88 1.66C25.57 1.66 25.27 1.66 24.97 1.66ZM18.13 163.83C18.28 163.83 18.43 163.83 18.43 163.83C18.43 163.53 18.28 163.38 18.28 163.07L18.13 163.07C18.13 163.38 18.13 163.53 18.13 163.83ZM21.62 74.75C21.47 74.75 21.32 74.75 21.32 74.75C21.32 75.06 21.47 75.21 21.47 75.52L21.62 75.52C21.47 75.21 21.62 75.06 21.62 74.75ZM20.41 104.9C20.41 104.75 20.41 104.6 20.41 104.6C20.1 104.6 19.95 104.75 19.65 104.75L19.65 104.9C19.8 104.9 20.1 104.9 20.41 104.9ZM20.25 107.04C20.25 106.88 20.25 106.73 20.25 106.73C19.95 106.73 19.8 106.88 19.49 106.88L19.49 107.04C19.8 107.04 19.95 107.04 20.25 107.04ZM23.75 9.58C23.75 9.43 23.75 9.28 23.75 9.28C23.45 9.28 23.29 9.43 22.99 9.43L22.99 9.58C23.29 9.58 23.45 9.58 23.75 9.58ZM23.14 23.9C23.14 23.74 23.14 23.59 23.14 23.59C22.84 23.59 22.69 23.74 22.38 23.74L22.38 23.9C22.69 23.9 22.99 23.9 23.14 23.9ZM26.33 130.49C26.33 130.64 26.33 130.79 26.33 130.79C26.64 130.79 26.79 130.64 27.09 130.64L27.09 130.49C26.79 130.49 26.64 130.49 26.33 130.49ZM23.9 50.29C23.75 50.29 23.6 50.29 23.6 50.29C23.6 50.6 23.75 50.75 23.75 51.06L23.9 51.06C23.9 50.75 23.9 50.45 23.9 50.29ZM22.38 10.5L22.23 10.5C22.23 10.8 22.23 11.1 22.23 11.41L22.38 11.41C22.38 11.1 22.38 10.8 22.38 10.5ZM17.37 32.88C17.37 33.03 17.37 33.18 17.37 33.18C17.67 33.18 17.82 33.03 18.13 33.03L18.13 32.88C17.82 32.88 17.52 32.88 17.37 32.88ZM16.15 63.94C16.3 63.94 16.45 63.94 16.45 63.94C16.45 63.64 16.3 63.49 16.3 63.18L16.15 63.18C16.15 63.49 16.15 63.79 16.15 63.94ZM16 28.92C15.85 28.92 15.69 28.92 15.69 28.92C15.69 29.23 15.85 29.38 15.85 29.68L16 29.68C16 29.38 16 29.23 16 28.92ZM14.63 51.46L14.48 51.46C14.48 51.76 14.48 52.07 14.48 52.37L14.63 52.37C14.63 51.91 14.63 51.76 14.63 51.46ZM15.39 22.22C15.39 22.07 15.39 21.92 15.39 21.92C15.09 21.92 14.93 22.07 14.63 22.07L14.63 22.22C14.93 22.22 15.24 22.22 15.39 22.22ZM13.72 48.41C13.72 48.56 13.72 48.72 13.72 48.72C14.02 48.72 14.17 48.56 14.48 48.56L14.48 48.41C14.17 48.41 13.87 48.41 13.72 48.41ZM14.63 21C14.63 20.85 14.63 20.7 14.63 20.7C14.33 20.7 14.17 20.85 13.87 20.85L13.87 21C14.17 21 14.48 21 14.63 21ZM14.33 18.11C14.17 18.11 14.02 18.11 14.02 18.11C14.02 18.41 14.17 18.57 14.17 18.87L14.33 18.87C14.33 18.57 14.33 18.26 14.33 18.11ZM12.2 4.4L12.04 4.4C12.04 4.71 12.04 5.01 12.04 5.32L12.2 5.32C12.2 5.01 12.2 4.71 12.2 4.4ZM8.09 44.45L8.09 44.3C7.79 44.3 7.48 44.3 7.18 44.3L7.18 44.45C7.48 44.45 7.79 44.45 8.09 44.45ZM7.79 46.74L7.94 46.74C7.94 46.43 7.94 46.13 7.94 45.82L7.79 45.82C7.79 46.28 7.79 46.43 7.79 46.74ZM8.55 48.31L8.7 48.31C8.7 48.01 8.7 47.71 8.7 47.4L8.55 47.4C8.7 47.71 8.7 48.01 8.55 48.31ZM7.03 38.06C7.03 37.9 7.03 37.75 7.03 37.75C6.72 37.75 6.57 37.9 6.27 37.9L6.27 38.06C6.57 38.06 6.72 38.06 7.03 38.06ZM6.88 40.8C6.72 40.8 6.57 40.8 6.57 40.8C6.57 41.1 6.72 41.25 6.72 41.56L6.88 41.56C6.88 41.25 6.88 40.95 6.88 40.8ZM7.33 3.34C7.48 3.34 7.64 3.34 7.64 3.34C7.64 3.03 7.48 2.88 7.48 2.58L7.33 2.58C7.33 2.88 7.33 3.03 7.33 3.34ZM83.34 81.45L83.49 81.45C83.49 81.15 83.49 80.85 83.49 80.54L83.34 80.54C83.49 81 83.34 81.3 83.34 81.45ZM81.37 96.22C81.21 96.22 81.06 96.22 81.06 96.22C81.06 96.53 81.21 96.68 81.21 96.99L81.37 96.99C81.37 96.68 81.37 96.53 81.37 96.22ZM26.94 49.93C27.09 50.09 27.25 50.09 27.4 50.09L27.4 49.93C27.25 49.93 27.09 49.93 26.94 49.93ZM17.67 146.93C17.52 147.08 17.52 147.24 17.52 147.39L17.67 147.39C17.67 147.24 17.67 147.08 17.67 146.93ZM27.85 48.72C27.7 48.56 27.55 48.56 27.4 48.56L27.4 48.72C27.55 48.72 27.7 48.72 27.85 48.72ZM29.83 0.29C29.68 0.14 29.53 0.14 29.37 0.14L29.37 0.29C29.53 0.29 29.68 0.29 29.83 0.29ZM18.13 77.04C17.97 76.89 17.82 76.89 17.67 76.89L17.67 77.04C17.82 77.04 17.97 77.04 18.13 77.04ZM29.37 22.83C29.22 22.68 29.07 22.68 28.92 22.68L28.92 22.83C29.07 22.83 29.22 22.83 29.37 22.83ZM25.73 118.15C25.88 118 25.88 117.85 25.88 117.7L25.73 117.7C25.73 118 25.73 118.15 25.73 118.15ZM18.28 48.56C18.13 48.72 18.13 48.87 18.13 49.02L18.28 49.02C18.28 48.87 18.28 48.72 18.28 48.56ZM20.71 81.61C20.56 81.76 20.56 81.91 20.56 82.06L20.71 82.06C20.71 81.91 20.71 81.76 20.71 81.61ZM25.88 115.26C25.73 115.41 25.73 115.56 25.73 115.72L25.88 115.72C25.88 115.41 25.88 115.41 25.88 115.26ZM23.75 20.85C23.6 20.7 23.45 20.7 23.29 20.7L23.29 20.85C23.45 20.85 23.6 20.85 23.75 20.85ZM29.98 28.46C29.83 28.31 29.68 28.31 29.53 28.31L29.53 28.46C29.68 28.46 29.83 28.46 29.98 28.46ZM22.99 8.52C23.14 8.67 23.29 8.67 23.45 8.67L23.45 8.52C23.29 8.52 23.14 8.52 22.99 8.52ZM23.29 18.41C23.14 18.57 23.14 18.72 23.14 18.87L23.29 18.87C23.29 18.57 23.29 18.57 23.29 18.41ZM29.07 60.9C28.92 60.75 28.77 60.75 28.61 60.75L28.61 60.9C28.77 60.9 28.92 60.9 29.07 60.9ZM29.53 52.22C29.37 52.07 29.22 52.07 29.07 52.07L29.07 52.22C29.22 52.22 29.37 52.22 29.53 52.22ZM30.14 31.66C29.98 31.81 29.98 31.97 29.98 32.12L30.14 32.12C30.14 31.97 30.14 31.81 30.14 31.66ZM24.81 174.64C24.66 174.8 24.66 174.95 24.66 175.1L24.81 175.1C24.81 174.95 24.81 174.8 24.81 174.64ZM15.69 58.31C15.54 58.46 15.54 58.61 15.54 58.77L15.69 58.77C15.69 58.61 15.69 58.46 15.69 58.31ZM30.44 37.45C30.59 37.6 30.74 37.6 30.89 37.6L30.89 37.45C30.74 37.45 30.59 37.45 30.44 37.45ZM30.44 54.65C30.59 54.5 30.59 54.35 30.59 54.2L30.44 54.2C30.44 54.35 30.44 54.5 30.44 54.65ZM16.3 25.57C16.45 25.72 16.61 25.72 16.76 25.72L16.76 25.57C16.61 25.57 16.45 25.57 16.3 25.57ZM30.44 72.77C30.29 72.62 30.14 72.62 29.98 72.62L29.98 72.77C30.14 72.77 30.29 72.77 30.44 72.77ZM16.3 31.97C16.15 32.12 16.15 32.27 16.15 32.42L16.3 32.42C16.3 32.27 16.3 32.12 16.3 31.97ZM17.21 53.8C17.06 53.95 17.06 54.1 17.06 54.25L17.21 54.25C17.21 54.1 17.21 53.95 17.21 53.8ZM23.6 24.96C23.75 25.11 23.9 25.11 24.05 25.11L24.05 24.96C23.9 24.96 23.75 24.96 23.6 24.96ZM13.41 93.48C13.26 93.64 13.26 93.79 13.26 93.94L13.41 93.94C13.41 93.79 13.41 93.64 13.41 93.48ZM13.11 95.16C13.26 95.01 13.26 94.85 13.26 94.7L13.11 94.7C13.11 94.85 13.11 95.01 13.11 95.16ZM32.57 70.34C32.42 70.49 32.42 70.64 32.42 70.8L32.57 70.8C32.42 70.64 32.42 70.49 32.57 70.34ZM14.63 50.54C14.48 50.7 14.48 50.85 14.48 51L14.63 51C14.63 50.85 14.63 50.7 14.63 50.54ZM21.62 40.8C21.47 40.95 21.47 41.1 21.47 41.25L21.62 41.25C21.62 41.1 21.62 40.95 21.62 40.8ZM37.74 31.56C37.58 31.41 37.43 31.41 37.28 31.41L37.28 31.56C37.43 31.41 37.58 31.56 37.74 31.56ZM38.19 24.26C38.34 24.1 38.34 23.95 38.34 23.8L38.19 23.8C38.19 23.95 38.19 24.1 38.19 24.26ZM37.28 110.84C37.43 110.69 37.43 110.54 37.43 110.39L37.28 110.39C37.28 110.54 37.28 110.69 37.28 110.84ZM47.47 114.8C47.62 114.65 47.62 114.5 47.62 114.35L47.47 114.35C47.47 114.5 47.47 114.65 47.47 114.8ZM19.65 90.44C19.49 90.29 19.34 90.29 19.19 90.29L19.19 90.44C19.34 90.44 19.49 90.44 19.65 90.44ZM15.09 24.96C15.24 24.81 15.24 24.66 15.24 24.5L15.09 24.5C15.09 24.66 15.09 24.81 15.09 24.96ZM14.48 47.35C14.33 47.19 14.17 47.19 14.02 47.19L14.02 47.35C14.17 47.35 14.33 47.35 14.48 47.35ZM21.93 78.71C22.08 78.87 22.23 78.87 22.38 78.87L22.38 78.71C22.23 78.71 22.08 78.71 21.93 78.71ZM23.75 36.99C23.9 36.84 23.9 36.69 23.9 36.53L23.75 36.53C23.75 36.69 23.75 36.84 23.75 36.99ZM49.59 96.22C49.44 96.38 49.44 96.53 49.44 96.68L49.59 96.68C49.59 96.53 49.59 96.38 49.59 96.22ZM51.11 98.81C51.27 98.66 51.27 98.51 51.27 98.36L51.11 98.36C51.11 98.51 51.11 98.66 51.11 98.81ZM48.53 213.93C48.68 214.08 48.83 214.08 48.99 214.08L48.99 213.93C48.83 213.93 48.68 213.93 48.53 213.93ZM24.05 52.73C24.21 52.58 24.21 52.43 24.21 52.27L24.05 52.27C24.05 52.43 24.05 52.58 24.05 52.73ZM14.02 16.43C14.17 16.59 14.33 16.59 14.48 16.59L14.48 16.43C14.33 16.43 14.17 16.43 14.02 16.43ZM11.74 78.1C11.89 77.95 11.89 77.8 11.89 77.65L11.74 77.65C11.74 77.95 11.74 78.1 11.74 78.1ZM18.89 87.7C19.04 87.85 19.19 87.85 19.34 87.85L19.34 87.7C19.19 87.7 19.04 87.7 18.89 87.7ZM74.83 15.27C74.68 15.12 74.52 15.12 74.37 15.12L74.37 15.27C74.52 15.27 74.68 15.27 74.83 15.27ZM75.44 92.27C75.28 92.11 75.13 92.11 74.98 92.11L74.98 92.27C75.13 92.27 75.28 92.27 75.44 92.27ZM71.48 204.03C71.33 203.88 71.18 203.88 71.03 203.88L71.03 204.03C71.18 204.03 71.33 204.03 71.48 204.03ZM79.54 24.2C79.69 24.35 79.85 24.35 80 24.35L80 24.2C79.85 24.2 79.69 24.2 79.54 24.2ZM13.56 14C13.41 14.15 13.41 14.3 13.41 14.45L13.56 14.45C13.56 14.3 13.56 14.15 13.56 14ZM82.73 39.48C82.58 39.63 82.58 39.79 82.58 39.94L82.73 39.94C82.73 39.79 82.73 39.63 82.73 39.48ZM81.37 75.06C81.52 75.21 81.67 75.21 81.82 75.21L81.82 75.06C81.67 75.06 81.52 75.06 81.37 75.06ZM84.86 12.17C85.01 12.02 85.01 11.87 85.01 11.71L84.86 11.71C85.01 11.87 85.01 12.02 84.86 12.17ZM83.04 76.12C82.89 75.97 82.73 75.97 82.58 75.97L82.58 76.12C82.73 76.12 82.89 76.12 83.04 76.12ZM12.35 21C12.2 21.15 12.2 21.31 12.2 21.46L12.35 21.46C12.35 21.31 12.35 21.15 12.35 21ZM83.49 78.26C83.65 78.41 83.8 78.41 83.95 78.41L83.95 78.26C83.65 78.26 83.65 78.26 83.49 78.26ZM81.37 138.4C81.52 138.56 81.67 138.56 81.82 138.56L81.82 138.4C81.67 138.4 81.52 138.4 81.37 138.4ZM83.8 102.62C83.65 102.47 83.49 102.47 83.34 102.47L83.34 102.62C83.49 102.62 83.65 102.62 83.8 102.62ZM12.81 50.29C12.96 50.45 13.11 50.45 13.26 50.45L13.26 50.29C13.11 50.29 12.96 50.29 12.81 50.29ZM10.37 59.07C10.22 59.22 10.22 59.37 10.22 59.53L10.37 59.53C10.37 59.37 10.37 59.22 10.37 59.07ZM23.29 86.33C23.14 86.17 22.99 86.17 22.84 86.17L22.84 86.33C22.99 86.33 23.14 86.33 23.29 86.33ZM11.59 17.8C11.74 17.65 11.74 17.5 11.74 17.35L11.59 17.35C11.59 17.65 11.59 17.65 11.59 17.8ZM9.76 60.75C9.92 60.59 9.92 60.44 9.92 60.29L9.76 60.29C9.76 60.44 9.76 60.59 9.76 60.75ZM89.12 113.43C89.27 113.28 89.27 113.13 89.27 112.97L89.12 112.97C89.12 113.13 89.12 113.28 89.12 113.43ZM11.44 15.98C11.28 15.83 11.13 15.83 10.98 15.83L10.98 15.98C11.13 15.98 11.28 15.98 11.44 15.98ZM90.33 111C90.49 111.15 90.64 111.15 90.79 111.15L90.79 111C90.64 111 90.49 111 90.33 111ZM87.9 180.74C88.05 180.89 88.21 180.89 88.36 180.89L88.36 180.74C88.21 180.74 88.05 180.74 87.9 180.74ZM88.51 221.24C88.36 221.09 88.21 221.09 88.05 221.09L88.05 221.24C88.21 221.24 88.36 221.24 88.51 221.24ZM97.02 4.86C96.87 5.01 96.87 5.17 96.87 5.32L97.02 5.32C97.02 5.17 97.02 5.01 97.02 4.86ZM91.7 174.04C91.55 173.88 91.4 173.88 91.25 173.88L91.25 174.04C91.4 174.04 91.55 174.04 91.7 174.04ZM99.46 3.03C99.3 2.88 99.15 2.88 99 2.88L99 3.03C99.15 3.03 99.3 3.03 99.46 3.03ZM101.74 1.21C101.89 1.36 102.04 1.36 102.19 1.36L102.19 1.21C102.04 1.36 101.89 1.21 101.74 1.21ZM96.57 235.1C96.41 234.94 96.26 234.94 96.11 234.94L96.11 235.1C96.26 235.1 96.41 235.1 96.57 235.1ZM100.06 255.5C99.91 255.35 99.76 255.35 99.61 255.35L99.61 255.5C99.76 255.5 99.91 255.5 100.06 255.5ZM100.22 252.91C100.06 252.76 99.91 252.76 99.76 252.76L99.76 252.91C99.91 252.91 100.06 252.91 100.22 252.91ZM20.1 104.14C20.25 103.99 20.25 103.84 20.25 103.69L20.1 103.69C20.1 103.84 20.1 103.99 20.1 104.14ZM108.73 44.76C108.88 44.6 108.88 44.45 108.88 44.3L108.73 44.3C108.73 44.45 108.73 44.6 108.73 44.76ZM8.85 48.77C9 48.92 9.16 48.92 9.31 48.92L9.31 48.77C9.16 48.92 9 48.92 8.85 48.77ZM104.47 207.38C104.32 207.54 104.32 207.69 104.32 207.84L104.47 207.84C104.47 207.54 104.47 207.38 104.47 207.38ZM102.8 253.83C102.95 253.98 103.1 253.98 103.26 253.98L103.26 253.83C103.1 253.83 102.95 253.83 102.8 253.83ZM104.32 217.28C104.47 217.13 104.47 216.98 104.47 216.82L104.32 216.82C104.32 216.98 104.32 217.13 104.32 217.28ZM23.29 88.76C23.45 88.92 23.6 88.92 23.75 88.92L23.75 88.76C23.6 88.76 23.45 88.76 23.29 88.76ZM22.23 4.4C22.08 4.56 22.08 4.71 22.08 4.86L22.23 4.86C22.08 4.71 22.23 4.56 22.23 4.4ZM111.92 49.48C112.07 49.63 112.23 49.63 112.38 49.63L112.38 49.48C112.23 49.48 112.07 49.48 111.92 49.48ZM113.29 44.91C113.14 44.76 112.99 44.76 112.83 44.76L112.83 44.91C113.14 44.76 113.29 44.91 113.29 44.91ZM111.16 149.82C111.01 149.98 111.01 150.13 111.01 150.28L111.16 150.28C111.16 150.13 111.16 149.98 111.16 149.82ZM114.51 248.95C114.35 249.11 114.35 249.26 114.35 249.41L114.51 249.41C114.51 249.26 114.51 249.11 114.51 248.95ZM26.64 26.94C26.49 26.79 26.33 26.79 26.18 26.79L26.18 26.94C26.33 26.94 26.49 26.94 26.64 26.94ZM6.72 3.95C6.88 4.1 7.03 4.1 7.18 4.1L7.18 3.95C7.03 3.95 6.88 3.95 6.72 3.95ZM24.81 82.37C24.97 82.52 25.12 82.52 25.27 82.52L25.27 82.37C25.12 82.37 24.97 82.37 24.81 82.37ZM5.51 13.85C5.66 14 5.81 14 5.96 14L5.96 13.85C5.81 13.85 5.66 13.85 5.51 13.85ZM17.82 113.13C17.67 113.28 17.67 113.43 17.67 113.58L17.82 113.58C17.82 113.43 17.82 113.28 17.82 113.13ZM26.94 36.69C26.79 36.84 26.79 36.99 26.79 37.14L26.94 37.14C26.94 36.99 26.94 36.84 26.94 36.69ZM19.95 50.24C19.8 50.39 19.8 50.54 19.8 50.7L19.95 50.7C19.8 50.54 19.8 50.39 19.95 50.24ZM23.9 117.7C24.05 117.54 24.05 117.39 24.05 117.24L23.9 117.24C23.9 117.39 23.9 117.54 23.9 117.7ZM24.05 123.94C24.21 124.09 24.36 124.09 24.51 124.09L24.51 123.94C24.21 123.94 24.05 123.94 24.05 123.94ZM12.96 214.39C12.81 214.24 12.65 214.08 12.5 213.93C12.35 213.47 12.35 213.02 12.35 212.41C12.5 212.26 12.81 211.8 13.11 211.49C13.26 211.34 13.41 211.34 13.41 211.19L13.26 211.04C13.11 211.19 13.11 211.19 12.96 211.34C12.2 210.58 12.65 209.97 13.11 209.21C12.96 208.91 12.81 208.6 12.65 208.3C12.81 208.14 12.96 207.84 13.26 207.69C12.65 206.77 11.89 206.01 11.13 204.95C11.28 204.79 11.44 204.49 11.59 204.03C11.44 203.73 11.28 203.42 11.13 202.97C11.28 202.81 11.44 202.66 11.59 202.51C11.44 202.21 11.28 201.9 11.13 201.6C11.44 201.44 11.74 201.44 12.04 201.29C12.04 200.84 12.04 200.38 12.04 199.77C12.35 199.92 12.5 199.92 12.5 199.92C12.35 200.84 12.81 201.29 13.26 201.75C12.96 202.51 12.65 203.12 12.35 203.88C12.65 204.64 12.65 204.79 12.04 205.71C12.5 205.71 12.81 205.86 13.26 205.86C13.56 204.03 14.48 202.21 13.56 200.23C13.72 199.92 14.02 199.62 14.02 199.16C14.02 198.25 13.26 197.64 13.87 196.57C14.33 195.96 14.17 194.9 14.48 194.14C14.48 194.74 14.48 195.35 14.48 196.12C14.93 196.42 15.39 196.88 16 197.33C15.69 198.09 15.54 199.01 15.24 199.77C15.54 200.68 15.85 201.75 16.15 202.81C16 203.73 15.69 204.64 15.39 205.86C15.54 206.01 15.85 206.47 16.15 206.77C15.69 207.08 15.24 207.23 14.78 207.54C14.78 207.99 14.78 208.6 14.78 209.36C14.63 209.36 14.63 209.36 14.48 209.36C14.33 209.06 14.33 208.91 14.17 208.45C13.87 209.06 13.72 209.52 13.56 210.12C13.87 210.12 14.33 210.28 14.63 210.43C14.48 212.26 14.17 214.08 14.02 216.37C13.87 216.52 13.41 216.82 12.81 217.28C12.65 217.28 12.35 217.28 12.04 217.28C12.04 217.13 11.89 216.82 11.89 216.67C12.81 216.06 12.96 215.3 12.96 214.39C12.96 214.39 12.96 214.39 12.96 214.54C13.41 214.54 13.87 214.39 14.33 214.39C14.33 214.08 14.17 213.93 14.17 213.63C13.72 213.93 13.41 214.08 12.96 214.39ZM14.63 206.77C14.63 206.93 14.63 207.08 14.63 207.08C14.93 207.08 15.09 206.93 15.39 206.93L15.39 206.77C15.09 206.77 14.93 206.77 14.63 206.77ZM14.63 204.64C14.48 204.64 14.33 204.64 14.33 204.64C14.33 204.95 14.48 205.1 14.48 205.4L14.63 205.4C14.63 205.1 14.63 204.79 14.63 204.64ZM14.33 206.32C14.48 206.16 14.48 206.01 14.48 205.86L14.33 205.86C14.33 206.01 14.33 206.16 14.33 206.32ZM14.33 213.02C14.17 212.86 14.02 212.86 13.87 212.86L13.87 213.02C14.02 213.02 14.17 213.02 14.33 213.02ZM12.35 188.96C12.5 188.96 12.65 188.81 12.65 188.81C12.65 188.35 12.65 188.04 12.5 187.59C12.5 187.13 12.2 186.67 12.35 186.37C13.41 185.15 12.5 184.39 12.04 183.32C12.04 183.17 12.2 183.02 12.35 182.87C11.44 182.56 11.28 183.17 10.98 183.63C11.74 184.39 11.44 185.15 10.83 185.76C10.98 186.07 11.13 186.37 11.28 186.67C11.13 186.83 10.98 187.13 10.98 187.13C11.13 188.65 11.28 189.87 11.44 191.39C11.28 191.55 11.13 191.7 11.13 191.85C11.44 192.46 11.89 192.92 11.28 193.68C10.83 194.29 10.83 195.05 11.13 195.81C11.44 196.57 11.28 197.18 10.98 197.79C11.28 197.94 11.44 197.94 11.74 198.09C11.59 198.25 11.44 198.4 11.13 198.7C11.59 198.86 11.89 199.16 12.35 199.31C12.35 197.79 12.5 196.42 12.5 195.05C11.59 194.29 12.65 193.68 12.65 193.37C12.04 191.85 12.5 190.48 12.35 189.26C12.5 189.11 12.5 189.11 12.35 188.96ZM10.68 120.44C10.52 120.59 10.37 120.74 10.22 120.89C10.37 121.81 10.68 122.72 10.83 123.63C10.68 123.94 10.52 124.24 10.22 124.7C9.92 124.7 9.61 124.7 9.31 124.7L9.31 124.85C9.76 125 10.07 125 10.68 125.16C9.92 125.46 9.31 125.77 8.55 126.07C7.94 125.46 8.24 124.7 8.09 124.09C7.79 123.33 8.24 122.57 7.79 121.65C7.48 121.05 7.79 119.83 7.79 118.91C8.4 118.76 9 118.46 9.76 118.3C9.76 118.15 9.92 117.85 10.22 117.54C10.37 118.61 10.52 119.52 10.68 120.44ZM9.16 120.59C9 120.74 8.7 121.05 8.55 121.2C8.55 121.81 8.55 122.42 8.4 123.18C8.7 123.33 9 123.63 9.76 124.09C9.46 123.33 9.46 123.02 9.31 122.57C9.46 122.42 9.61 122.26 9.76 122.11C9.61 121.5 9.46 121.05 9.16 120.59ZM9.16 120.13C9.31 119.98 9.31 119.83 9.31 119.67L9.16 119.67C9.16 119.83 9.16 119.98 9.16 120.13ZM9.76 131.55C9.46 132.16 9.31 132.31 9.16 132.62C8.85 132.31 8.55 131.86 8.09 131.4C8.09 131.25 8.09 130.94 8.09 130.64C9 130.49 10.07 130.33 10.98 130.18C11.13 130.49 11.13 130.64 11.28 130.94C11.74 130.79 12.04 130.49 12.5 130.33C12.35 130.03 12.2 129.88 12.04 129.42C12.35 129.27 12.65 128.96 12.96 128.81C13.87 129.88 11.89 130.79 13.11 131.7C12.81 131.7 12.65 131.86 12.5 131.86C12.35 131.55 12.2 131.25 12.04 130.79C11.59 131.55 11.13 132.31 10.68 133.07C10.52 132.77 10.22 132.31 9.76 131.55ZM10.68 131.4C10.52 131.25 10.37 131.25 10.22 131.25L10.22 131.4C10.37 131.4 10.52 131.4 10.68 131.4ZM11.74 110.23C11.74 110.39 11.89 110.69 11.89 110.84C11.89 110.84 11.74 111 11.74 113.28C12.35 113.13 12.35 110.84 11.89 108.56C11.89 108.56 11.74 108.56 11.59 108.41C11.28 108.56 10.98 108.86 10.68 109.17C10.98 111.45 11.28 113.74 11.44 116.02C11.59 115.72 11.89 115.56 11.74 113.28C11.59 110.84 11.74 110.54 11.74 110.23ZM7.18 61.81C7.33 61.35 7.48 61.05 7.48 60.75C7.03 60.59 6.88 60.59 6.42 60.44C6.57 60.14 6.88 59.83 7.03 59.53C6.12 58.92 7.03 57.85 6.42 57.09C6.12 57.24 5.66 57.4 5.36 57.55C5.51 57.85 5.66 58 5.66 58.31C5.51 58.46 5.36 58.61 5.2 58.77C5.51 58.92 5.66 58.92 5.96 59.07C5.96 59.68 5.96 60.14 5.96 60.59C5.66 60.75 5.36 60.75 5.05 60.9C5.81 61.2 6.42 61.35 6.42 62.27C6.12 62.42 5.81 62.57 5.51 62.57C5.51 62.72 5.51 62.88 5.51 62.88C5.81 63.64 6.88 62.72 6.88 63.64C7.94 63.03 7.33 62.27 7.18 61.81ZM12.2 127.44C12.35 127.9 12.65 128.2 12.81 128.81C13.26 128.51 13.56 128.2 14.02 127.9C13.11 127.44 13.87 126.83 13.56 126.07C13.26 125.46 13.56 124.55 13.56 123.63C12.81 123.94 12.35 124.09 11.89 124.4C11.89 124.85 11.89 125.46 12.04 125.92C12.35 125.77 12.5 125.61 12.96 125.31C12.5 126.22 12.96 126.98 12.2 127.44ZM77.41 168.4C76.96 168.86 76.65 169.16 76.35 169.32C76.8 170.53 76.65 171.45 76.04 172.36C76.35 172.67 76.5 172.82 76.8 173.12C77.72 172.21 77.72 172.21 77.41 168.4ZM7.03 106.73C6.72 108.25 6.88 109.62 7.79 110.84C7.79 110.84 7.94 110.84 8.24 110.84C8.09 110.54 7.94 110.08 7.79 109.62C8.7 109.02 8.4 108.25 7.94 107.49C8.55 106.73 7.94 106.12 7.94 105.21C7.48 105.82 7.18 106.27 7.03 106.73ZM12.81 116.32C12.96 116.78 13.11 117.09 13.26 117.54C13.26 117.54 13.11 117.85 12.96 118C13.11 118.46 13.26 118.76 13.41 119.37C12.81 119.37 12.35 119.37 11.74 119.37C11.59 118.76 11.44 118.15 11.13 117.39C11.74 117.09 12.2 116.78 12.81 116.32ZM12.5 118.91C12.35 118.76 12.2 118.76 12.04 118.76L12.04 118.91C12.2 118.76 12.35 118.91 12.5 118.91ZM4.44 50.7C4.44 51.76 4.29 52.98 4.29 54.05C4.75 54.35 5.36 54.65 5.81 54.96C5.81 54.65 5.81 54.5 5.81 54.2C5.51 54.05 5.2 53.89 4.9 53.74C5.2 53.44 5.36 53.13 5.51 52.67C5.2 51.91 4.9 51.15 4.6 50.39C4.6 50.54 4.6 50.54 4.44 50.7ZM7.48 78.41C8.09 79.02 7.94 79.78 8.7 80.08C9.16 80.24 9.31 81.15 9.46 81.61C9.61 81.61 9.61 81.61 9.76 81.61C9.61 80.39 9.31 79.17 9 77.8C8.55 77.8 8.09 78.1 7.48 78.41ZM7.94 118.15C9.76 116.32 7.79 114.8 7.94 113.13C7.64 113.13 7.48 113.13 7.03 113.28C7.64 114.8 7.94 116.32 7.94 118.15ZM3.68 70.8C3.68 70.34 3.53 70.03 3.53 69.58C3.53 69.12 3.68 68.82 3.84 68.21C3.38 68.21 3.08 68.21 2.62 68.36C2.92 68.66 2.92 68.82 2.92 68.82C2.77 69.88 2.62 70.64 2.47 71.56C2.92 71.86 3.23 72.01 3.99 72.47C3.99 71.71 3.84 71.25 3.68 70.8ZM9.46 141.6C9.46 142.67 9.16 143.89 9.92 144.65C10.37 144.34 10.68 144.04 11.13 143.73C10.68 143.43 10.37 143.12 9.92 142.82C10.52 142.36 10.37 141.75 10.37 140.69C9.92 141.14 9.61 141.45 9.46 141.6ZM12.65 180.13C12.65 179.97 12.5 179.82 12.5 179.82C12.35 179.82 12.04 179.67 11.89 179.67C11.89 179.21 11.74 178.91 11.74 178.45C11.44 178.6 11.13 178.6 10.98 178.6C11.13 179.67 11.28 180.43 11.44 181.5C11.59 181.65 11.74 181.8 12.04 182.11C12.2 181.34 12.5 180.74 12.65 180.13ZM14.78 187.13C15.54 186.67 16 186.37 16.15 186.22C16 185.15 15.85 184.24 15.69 183.32C15.39 183.32 15.24 183.32 15.24 183.32C14.93 184.85 14.93 184.85 15.39 185.61C15.24 186.07 15.09 186.37 14.78 187.13ZM2.62 59.68C2.32 59.22 2.32 58.46 2.16 57.55C1.71 57.85 1.4 58.16 1.25 58.16C1.56 59.22 1.86 60.29 2.01 61.2C2.16 61.2 2.32 61.2 2.47 61.2C1.56 60.75 3.08 60.29 2.62 59.68ZM11.44 121.35C11.74 121.96 12.04 122.72 12.35 123.18C12.81 122.72 13.11 122.42 13.56 121.96C13.11 121.65 12.5 121.35 11.74 121.05C11.59 121.2 11.59 121.35 11.44 121.35ZM6.57 97.44C6.57 97.44 6.72 97.44 6.88 97.29C6.72 96.99 6.72 96.68 6.57 96.38C6.72 96.22 6.88 96.07 7.03 95.77C6.72 95.16 6.27 94.55 5.81 93.48C5.66 95.31 5.81 96.38 6.57 97.44ZM11.13 98.05C11.13 98.81 11.13 99.42 10.98 100.03C10.68 100.34 10.37 100.49 10.07 100.79C10.52 100.95 10.83 101.25 11.13 101.4C11.28 101.1 11.44 100.64 11.74 100.34C11.13 99.88 11.44 99.42 11.74 99.12L11.59 98.97C11.44 98.66 11.28 98.36 11.13 98.05ZM78.48 187.59C78.48 186.52 78.63 185.46 78.63 184.24C78.48 184.24 78.48 184.39 78.32 184.39C78.17 184.09 78.17 183.93 78.02 183.32C77.56 185.15 78.17 186.22 78.48 187.59ZM10.68 153.48C10.52 152.57 10.83 151.8 10.52 150.74C10.07 151.04 9.92 151.19 9.31 151.5C10.22 152.11 9.46 153.33 10.68 153.48ZM8.4 69.73C8.4 69.42 8.4 68.97 8.4 68.51C8.09 68.36 7.79 68.05 7.33 67.9C7.48 68.82 7.48 69.73 7.64 70.8C7.94 70.49 8.09 70.19 8.4 69.73ZM10.22 88.92C10.22 88.46 10.37 88.15 10.52 87.7C10.37 87.7 10.07 87.7 9.92 87.7C9.92 88.61 9.92 89.37 9.76 90.13C10.07 90.13 10.22 90.13 10.68 90.13C10.52 89.68 10.22 89.37 10.22 88.92ZM72.85 225.05C72.85 225.5 72.7 225.81 72.85 226.26C73 226.57 73.16 226.87 73.46 227.18C73.61 227.18 73.76 227.03 73.76 227.03C73.61 226.42 73.31 225.66 73.16 225.05C73 225.05 72.85 225.05 72.85 225.05ZM73.76 200.84C73.76 200.99 73.61 200.99 73.61 201.14C73.92 201.44 74.22 201.75 74.52 201.9C74.52 202.36 74.68 202.66 74.68 202.97L74.83 202.97C74.83 202.51 74.83 202.05 74.83 201.29C74.52 201.14 74.22 200.99 73.76 200.84ZM9.31 19.18C9.16 19.33 8.85 19.63 8.7 19.63C8.85 20.24 9 20.7 9.16 21.31C9.46 20.7 9.61 20.09 9.76 19.63C9.76 19.48 9.61 19.33 9.31 19.18ZM10.37 22.22C9.92 22.07 9.61 21.76 9.16 21.61C9 21.76 9 21.76 8.85 21.92C9 22.37 9.16 22.68 9.46 23.29C9.92 22.83 10.07 22.53 10.37 22.22ZM6.42 55.72C5.05 56.18 5.05 56.18 5.2 57.4C5.66 56.94 5.96 56.48 6.42 55.72ZM14.63 187.74C14.63 188.5 14.63 189.42 14.48 190.18C14.78 189.26 15.09 188.5 14.63 187.74ZM9.92 84.35C9.76 84.04 9.61 83.89 9.31 83.74C9.16 84.2 9.31 84.5 9.46 84.8C9.46 84.96 9.31 85.26 9.16 85.57C9.46 85.57 9.61 85.57 10.07 85.57C9.92 84.96 10.07 84.65 9.92 84.35ZM9.46 126.98C9.16 127.29 9 127.44 8.85 127.44C8.7 127.59 8.4 127.59 8.09 127.59C8.24 127.9 8.24 128.05 8.4 128.35C9.16 128.35 9.61 128.05 9.46 126.98ZM77.72 175.86C77.41 175.86 77.26 175.86 76.96 175.86C76.96 176.32 76.96 176.62 76.96 177.08C77.26 177.08 77.41 177.08 77.72 177.08C77.72 176.78 77.72 176.32 77.72 175.86ZM79.24 191.39C78.78 191.55 78.48 192 78.17 192.16C78.93 192.16 78.93 192.16 79.24 191.39ZM11.13 91.5C10.83 91.2 10.52 90.89 10.37 90.74C10.07 90.89 9.92 91.2 9.61 91.35C9.76 91.66 10.07 91.81 10.22 91.96C10.52 91.81 10.83 91.66 11.13 91.5ZM9.46 83.28C9.61 83.28 9.92 83.28 10.07 83.13C10.07 82.67 10.07 82.37 10.07 81.91C9.76 81.91 9.61 81.91 9.46 81.91C9.46 82.52 9.46 82.82 9.46 83.28ZM12.96 140.54C12.96 141.14 12.96 141.6 12.96 142.06C13.26 142.06 13.41 142.06 14.02 142.06C13.56 141.45 13.41 140.99 12.96 140.54ZM9.76 133.84C9.76 133.68 9.76 133.38 9.61 133.23C9.31 133.23 9.16 133.23 8.85 133.23C8.85 134.14 9.16 134.14 9.76 133.84ZM72.7 220.02C72.7 220.17 72.85 220.48 73 220.78L73.16 220.63C73.16 220.33 73.16 219.87 73.16 218.96C73 219.72 72.85 220.02 72.7 220.02ZM73.92 197.03C73.92 197.49 73.92 198.09 73.92 198.55C74.07 198.55 74.07 198.55 74.22 198.55C74.22 198.09 74.22 197.49 74.22 197.03C74.07 197.03 73.92 197.03 73.92 197.03ZM7.64 64.86C7.33 65.16 7.03 65.31 6.88 65.62C7.03 65.77 7.18 66.07 7.79 66.53C7.64 65.77 7.64 65.47 7.64 64.86ZM1.71 51.76C1.4 51.91 1.1 52.07 0.95 52.22C1.25 52.52 1.4 52.67 1.71 53.13C1.56 52.67 1.71 52.22 1.71 51.76ZM8.4 72.47C8.4 73.08 8.4 73.54 8.4 74.15L8.55 74.15C8.55 73.54 8.55 73.08 8.55 72.47C8.55 72.47 8.55 72.47 8.4 72.47ZM8.55 76.73C8.24 76.73 7.94 76.73 7.79 76.73C7.79 77.04 7.79 77.19 7.79 77.5C8.09 77.5 8.4 77.5 8.55 77.65C8.55 77.34 8.55 77.04 8.55 76.73ZM2.62 65.01C2.62 65.77 2.62 66.23 2.62 66.53C2.92 66.53 3.08 66.53 3.38 66.53C3.08 66.07 2.92 65.62 2.62 65.01ZM4.6 23.13C4.44 22.68 4.29 22.22 3.99 21.61C3.99 22.22 3.84 22.68 3.84 23.29C4.14 23.13 4.44 23.13 4.6 23.13ZM12.5 104.45C12.04 104.75 11.59 105.06 11.13 105.36C12.2 105.36 12.2 105.36 12.5 104.45ZM13.87 121.05C13.41 120.74 13.26 120.59 12.96 120.44C12.81 121.05 12.81 121.05 13.87 121.05ZM8.4 72.47C8.4 72.01 8.24 71.56 8.24 71.25C8.09 71.25 8.09 71.25 7.94 71.25C7.94 71.71 7.94 72.17 7.94 72.47C8.09 72.47 8.24 72.47 8.4 72.47ZM76.5 165.81C76.8 165.51 76.96 165.2 77.11 165.05C76.96 165.05 76.8 165.05 76.35 165.05C76.5 165.36 76.5 165.51 76.5 165.81ZM6.42 66.23C6.42 65.77 6.27 65.31 6.27 65.01C5.96 65.16 5.96 65.31 5.96 65.62C5.96 65.92 5.96 66.07 5.96 66.38C6.12 66.23 6.27 66.23 6.42 66.23ZM4.75 85.87C4.9 86.17 5.05 86.48 5.2 86.78C5.81 85.57 5.36 85.72 4.75 85.87ZM72.7 213.93C72.4 214.08 72.09 214.24 71.79 214.39C72.85 215 72.85 214.39 72.7 213.93ZM10.98 93.64C10.98 93.18 10.98 92.87 10.83 92.42L10.68 92.42C10.68 92.87 10.68 93.18 10.68 93.64C10.68 93.64 10.83 93.64 10.98 93.64ZM74.37 192.77C74.07 192.92 73.76 193.07 73.46 193.22C74.37 193.53 74.52 193.37 74.37 192.77ZM3.08 64.86C2.92 64.55 2.92 64.25 2.77 63.94C2.47 64.7 2.77 65.01 3.08 64.86ZM4.44 50.75C4.44 51.21 4.44 51.51 4.6 51.97L4.75 51.97C4.75 51.51 4.75 51.21 4.75 50.75C4.75 50.75 4.6 50.75 4.44 50.75ZM73.92 194.44C73.92 194.74 74.07 194.9 74.07 195.2L74.22 195.2C74.22 194.9 74.22 194.74 74.22 194.44C74.22 194.44 74.07 194.44 73.92 194.44ZM71.48 223.07C71.48 223.37 71.64 223.52 71.64 223.83L71.79 223.83C71.79 223.52 71.79 223.37 71.79 223.07C71.79 223.07 71.64 223.07 71.48 223.07ZM16 191.55C16 191.24 15.85 191.09 15.85 190.79L15.69 190.79C15.69 191.09 15.69 191.24 15.69 191.55C15.85 191.55 16 191.55 16 191.55ZM12.04 107.19C12.04 106.88 11.89 106.73 11.89 106.43L11.74 106.43C11.74 106.73 11.74 106.88 11.74 107.19C11.89 107.19 12.04 107.19 12.04 107.19ZM11.89 103.23C11.89 102.92 11.74 102.77 11.74 102.47L11.59 102.47C11.59 102.77 11.59 102.92 11.59 103.23C11.59 103.23 11.74 103.23 11.89 103.23ZM11.13 98.05C11.13 97.75 10.98 97.44 10.98 97.14C10.83 97.14 10.83 97.14 10.68 97.14C10.68 97.44 10.68 97.75 10.68 97.9C10.98 98.05 11.13 98.05 11.13 98.05ZM6.72 67.9C6.72 67.6 6.57 67.45 6.57 67.14L6.42 67.14C6.42 67.45 6.42 67.6 6.42 67.9C6.57 67.9 6.57 67.9 6.72 67.9ZM4.75 79.17C4.75 79.47 4.75 79.78 4.75 80.08L4.9 80.08C4.9 79.78 4.9 79.47 4.9 79.17C4.75 79.17 4.75 79.17 4.75 79.17ZM78.48 189.42C78.48 189.72 78.63 190.02 78.63 190.33C78.78 190.33 78.78 190.33 78.93 190.33C78.93 190.02 78.93 189.72 78.93 189.57C78.78 189.42 78.63 189.42 78.48 189.42ZM78.48 189.26C78.48 188.96 78.32 188.65 78.32 188.35C78.17 188.35 78.17 188.35 78.02 188.35C78.02 188.65 78.02 188.96 78.02 189.11C78.32 189.26 78.48 189.26 78.48 189.26ZM78.32 182.26C78.32 181.95 78.17 181.8 78.17 181.5L78.02 181.5C78.02 181.8 78.02 181.95 78.02 182.26C78.17 182.26 78.32 182.26 78.32 182.26ZM12.65 189.26C12.81 189.26 12.96 189.11 12.96 189.11C12.81 188.96 12.65 188.96 12.65 188.81C12.65 188.96 12.65 189.11 12.65 189.26ZM15.69 189.57C15.54 189.57 15.39 189.57 15.24 189.57L15.24 189.72C15.39 189.72 15.54 189.72 15.69 189.57ZM59.63 16.95C59.63 16.79 59.47 16.64 59.47 16.64C59.32 16.79 59.32 16.95 59.17 16.95C59.32 16.95 59.47 16.95 59.63 16.95ZM70.12 15.58C69.96 15.42 69.96 15.27 69.81 15.27L69.66 15.42C69.81 15.42 69.81 15.58 70.12 15.58ZM10.52 101.71C10.37 101.71 10.22 101.71 10.07 101.71L10.07 101.86C10.22 101.86 10.37 101.86 10.52 101.71ZM71.94 225.5C71.94 225.66 71.94 225.81 71.94 225.96L72.09 225.96C72.09 225.81 72.09 225.66 71.94 225.5ZM79.85 203.73C79.85 203.88 79.85 204.03 79.85 204.19L80 204.19C80 204.03 80 203.88 79.85 203.73ZM80.76 222C80.76 222.15 80.76 222.31 80.76 222.46L80.91 222.46C80.91 222.31 80.91 222.15 80.76 222ZM8.4 81.61C8.55 81.76 8.55 81.91 8.7 81.91L8.85 81.76C8.7 81.76 8.55 81.61 8.4 81.61ZM8.4 81.45C8.24 81.3 8.24 81.15 8.09 81.15L7.94 81.3C8.09 81.3 8.24 81.45 8.4 81.45ZM10.52 145.56C10.37 145.56 10.22 145.56 10.07 145.56L10.07 145.71C10.22 145.71 10.37 145.71 10.52 145.56ZM14.78 192.61C14.93 192.61 15.09 192.61 15.24 192.61L15.24 192.46C14.93 192.61 14.93 192.61 14.78 192.61ZM6.88 71.1C6.88 70.95 6.88 70.8 6.88 70.64L6.72 70.64C6.72 70.8 6.72 70.95 6.88 71.1ZM6.88 63.64C6.72 63.79 6.57 63.79 6.57 63.94L6.72 64.1C6.72 63.94 6.88 63.79 6.88 63.64ZM6.27 66.23C6.42 66.38 6.42 66.53 6.57 66.53L6.72 66.38C6.72 66.38 6.57 66.38 6.27 66.23ZM7.33 20.85C7.18 20.85 7.03 20.85 6.88 20.85L6.88 21C7.03 21 7.18 21 7.33 20.85ZM4.9 55.42C4.9 55.26 4.9 55.11 4.9 54.96L4.75 54.96C4.75 55.11 4.75 55.26 4.9 55.42ZM3.99 74.91C3.99 75.06 3.99 75.21 3.99 75.36L4.14 75.36C4.14 75.06 4.14 75.06 3.99 74.91ZM4.9 45.37C4.9 45.21 4.9 45.06 4.9 44.91L4.75 44.91C4.75 45.06 4.75 45.21 4.9 45.37ZM4.9 47.04C4.9 46.89 4.9 46.74 4.9 46.58L4.75 46.58C4.75 46.74 4.75 46.89 4.9 47.04ZM4.6 43.23C4.6 43.08 4.6 42.93 4.6 42.78L4.44 42.78C4.44 42.93 4.44 43.08 4.6 43.23ZM4.75 27.55C4.75 27.4 4.75 27.25 4.75 27.09L4.6 27.09C4.6 27.25 4.6 27.4 4.75 27.55ZM1.1 53.89C1.1 53.74 1.1 53.59 1.1 53.44L0.95 53.44C0.95 53.59 0.95 53.74 1.1 53.89ZM30.14 56.94C30.14 56.79 29.98 56.48 29.98 56.33C29.83 56.63 29.83 56.79 29.68 57.4C29.98 57.09 30.14 57.09 30.14 56.94Z" fill="#B70000" fill-opacity="1.000000" fill-rule="nonzero"/>
</svg>
