<svg width="337.000000" height="101.000000" viewBox="0 0 337 101" fill="none" xmlns="http://www.w3.org/2000/svg" xmlns:xlink="http://www.w3.org/1999/xlink">
	<desc>
			Created with Pixso.
	</desc>
	<defs/>
	<path id="Vector" d="M297.54 39.91C296.52 40.76 295.33 39.91 294.48 40.25C293.3 40.76 292.28 40.76 291.09 40.08C290.92 39.91 290.58 40.08 290.41 40.08C288.38 40.76 286.18 40.93 283.97 40.42C283.8 39.4 282.62 39.23 281.6 38.72C281.09 39.23 280.41 39.57 279.56 40.42C280.75 40.42 281.6 40.59 282.45 40.59C282.45 41.1 282.45 41.44 282.28 41.95C282.28 42.12 282.45 42.29 282.62 42.46C284.14 43.31 285.5 43.48 287.36 43.48C289.74 43.31 292.28 43.82 294.82 43.99C294.82 43.82 294.82 43.31 294.65 42.46C295.67 43.31 296.52 43.99 297.54 44.84C297.87 44.5 298.21 44.16 298.55 43.82C299.74 44.33 300.93 44.84 302.11 45.52C302.45 45.18 302.79 44.84 303.3 44.33C303.81 44.84 304.15 45.35 304.82 46.03C305.67 45.69 306.69 45.18 308.05 44.5C307.88 45.35 307.88 46.03 307.71 46.54C306.86 46.71 306.01 47.05 304.66 47.39C303.64 46.88 301.94 46.03 300.25 47.73C297.7 47.73 295.33 47.39 292.96 46.71C292.45 46.54 291.77 46.54 291.26 46.54C288.55 46.88 288.55 46.88 286.18 46.03C286.01 46.37 285.84 46.54 285.5 46.88C285.33 46.88 285.33 47.05 285.16 47.05C284.31 46.71 283.46 46.2 282.45 45.69C281.94 45.86 281.43 46.37 280.92 46.37C279.05 45.86 277.02 46.54 275.16 46.37C273.46 46.2 271.59 45.69 269.73 46.03C269.39 46.03 268.88 45.69 268.37 45.69C267.19 45.52 266 44.67 265.15 45.18C263.29 45.86 261.08 44.5 259.22 46.37C259.39 46.88 259.56 47.39 259.73 48.24C260.24 47.73 260.57 47.56 260.91 47.22C261.25 47.39 261.42 47.56 261.76 47.56C261.76 47.9 261.76 48.24 261.59 48.24C258.71 50.62 257.35 50.79 253.62 50.11C253.28 50.11 252.94 49.94 252.61 50.11C249.38 51.3 246.16 50.28 242.77 49.94C241.59 49.77 240.57 49.94 239.38 49.94C239.04 49.94 238.53 50.28 238.36 50.28C235.48 48.75 232.26 50.62 229.21 49.77C228.02 49.43 226.67 50.11 225.48 50.28C224.97 49.94 224.46 49.26 223.78 49.09C222.94 48.75 222.09 48.75 221.07 48.75C218.87 48.75 216.83 48.58 214.63 48.75C212.59 48.92 210.56 48.58 208.52 48.75C207 48.92 205.81 48.92 204.62 50.28C203.78 51.3 201.91 51.64 200.56 52.32C199.88 51.98 199.2 51.64 199.37 51.64C196.83 51.64 194.96 51.13 193.27 51.64C191.57 52.15 189.87 50.79 188.35 52.32C188.18 51.81 188.18 51.64 188.01 51.47C185.8 51.64 183.43 51.81 181.23 51.98C181.06 51.81 181.06 51.47 180.72 51.13C179.53 52.49 177.84 52.15 176.48 51.98C173.94 51.64 171.73 52.15 169.36 53C169.19 52.83 169.19 52.49 169.02 52.15C167.66 52.15 166.31 52.15 164.61 52.15C164.61 51.98 164.27 51.64 164.1 51.3C163.76 51.3 163.59 51.13 163.25 51.3C161.05 51.81 159.02 52.32 156.81 52.83C155.96 53 155.29 53 154.78 53.68C153.59 55.04 153.59 54.87 151.56 54.36C149.52 57.07 146.98 54.02 144.77 55.04C144.1 55.55 143.42 56.23 142.23 57.07C143.25 57.41 143.76 57.41 144.27 57.58C145.11 58.09 145.79 58.77 146.64 59.28C148 58.94 149.35 58.6 151.05 58.09C151.89 58.26 153.08 58.6 154.78 58.94C154.27 59.45 153.76 59.96 153.25 60.3C153.25 60.64 153.42 61.15 153.42 61.49C153.08 61.66 152.91 62 152.74 62C151.22 61.83 149.86 62 148.34 61.49C146.98 60.98 145.79 61.15 144.61 62C143.42 62.85 142.23 61.66 140.88 61.83C140.37 62 139.69 61.49 138.84 61.66C137.48 62 136.13 62.17 134.77 62.17C133.42 62.17 132.06 61.83 130.7 62C129.85 62 128.84 62.68 127.99 62.85C127.14 62.17 125.11 62.34 123.58 63.36C121.55 61.83 118.83 62.34 116.29 61.66C113.58 62.34 110.7 62.85 107.64 62.51C106.8 62.34 105.61 62.17 104.93 63.36C104.42 63.19 104.08 63.02 103.58 62.68C101.37 63.53 101.37 63.53 100.52 65.06C101.54 66.42 102.73 65.57 103.75 65.23C104.76 65.74 105.95 66.25 107.14 66.76C108.66 65.57 110.36 66.93 112.22 66.93C111.88 67.27 111.54 67.95 111.2 67.95C109.68 67.78 108.83 68.97 107.47 69.31C107.31 68.97 107.14 68.63 107.14 68.29C105.27 68.8 103.91 71.35 101.54 69.65C101.03 70.16 100.86 70.33 100.52 70.67C100.35 70.33 100.18 69.99 100.35 69.99C99.68 69.99 99.17 70.16 98.32 70.16C98.66 71.01 98.83 71.69 99.17 72.54C100.18 72.2 101.03 72.03 102.56 71.69C102.56 72.37 102.39 73.05 102.39 73.9C101.71 74.41 99 73.56 98.83 76.62C96.79 77.13 94.42 77.81 92.05 78.32C92.05 78.15 91.88 77.98 91.88 77.81C90.52 77.64 88.99 77.64 87.47 77.47C87.3 77.81 87.13 78.32 86.79 79C86.11 78.83 85.43 78.66 84.59 78.32C84.59 79.17 84.59 79.85 84.59 80.7C85.09 80.36 85.43 80.02 86.11 79.34C86.28 80.19 86.45 80.87 86.62 81.55C87.3 81.55 88.15 81.72 89.16 81.72C88.82 82.57 88.49 83.08 88.15 83.76C87.81 83.59 87.13 83.42 86.28 83.08C85.26 83.42 84.08 83.93 82.72 84.44C82.55 84.1 82.55 83.93 82.38 83.59C81.03 83.93 79.84 84.1 78.31 84.44C78.14 84.95 77.63 85.63 77.3 86.48C77.63 86.82 77.97 87.16 78.31 87.5C77.3 87.67 76.28 87.84 74.92 88.01C74.58 87.84 73.9 87.5 73.23 87.16C71.7 88.86 69.84 87.33 68.31 87.84C66.44 88.35 64.75 88.69 62.88 88.01C62.71 88.35 62.38 88.52 62.21 88.86C61.36 88.35 60.34 88.01 59.15 87.5C58.31 88.01 57.29 88.35 56.44 88.86C54.92 87.67 53.9 88.52 52.88 89.54C52.2 89.2 51.52 88.86 51.52 88.86C48.47 89.2 46.1 89.88 43.56 89.88C39.83 89.88 36.1 91.24 32.2 90.39C29.31 91.75 26.26 92.6 23.04 91.41C21.18 91.92 19.48 92.43 17.79 92.77C16.77 92.26 15.75 91.75 14.9 91.41C13.89 91.92 12.7 92.26 11.34 92.94C11.85 93.11 12.36 93.28 12.87 93.28C13.38 93.45 14.06 93.28 14.22 93.62C15.07 96 17.62 94.64 18.8 95.83C19.14 95.32 19.48 95.15 19.82 94.64C19.99 94.98 20.16 95.32 20.5 95.83C21.52 95.83 22.53 95.83 23.55 95.66C23.72 97.7 25.75 96 26.6 96.85C26.43 97.53 26.43 98.21 26.26 98.89C24.57 98.38 22.7 98.89 20.67 99.23C18.12 99.57 15.58 100.76 12.87 100.42C12.02 100.25 10.83 100.25 10.66 99.74C9.99 98.38 8.29 98.21 7.27 97.36C7.44 96.17 7.95 94.98 7.61 93.96C7.27 92.6 8.12 91.92 8.29 90.9C7.27 89.88 6.26 88.69 5.07 87.5C6.76 85.46 5.92 83.25 5.24 81.21C4.9 80.02 5.07 79.17 5.41 77.98C5.07 77.98 4.73 78.15 4.22 78.32C4.56 77.3 4.73 76.45 5.24 75.09C4.39 75.6 3.71 75.94 3.03 76.45C2.7 75.6 2.7 74.92 2.36 74.41C2.19 74.07 1.68 73.73 1.34 73.39C1.85 72.88 2.53 72.54 3.03 72.03C2.7 70.5 2.36 68.8 2.02 67.27C2.36 67.1 2.7 66.93 3.03 66.93C2.87 66.25 2.7 65.57 2.36 65.06C2.7 64.89 3.03 64.72 3.71 64.55C2.87 63.53 2.87 62.34 2.19 61.32C1.68 60.3 2.36 58.77 2.53 56.9C2.7 56.9 2.36 56.74 1.85 56.23C3.03 54.19 1.34 51.3 3.54 48.92C3.37 47.56 3.03 46.03 2.87 44.33C3.37 43.82 3.88 43.14 4.56 42.29C3.88 41.95 3.54 41.78 3.03 41.61C3.37 40.76 3.88 39.91 4.39 38.89C4.05 39.06 3.71 39.06 3.2 39.23C3.03 37.87 3.03 36.68 2.87 35.15C2.53 34.81 2.02 34.13 1.68 33.62C1.85 33.28 2.02 32.94 2.19 32.43C1.51 32.26 0.83 32.26 -0.19 32.09C0.49 31.58 0.66 31.41 1.17 31.07C0.49 30.73 -0.02 30.56 -0.53 30.22C-0.36 29.2 -0.36 28.35 -0.19 27.84C0.49 26.82 1.17 25.97 1.68 25.12C-0.02 23.76 1.51 21.55 0.32 20.02C0.15 20.02 -0.02 20.19 -0.53 20.36C-0.53 19.17 -0.53 18.15 -0.53 16.28C-0.36 15.94 -0.02 15.09 0.49 14.07C1 14.07 1.51 14.07 2.02 14.07C1.68 13.56 1.34 13.22 1 12.71C1.34 12.54 1.51 12.37 2.02 12.2C1.68 11.86 1.51 11.69 1 11.35C1.85 10.33 2.87 9.48 3.88 8.46C3.54 7.78 3.03 7.27 2.7 6.59C2.53 5.91 2.7 5.23 2.7 4.72C3.2 4.04 3.88 3.36 4.39 2.68C4.56 2.85 4.73 3.19 5.07 3.87C5.24 3.02 5.41 2.51 5.75 1.66C6.76 1.15 7.95 1.49 8.97 0.64C9.99 -0.21 11.51 -0.04 12.87 0.13C13.55 0.3 14.22 0.3 14.9 0.3C14.9 0.3 14.9 0.3 14.73 0.3C14.73 0.47 14.9 0.81 14.9 0.98C15.07 0.98 15.07 0.98 15.24 0.81C15.24 0.81 15.07 0.47 14.9 0.3C16.6 -0.38 18.12 0.3 19.65 0.98C21.18 1.66 22.7 2.85 24.57 2.34C24.91 2.85 24.91 3.19 25.25 3.87C26.6 3.7 27.96 3.53 29.31 3.36C29.48 3.7 29.82 4.04 30.33 4.72C30.84 4.21 31.01 3.87 31.35 3.53C32.71 3.87 34.4 4.55 35.76 3.19C36.1 3.87 36.6 4.72 37.79 4.04C38.3 5.23 39.49 4.89 40.16 4.72C41.01 4.55 41.86 4.04 42.88 4.21C43.73 4.38 44.74 4.55 45.59 4.38C48.3 3.87 51.02 3.53 53.73 4.21C56.1 3.19 58.48 3.7 60.85 4.04C61.19 4.04 61.7 3.7 62.38 3.53C62.54 3.87 62.71 4.04 62.88 4.38C63.22 4.04 63.73 3.7 64.07 3.36C64.58 3.53 64.92 3.7 65.6 4.04C66.61 3.53 67.63 3.02 68.82 2.51C68.99 2.85 69.16 3.19 69.33 3.7C70.51 3.36 71.53 3.02 72.72 2.68C72.38 3.02 72.55 3.36 72.72 3.87C74.24 4.04 75.6 3.02 77.3 2.68C78.48 3.53 79.84 3.02 81.19 3.19C82.55 3.36 83.91 3.7 85.09 3.7C85.26 3.36 85.6 3.19 85.77 2.68C86.79 3.19 87.81 3.7 88.49 4.04C89.16 3.7 89.5 3.19 90.01 3.19C92.38 3.19 94.76 3.19 97.13 3.36C97.64 3.36 98.15 4.04 98.66 4.55C99.68 4.21 100.86 3.7 102.05 3.36C102.05 3.53 102.22 3.7 102.22 4.04C104.42 3.53 106.29 3.36 108.83 3.19C109.17 3.36 110.19 3.87 110.87 4.21C112.56 3.7 114.09 3.19 116.12 2.68C116.46 2.85 116.97 3.19 117.82 3.53C118.66 2.51 119.85 2.51 121.21 2.68C121.55 3.02 121.89 3.53 122.06 4.04C122.39 4.04 122.73 4.04 122.73 4.04C123.58 2.34 125.28 3.02 126.46 3.02C128.84 3.02 131.21 3.19 133.58 2.51C134.26 2.34 134.94 2.51 135.79 2.51C135.96 2.68 136.13 2.85 136.3 3.19C137.65 3.53 139.18 4.04 140.71 3.19C141.04 3.02 141.55 2.85 141.72 3.02C143.08 4.38 144.44 2.17 145.79 3.36C149.18 3.53 152.4 3.7 155.63 2.34C155.63 2.51 155.8 2.85 155.96 3.19C156.64 3.19 157.49 3.36 158.17 3.02C159.19 2.68 159.86 2.51 160.88 3.02C162.24 3.7 163.42 3.19 164.44 2.34C164.61 2.68 164.78 3.02 164.78 3.36C168.34 4.04 171.56 3.19 174.95 2.51C175.63 3.19 178.01 4.04 178.68 3.7C180.21 2.51 181.74 3.36 183.09 3.87C183.77 3.36 184.45 3.02 185.13 2.51C186.14 3.02 186.99 3.36 187.84 3.87C190.38 2.34 193.27 4.55 195.81 2.51C196.32 3.19 196.66 3.7 197 4.21C198.18 4.04 199.37 3.87 200.72 3.7C201.91 3.53 203.27 3.36 204.45 3.7C205.64 3.87 207 2.51 208.18 3.87C209.54 3.02 210.9 3.53 212.25 4.04C212.59 4.21 213.44 3.7 213.95 3.53C214.12 3.87 214.29 4.04 214.29 4.38C214.97 3.87 215.81 3.53 216.49 3.02C217.51 4.04 218.36 5.06 219.37 5.91C220.05 5.4 220.73 4.72 221.41 4.21C222.43 4.04 223.44 3.87 224.46 3.7C224.46 3.87 224.63 4.04 224.8 4.38C225.99 4.21 227.17 4.04 228.36 3.87C228.36 3.87 228.53 4.04 228.53 4.38C230.56 4.72 232.43 5.4 234.46 4.38C235.31 4.72 236.16 5.23 237.35 5.74C238.19 5.4 239.21 4.89 239.72 4.55C242.09 5.06 243.79 5.74 245.65 4.72C245.82 5.06 245.99 5.23 245.99 5.4C248.71 5.23 251.25 4.89 253.45 4.72C254.47 5.4 255.32 5.91 256.17 6.59C256.51 6.25 256.84 5.91 257.01 5.74C260.07 6.08 262.95 6.59 265.83 6.76C268.37 6.93 270.75 7.44 273.12 7.1C275.32 6.93 277.19 7.44 279.22 7.44C281.09 7.44 283.12 7.27 284.99 7.95C286.01 8.29 287.19 6.59 288.38 8.29C289.4 7.78 290.41 7.44 291.43 6.93C291.6 7.27 291.6 7.44 291.77 7.95C294.31 7.61 296.52 9.65 299.23 8.46C301.1 8.97 302.79 9.65 304.66 9.82C308.72 9.99 312.79 9.82 316.69 9.65C320.08 12.03 324.15 11.18 328.22 12.54C328.56 12.88 329.41 13.73 330.26 14.58C329.75 14.92 329.24 15.26 328.9 15.6C330.09 16.45 331.27 17.3 332.63 18.32C333.14 18.32 333.99 18.49 334.67 18.49C335.17 19.51 335.68 20.53 336.53 21.72C335.85 22.91 335 24.27 333.82 25.97C334.16 26.48 334.84 27.16 335.34 28.01C335.51 29.03 335.68 30.05 335.85 31.07C335.68 31.07 335.51 31.24 335.17 31.24C335.17 31.58 335.17 31.92 335.17 32.43C332.12 31.07 329.41 33.62 326.36 33.11C326.36 33.11 326.19 32.94 326.19 32.43C325.68 32.43 325.17 32.43 324.83 32.43C324.32 32.43 323.98 32.09 323.31 31.75C323.48 32.77 323.48 33.45 323.64 34.3C325.34 34.3 326.87 34.64 328.05 36.17C329.24 37.7 331.11 38.55 332.97 39.74C331.78 40.08 330.77 40.25 329.24 40.76C327.54 40.59 325.17 40.25 322.8 39.74C321.95 40.76 320.42 40.25 318.73 40.42C318.73 40.93 318.73 41.44 318.73 42.29C318.22 42.12 317.54 41.95 317.2 41.61C316.69 40.93 316.35 40.08 315.85 39.06C315.34 39.4 315.17 39.74 315 39.91C315.34 40.59 315.68 41.27 316.01 41.78C315.85 41.95 315.68 42.12 315.68 42.12C315.17 41.78 314.66 41.44 313.98 41.1C313.64 41.27 312.79 41.78 312.12 42.12C311.95 41.95 311.95 41.61 311.78 41.27C309.06 40.93 306.35 40.59 303.81 40.25C303.64 40.42 303.64 40.76 303.47 40.93C302.28 40.25 301.1 39.4 300.25 38.89C298.38 39.4 298.04 39.57 297.54 39.91C297.54 39.57 297.54 39.4 297.54 39.06C297.37 39.06 297.37 39.06 297.2 39.23C297.2 39.4 297.37 39.57 297.54 39.91ZM138.33 56.06C137.31 55.04 136.3 56.23 135.28 56.23C134.09 55.04 133.25 55.21 131.04 57.07C133.75 56.23 136.13 57.92 138.33 55.72C138.67 56.23 138.84 56.74 139.01 57.07C140.03 56.9 141.04 56.74 142.23 56.57C141.04 55.38 139.86 54.87 138.33 56.06ZM123.41 56.9C125.96 56.9 128.33 56.74 130.7 56.74C130.7 56.39 130.87 56.06 131.04 55.38C129.85 55.38 128.67 55.55 127.65 55.55C126.46 55.55 125.45 55.21 124.26 55.04C124.09 55.72 123.75 56.23 123.41 56.9ZM201.06 49.09C198.01 47.39 198.01 47.39 197.5 49.43C198.52 49.26 199.37 49.26 201.06 49.09ZM247.35 38.55C247.86 38.89 248.37 39.06 248.88 39.23C249.21 39.23 249.55 39.06 249.89 38.89C250.06 38.89 250.23 38.72 250.4 38.55C249.55 38.21 248.71 37.7 247.86 37.36C247.86 37.7 247.69 38.04 247.35 38.55ZM94.59 74.92C92.89 73.9 92.89 73.9 92.72 74.75C92.89 74.75 93.4 74.92 94.59 74.92ZM189.2 48.24C189.03 48.24 188.69 47.9 188.18 47.73C188.01 48.24 188.01 48.58 187.67 49.6C188.52 48.75 188.86 48.41 189.2 48.24ZM163.59 48.41C163.59 48.24 163.76 48.07 163.76 47.73C163.42 47.73 162.92 47.56 162.58 47.56C162.58 47.73 162.58 47.73 162.41 47.9C162.75 48.07 163.25 48.24 163.59 48.41ZM18.29 1.32C18.12 1.32 17.95 1.15 17.79 1.15C17.62 1.49 17.62 2 17.45 2.34C17.62 2.34 17.62 2.34 17.79 2.51C17.95 2 18.12 1.66 18.29 1.32ZM90.52 71.69C90.52 71.52 90.69 71.35 90.69 71.01C90.35 71.01 89.84 70.84 89.5 70.84C89.5 71.01 89.5 71.01 89.33 71.18C89.67 71.35 90.18 71.52 90.52 71.69ZM92.89 72.03C92.89 71.86 93.06 71.86 93.06 71.69C92.55 71.52 92.22 71.35 91.71 71.01C91.71 71.18 91.54 71.18 91.54 71.35C92.05 71.69 92.38 71.86 92.89 72.03ZM294.48 11.01C294.48 11.01 294.65 11.01 294.65 11.18C294.82 11.01 294.82 10.67 294.99 10.5C294.99 10.5 294.82 10.5 294.82 10.33C294.82 10.5 294.65 10.67 294.48 11.01ZM294.82 38.89C294.82 38.89 294.82 39.06 294.65 39.06C294.82 39.23 295.16 39.23 295.33 39.4C295.33 39.4 295.33 39.23 295.5 39.23C295.16 39.06 294.99 38.89 294.82 38.89ZM274.31 40.08C274.31 40.08 274.48 40.08 274.48 40.25C274.65 40.08 274.65 39.74 274.82 39.57C274.82 39.57 274.65 39.57 274.65 39.4C274.48 39.57 274.48 39.91 274.31 40.08ZM230.23 20.36C230.23 20.36 230.23 20.19 230.4 20.19C230.23 20.02 229.89 20.02 229.72 19.85C229.72 19.85 229.72 20.02 229.55 20.02C229.72 20.19 230.06 20.36 230.23 20.36ZM165.97 48.75C165.97 48.75 165.97 48.58 166.14 48.58C165.97 48.41 165.63 48.41 165.46 48.24C165.46 48.24 165.46 48.41 165.29 48.41C165.63 48.58 165.8 48.58 165.97 48.75ZM89.33 20.53C89.33 20.53 89.5 20.53 89.5 20.7C89.67 20.53 89.67 20.19 89.84 20.02C89.84 20.02 89.67 20.02 89.67 19.85C89.67 20.02 89.5 20.36 89.33 20.53ZM21.68 3.53C21.68 3.53 21.85 3.53 21.85 3.7C22.02 3.53 22.02 3.19 22.19 3.02C22.19 3.02 22.02 3.02 22.02 2.85C21.85 3.19 21.85 3.36 21.68 3.53ZM20.16 3.02C20.16 3.02 20.16 3.19 19.99 3.19C20.16 3.36 20.5 3.36 20.67 3.53C20.67 3.53 20.67 3.36 20.84 3.36C20.5 3.19 20.33 3.19 20.16 3.02ZM14.06 2C14.06 2 14.06 1.83 14.22 1.83C14.06 1.83 13.72 1.66 13.55 1.49C13.55 1.49 13.55 1.66 13.38 1.66C13.72 1.83 13.89 2 14.06 2ZM10.66 92.43C10.66 92.43 10.66 92.26 10.83 92.26C10.66 92.09 10.33 92.09 10.16 91.92C10.16 91.92 10.16 92.09 9.99 92.09C10.16 92.26 10.49 92.43 10.66 92.43ZM4.9 68.29C4.9 68.29 4.73 68.29 4.73 68.12C4.56 68.29 4.56 68.63 4.39 68.8C4.39 68.8 4.56 68.8 4.56 68.97C4.73 68.63 4.9 68.46 4.9 68.29ZM16.09 67.1C16.09 67.1 15.92 67.1 15.92 66.93C15.75 67.1 15.75 67.44 15.58 67.61C15.58 67.61 15.75 67.61 15.75 67.78C15.75 67.44 15.92 67.27 16.09 67.1ZM81.87 71.86C81.87 71.86 82.04 71.86 82.04 72.03C82.21 71.86 82.21 71.52 82.38 71.35C82.38 71.35 82.21 71.35 82.21 71.18C82.21 71.52 82.04 71.69 81.87 71.86ZM94.76 70.67C94.76 70.67 94.59 70.67 94.59 70.5C94.42 70.67 94.42 71.01 94.25 71.18C94.25 71.18 94.42 71.18 94.42 71.35C94.59 71.18 94.76 71.01 94.76 70.67ZM1.51 22.23C1.51 22.23 1.68 22.23 1.68 22.4C1.85 22.23 1.85 21.89 2.02 21.72C2.02 21.72 1.85 21.72 1.85 21.55C1.85 21.72 1.68 22.06 1.51 22.23ZM30.16 99.74C31.52 99.57 32.71 99.4 33.72 99.23C34.23 99.74 34.57 100.08 35.08 100.59C35.59 99.57 35.93 98.72 36.6 97.53C34.91 97.7 33.38 97.87 32.03 97.87C31.35 95.66 28.98 97.36 27.79 96C26.6 98.89 28.98 98.72 30.16 99.74ZM322.46 47.9C319.41 47.39 316.52 46.37 313.47 47.22C316.52 47.73 319.41 49.26 322.46 47.9ZM126.29 67.44C128.33 67.27 130.53 67.1 132.57 66.93C132.91 67.44 133.08 67.78 133.42 68.46C133.75 67.61 134.09 66.93 134.43 65.91C131.38 66.25 128.67 66.42 126.12 66.76C126.12 66.76 126.12 67.1 126.29 67.44ZM122.73 74.92C123.58 75.26 124.26 75.6 124.77 75.94C125.11 75.43 125.28 75.26 125.62 75.09C126.29 75.26 126.8 75.43 127.31 75.6C127.82 75.09 128.33 74.75 128.84 74.24C126.8 74.24 124.6 72.88 122.73 74.92ZM122.06 68.29C122.23 67.78 122.39 67.44 122.56 67.1C120.87 66.25 119.34 65.91 117.65 67.27C119.17 67.44 120.7 67.95 122.06 68.29ZM104.76 77.13C104.93 76.96 105.1 76.96 105.27 76.79C105.1 75.94 104.93 75.26 104.59 74.24C103.41 74.75 102.56 74.92 101.71 75.43C101.54 75.6 101.54 76.11 101.37 76.62C102.22 76.11 102.9 75.94 103.24 75.6C103.91 76.28 104.25 76.79 104.76 77.13ZM125.62 66.08C124.6 66.08 123.92 66.08 123.07 66.08C122.9 66.42 122.73 66.76 122.56 67.1C123.92 67.78 124.77 67.44 125.62 66.08ZM293.81 42.29C293.3 42.12 292.96 41.95 292.45 41.61C292.45 41.78 292.28 41.78 292.28 41.95C292.79 42.12 293.13 42.29 293.64 42.63C293.81 42.63 293.81 42.46 293.81 42.29ZM267.7 5.4C267.86 5.23 267.86 4.89 268.03 4.72C268.03 4.72 267.86 4.72 267.86 4.55C267.7 4.72 267.7 5.06 267.53 5.23C267.53 5.4 267.53 5.4 267.7 5.4ZM162.92 59.62C163.09 59.45 163.09 59.11 163.25 58.94C163.25 58.94 163.09 58.94 163.09 58.77C162.92 58.94 162.92 59.28 162.75 59.45C162.75 59.62 162.92 59.62 162.92 59.62ZM117.65 67.1C117.48 67.1 117.14 67.27 116.97 67.27C116.97 67.44 116.97 67.44 117.14 67.61C117.31 67.44 117.65 67.44 117.82 67.27C117.82 67.1 117.82 67.1 117.65 67.1ZM3.37 41.61C3.2 41.61 2.87 41.78 2.7 41.78C2.7 41.95 2.7 41.95 2.87 42.12C3.03 41.95 3.37 41.95 3.54 41.78C3.37 41.61 3.37 41.61 3.37 41.61ZM92.22 83.25C92.38 83.08 92.38 82.74 92.55 82.57C92.55 82.57 92.38 82.57 92.38 82.4C92.22 82.57 92.22 82.91 92.05 83.08C92.05 83.08 92.05 83.25 92.22 83.25ZM1.51 33.45C1.34 33.45 1 33.62 0.83 33.62C0.83 33.79 0.83 33.79 1 33.96C1.17 33.79 1.51 33.79 1.68 33.62L1.51 33.45Z" fill="#B70000" fill-opacity="1.000000" fill-rule="nonzero"/>
</svg>
