<svg width="157.000000" height="184.000000" viewBox="0 0 157 184" fill="none" xmlns="http://www.w3.org/2000/svg" xmlns:xlink="http://www.w3.org/1999/xlink">
	<desc>
			Created with Pixso.
	</desc>
	<defs/>
	<path d="M0 2C0 0.895508 0.76416 0 1.70654 0C2.64893 0 3.41309 0.895508 3.41309 2C3.41309 3.10449 2.64893 4 1.70654 4C0.76416 4 0 3.10449 0 2ZM17.0654 2C17.0654 0.895508 17.8291 0 18.772 0C19.7144 0 20.478 0.895508 20.478 2C20.478 3.10449 19.7144 4 18.772 4C17.8291 4 17.0654 3.10449 17.0654 2ZM34.1304 2C34.1304 0.895508 34.8945 0 35.8369 0C36.7793 0 37.5435 0.895508 37.5435 2C37.5435 3.10449 36.7793 4 35.8369 4C34.8945 4 34.1304 3.10449 34.1304 2ZM51.1958 2C51.1958 0.895508 51.9595 0 52.9023 0C53.8447 0 54.6089 0.895508 54.6089 2C54.6089 3.10449 53.8447 4 52.9023 4C51.9595 4 51.1958 3.10449 51.1958 2ZM68.2607 2C68.2607 0.895508 69.0249 0 69.9673 0C70.9097 0 71.6738 0.895508 71.6738 2C71.6738 3.10449 70.9097 4 69.9673 4C69.0249 4 68.2607 3.10449 68.2607 2ZM85.3262 2C85.3262 0.895508 86.0903 0 87.0327 0C87.9751 0 88.7393 0.895508 88.7393 2C88.7393 3.10449 87.9751 4 87.0327 4C86.0903 4 85.3262 3.10449 85.3262 2ZM102.391 2C102.391 0.895508 103.155 0 104.098 0C105.041 0 105.804 0.895508 105.804 2C105.804 3.10449 105.041 4 104.098 4C103.155 4 102.391 3.10449 102.391 2ZM119.457 2C119.457 0.895508 120.221 0 121.163 0C122.105 0 122.87 0.895508 122.87 2C122.87 3.10449 122.105 4 121.163 4C120.221 4 119.457 3.10449 119.457 2ZM136.521 2C136.521 0.895508 137.286 0 138.228 0C139.171 0 139.935 0.895508 139.935 2C139.935 3.10449 139.171 4 138.228 4C137.286 4 136.521 3.10449 136.521 2ZM153.587 2C153.587 0.895508 154.351 0 155.293 0C156.236 0 157 0.895508 157 2C157 3.10449 156.236 4 155.293 4C154.351 4 153.587 3.10449 153.587 2ZM0 22C0 20.8955 0.76416 20 1.70654 20C2.64893 20 3.41309 20.8955 3.41309 22C3.41309 23.1045 2.64893 24 1.70654 24C0.76416 24 0 23.1045 0 22ZM17.0654 22C17.0654 20.8955 17.8291 20 18.772 20C19.7144 20 20.478 20.8955 20.478 22C20.478 23.1045 19.7144 24 18.772 24C17.8291 24 17.0654 23.1045 17.0654 22ZM34.1304 22C34.1304 20.8955 34.8945 20 35.8369 20C36.7793 20 37.5435 20.8955 37.5435 22C37.5435 23.1045 36.7793 24 35.8369 24C34.8945 24 34.1304 23.1045 34.1304 22ZM51.1958 22C51.1958 20.8955 51.9595 20 52.9023 20C53.8447 20 54.6089 20.8955 54.6089 22C54.6089 23.1045 53.8447 24 52.9023 24C51.9595 24 51.1958 23.1045 51.1958 22ZM68.2607 22C68.2607 20.8955 69.0249 20 69.9673 20C70.9097 20 71.6738 20.8955 71.6738 22C71.6738 23.1045 70.9097 24 69.9673 24C69.0249 24 68.2607 23.1045 68.2607 22ZM85.3262 22C85.3262 20.8955 86.0903 20 87.0327 20C87.9751 20 88.7393 20.8955 88.7393 22C88.7393 23.1045 87.9751 24 87.0327 24C86.0903 24 85.3262 23.1045 85.3262 22ZM102.391 22C102.391 20.8955 103.155 20 104.098 20C105.041 20 105.804 20.8955 105.804 22C105.804 23.1045 105.041 24 104.098 24C103.155 24 102.391 23.1045 102.391 22ZM119.457 22C119.457 20.8955 120.221 20 121.163 20C122.105 20 122.87 20.8955 122.87 22C122.87 23.1045 122.105 24 121.163 24C120.221 24 119.457 23.1045 119.457 22ZM136.521 22C136.521 20.8955 137.286 20 138.228 20C139.171 20 139.935 20.8955 139.935 22C139.935 23.1045 139.171 24 138.228 24C137.286 24 136.521 23.1045 136.521 22ZM153.587 22C153.587 20.8955 154.351 20 155.293 20C156.236 20 157 20.8955 157 22C157 23.1045 156.236 24 155.293 24C154.351 24 153.587 23.1045 153.587 22ZM0 42C0 40.8955 0.76416 40 1.70654 40C2.64893 40 3.41309 40.8955 3.41309 42C3.41309 43.1045 2.64893 44 1.70654 44C0.76416 44 0 43.1045 0 42ZM17.0654 42C17.0654 40.8955 17.8291 40 18.772 40C19.7144 40 20.478 40.8955 20.478 42C20.478 43.1045 19.7144 44 18.772 44C17.8291 44 17.0654 43.1045 17.0654 42ZM34.1304 42C34.1304 40.8955 34.8945 40 35.8369 40C36.7793 40 37.5435 40.8955 37.5435 42C37.5435 43.1045 36.7793 44 35.8369 44C34.8945 44 34.1304 43.1045 34.1304 42ZM51.1958 42C51.1958 40.8955 51.9595 40 52.9023 40C53.8447 40 54.6089 40.8955 54.6089 42C54.6089 43.1045 53.8447 44 52.9023 44C51.9595 44 51.1958 43.1045 51.1958 42ZM68.2607 42C68.2607 40.8955 69.0249 40 69.9673 40C70.9097 40 71.6738 40.8955 71.6738 42C71.6738 43.1045 70.9097 44 69.9673 44C69.0249 44 68.2607 43.1045 68.2607 42ZM85.3262 42C85.3262 40.8955 86.0903 40 87.0327 40C87.9751 40 88.7393 40.8955 88.7393 42C88.7393 43.1045 87.9751 44 87.0327 44C86.0903 44 85.3262 43.1045 85.3262 42ZM102.391 42C102.391 40.8955 103.155 40 104.098 40C105.041 40 105.804 40.8955 105.804 42C105.804 43.1045 105.041 44 104.098 44C103.155 44 102.391 43.1045 102.391 42ZM119.457 42C119.457 40.8955 120.221 40 121.163 40C122.105 40 122.87 40.8955 122.87 42C122.87 43.1045 122.105 44 121.163 44C120.221 44 119.457 43.1045 119.457 42ZM136.521 42C136.521 40.8955 137.286 40 138.228 40C139.171 40 139.935 40.8955 139.935 42C139.935 43.1045 139.171 44 138.228 44C137.286 44 136.521 43.1045 136.521 42ZM153.587 42C153.587 40.8955 154.351 40 155.293 40C156.236 40 157 40.8955 157 42C157 43.1045 156.236 44 155.293 44C154.351 44 153.587 43.1045 153.587 42ZM0 62C0 60.8955 0.76416 60 1.70654 60C2.64893 60 3.41309 60.8955 3.41309 62C3.41309 63.1045 2.64893 64 1.70654 64C0.76416 64 0 63.1045 0 62ZM17.0654 62C17.0654 60.8955 17.8291 60 18.772 60C19.7144 60 20.478 60.8955 20.478 62C20.478 63.1045 19.7144 64 18.772 64C17.8291 64 17.0654 63.1045 17.0654 62ZM34.1304 62C34.1304 60.8955 34.8945 60 35.8369 60C36.7793 60 37.5435 60.8955 37.5435 62C37.5435 63.1045 36.7793 64 35.8369 64C34.8945 64 34.1304 63.1045 34.1304 62ZM51.1958 62C51.1958 60.8955 51.9595 60 52.9023 60C53.8447 60 54.6089 60.8955 54.6089 62C54.6089 63.1045 53.8447 64 52.9023 64C51.9595 64 51.1958 63.1045 51.1958 62ZM68.2607 62C68.2607 60.8955 69.0249 60 69.9673 60C70.9097 60 71.6738 60.8955 71.6738 62C71.6738 63.1045 70.9097 64 69.9673 64C69.0249 64 68.2607 63.1045 68.2607 62ZM85.3262 62C85.3262 60.8955 86.0903 60 87.0327 60C87.9751 60 88.7393 60.8955 88.7393 62C88.7393 63.1045 87.9751 64 87.0327 64C86.0903 64 85.3262 63.1045 85.3262 62ZM102.391 62C102.391 60.8955 103.155 60 104.098 60C105.041 60 105.804 60.8955 105.804 62C105.804 63.1045 105.041 64 104.098 64C103.155 64 102.391 63.1045 102.391 62ZM119.457 62C119.457 60.8955 120.221 60 121.163 60C122.105 60 122.87 60.8955 122.87 62C122.87 63.1045 122.105 64 121.163 64C120.221 64 119.457 63.1045 119.457 62ZM136.521 62C136.521 60.8955 137.286 60 138.228 60C139.171 60 139.935 60.8955 139.935 62C139.935 63.1045 139.171 64 138.228 64C137.286 64 136.521 63.1045 136.521 62ZM153.587 62C153.587 60.8955 154.351 60 155.293 60C156.236 60 157 60.8955 157 62C157 63.1045 156.236 64 155.293 64C154.351 64 153.587 63.1045 153.587 62ZM0 82C0 80.8955 0.76416 80 1.70654 80C2.64893 80 3.41309 80.8955 3.41309 82C3.41309 83.1045 2.64893 84 1.70654 84C0.76416 84 0 83.1045 0 82ZM17.0654 82C17.0654 80.8955 17.8291 80 18.772 80C19.7144 80 20.478 80.8955 20.478 82C20.478 83.1045 19.7144 84 18.772 84C17.8291 84 17.0654 83.1045 17.0654 82ZM34.1304 82C34.1304 80.8955 34.8945 80 35.8369 80C36.7793 80 37.5435 80.8955 37.5435 82C37.5435 83.1045 36.7793 84 35.8369 84C34.8945 84 34.1304 83.1045 34.1304 82ZM51.1958 82C51.1958 80.8955 51.9595 80 52.9023 80C53.8447 80 54.6089 80.8955 54.6089 82C54.6089 83.1045 53.8447 84 52.9023 84C51.9595 84 51.1958 83.1045 51.1958 82ZM68.2607 82C68.2607 80.8955 69.0249 80 69.9673 80C70.9097 80 71.6738 80.8955 71.6738 82C71.6738 83.1045 70.9097 84 69.9673 84C69.0249 84 68.2607 83.1045 68.2607 82ZM85.3262 82C85.3262 80.8955 86.0903 80 87.0327 80C87.9751 80 88.7393 80.8955 88.7393 82C88.7393 83.1045 87.9751 84 87.0327 84C86.0903 84 85.3262 83.1045 85.3262 82ZM102.391 82C102.391 80.8955 103.155 80 104.098 80C105.041 80 105.804 80.8955 105.804 82C105.804 83.1045 105.041 84 104.098 84C103.155 84 102.391 83.1045 102.391 82ZM119.457 82C119.457 80.8955 120.221 80 121.163 80C122.105 80 122.87 80.8955 122.87 82C122.87 83.1045 122.105 84 121.163 84C120.221 84 119.457 83.1045 119.457 82ZM136.521 82C136.521 80.8955 137.286 80 138.228 80C139.171 80 139.935 80.8955 139.935 82C139.935 83.1045 139.171 84 138.228 84C137.286 84 136.521 83.1045 136.521 82ZM153.587 82C153.587 80.8955 154.351 80 155.293 80C156.236 80 157 80.8955 157 82C157 83.1045 156.236 84 155.293 84C154.351 84 153.587 83.1045 153.587 82ZM0 102C0 100.896 0.76416 100 1.70654 100C2.64893 100 3.41309 100.896 3.41309 102C3.41309 103.104 2.64893 104 1.70654 104C0.76416 104 0 103.104 0 102ZM17.0654 102C17.0654 100.896 17.8291 100 18.772 100C19.7144 100 20.478 100.896 20.478 102C20.478 103.104 19.7144 104 18.772 104C17.8291 104 17.0654 103.104 17.0654 102ZM34.1304 102C34.1304 100.896 34.8945 100 35.8369 100C36.7793 100 37.5435 100.896 37.5435 102C37.5435 103.104 36.7793 104 35.8369 104C34.8945 104 34.1304 103.104 34.1304 102ZM51.1958 102C51.1958 100.896 51.9595 100 52.9023 100C53.8447 100 54.6089 100.896 54.6089 102C54.6089 103.104 53.8447 104 52.9023 104C51.9595 104 51.1958 103.104 51.1958 102ZM68.2607 102C68.2607 100.896 69.0249 100 69.9673 100C70.9097 100 71.6738 100.896 71.6738 102C71.6738 103.104 70.9097 104 69.9673 104C69.0249 104 68.2607 103.104 68.2607 102ZM85.3262 102C85.3262 100.896 86.0903 100 87.0327 100C87.9751 100 88.7393 100.896 88.7393 102C88.7393 103.104 87.9751 104 87.0327 104C86.0903 104 85.3262 103.104 85.3262 102ZM102.391 102C102.391 100.896 103.155 100 104.098 100C105.041 100 105.804 100.896 105.804 102C105.804 103.104 105.041 104 104.098 104C103.155 104 102.391 103.104 102.391 102ZM119.457 102C119.457 100.896 120.221 100 121.163 100C122.105 100 122.87 100.896 122.87 102C122.87 103.104 122.105 104 121.163 104C120.221 104 119.457 103.104 119.457 102ZM136.521 102C136.521 100.896 137.286 100 138.228 100C139.171 100 139.935 100.896 139.935 102C139.935 103.104 139.171 104 138.228 104C137.286 104 136.521 103.104 136.521 102ZM153.587 102C153.587 100.896 154.351 100 155.293 100C156.236 100 157 100.896 157 102C157 103.104 156.236 104 155.293 104C154.351 104 153.587 103.104 153.587 102ZM0 122C0 120.896 0.76416 120 1.70654 120C2.64893 120 3.41309 120.896 3.41309 122C3.41309 123.104 2.64893 124 1.70654 124C0.76416 124 0 123.104 0 122ZM17.0654 122C17.0654 120.896 17.8291 120 18.772 120C19.7144 120 20.478 120.896 20.478 122C20.478 123.104 19.7144 124 18.772 124C17.8291 124 17.0654 123.104 17.0654 122ZM34.1304 122C34.1304 120.896 34.8945 120 35.8369 120C36.7793 120 37.5435 120.896 37.5435 122C37.5435 123.104 36.7793 124 35.8369 124C34.8945 124 34.1304 123.104 34.1304 122ZM51.1958 122C51.1958 120.896 51.9595 120 52.9023 120C53.8447 120 54.6089 120.896 54.6089 122C54.6089 123.104 53.8447 124 52.9023 124C51.9595 124 51.1958 123.104 51.1958 122ZM68.2607 122C68.2607 120.896 69.0249 120 69.9673 120C70.9097 120 71.6738 120.896 71.6738 122C71.6738 123.104 70.9097 124 69.9673 124C69.0249 124 68.2607 123.104 68.2607 122ZM85.3262 122C85.3262 120.896 86.0903 120 87.0327 120C87.9751 120 88.7393 120.896 88.7393 122C88.7393 123.104 87.9751 124 87.0327 124C86.0903 124 85.3262 123.104 85.3262 122ZM102.391 122C102.391 120.896 103.155 120 104.098 120C105.041 120 105.804 120.896 105.804 122C105.804 123.104 105.041 124 104.098 124C103.155 124 102.391 123.104 102.391 122ZM119.457 122C119.457 120.896 120.221 120 121.163 120C122.105 120 122.87 120.896 122.87 122C122.87 123.104 122.105 124 121.163 124C120.221 124 119.457 123.104 119.457 122ZM136.521 122C136.521 120.896 137.286 120 138.228 120C139.171 120 139.935 120.896 139.935 122C139.935 123.104 139.171 124 138.228 124C137.286 124 136.521 123.104 136.521 122ZM153.587 122C153.587 120.896 154.351 120 155.293 120C156.236 120 157 120.896 157 122C157 123.104 156.236 124 155.293 124C154.351 124 153.587 123.104 153.587 122ZM0 142C0 140.896 0.76416 140 1.70654 140C2.64893 140 3.41309 140.896 3.41309 142C3.41309 143.104 2.64893 144 1.70654 144C0.76416 144 0 143.104 0 142ZM17.0654 142C17.0654 140.896 17.8291 140 18.772 140C19.7144 140 20.478 140.896 20.478 142C20.478 143.104 19.7144 144 18.772 144C17.8291 144 17.0654 143.104 17.0654 142ZM34.1304 142C34.1304 140.896 34.8945 140 35.8369 140C36.7793 140 37.5435 140.896 37.5435 142C37.5435 143.104 36.7793 144 35.8369 144C34.8945 144 34.1304 143.104 34.1304 142ZM51.1958 142C51.1958 140.896 51.9595 140 52.9023 140C53.8447 140 54.6089 140.896 54.6089 142C54.6089 143.104 53.8447 144 52.9023 144C51.9595 144 51.1958 143.104 51.1958 142ZM68.2607 142C68.2607 140.896 69.0249 140 69.9673 140C70.9097 140 71.6738 140.896 71.6738 142C71.6738 143.104 70.9097 144 69.9673 144C69.0249 144 68.2607 143.104 68.2607 142ZM85.3262 142C85.3262 140.896 86.0903 140 87.0327 140C87.9751 140 88.7393 140.896 88.7393 142C88.7393 143.104 87.9751 144 87.0327 144C86.0903 144 85.3262 143.104 85.3262 142ZM102.391 142C102.391 140.896 103.155 140 104.098 140C105.041 140 105.804 140.896 105.804 142C105.804 143.104 105.041 144 104.098 144C103.155 144 102.391 143.104 102.391 142ZM119.457 142C119.457 140.896 120.221 140 121.163 140C122.105 140 122.87 140.896 122.87 142C122.87 143.104 122.105 144 121.163 144C120.221 144 119.457 143.104 119.457 142ZM136.521 142C136.521 140.896 137.286 140 138.228 140C139.171 140 139.935 140.896 139.935 142C139.935 143.104 139.171 144 138.228 144C137.286 144 136.521 143.104 136.521 142ZM153.587 142C153.587 140.896 154.351 140 155.293 140C156.236 140 157 140.896 157 142C157 143.104 156.236 144 155.293 144C154.351 144 153.587 143.104 153.587 142ZM0 162C0 160.896 0.76416 160 1.70654 160C2.64893 160 3.41309 160.896 3.41309 162C3.41309 163.104 2.64893 164 1.70654 164C0.76416 164 0 163.104 0 162ZM17.0654 162C17.0654 160.896 17.8291 160 18.772 160C19.7144 160 20.478 160.896 20.478 162C20.478 163.104 19.7144 164 18.772 164C17.8291 164 17.0654 163.104 17.0654 162ZM34.1304 162C34.1304 160.896 34.8945 160 35.8369 160C36.7793 160 37.5435 160.896 37.5435 162C37.5435 163.104 36.7793 164 35.8369 164C34.8945 164 34.1304 163.104 34.1304 162ZM51.1958 162C51.1958 160.896 51.9595 160 52.9023 160C53.8447 160 54.6089 160.896 54.6089 162C54.6089 163.104 53.8447 164 52.9023 164C51.9595 164 51.1958 163.104 51.1958 162ZM68.2607 162C68.2607 160.896 69.0249 160 69.9673 160C70.9097 160 71.6738 160.896 71.6738 162C71.6738 163.104 70.9097 164 69.9673 164C69.0249 164 68.2607 163.104 68.2607 162ZM85.3262 162C85.3262 160.896 86.0903 160 87.0327 160C87.9751 160 88.7393 160.896 88.7393 162C88.7393 163.104 87.9751 164 87.0327 164C86.0903 164 85.3262 163.104 85.3262 162ZM102.391 162C102.391 160.896 103.155 160 104.098 160C105.041 160 105.804 160.896 105.804 162C105.804 163.104 105.041 164 104.098 164C103.155 164 102.391 163.104 102.391 162ZM119.457 162C119.457 160.896 120.221 160 121.163 160C122.105 160 122.87 160.896 122.87 162C122.87 163.104 122.105 164 121.163 164C120.221 164 119.457 163.104 119.457 162ZM136.521 162C136.521 160.896 137.286 160 138.228 160C139.171 160 139.935 160.896 139.935 162C139.935 163.104 139.171 164 138.228 164C137.286 164 136.521 163.104 136.521 162ZM153.587 162C153.587 160.896 154.351 160 155.293 160C156.236 160 157 160.896 157 162C157 163.104 156.236 164 155.293 164C154.351 164 153.587 163.104 153.587 162ZM0 182C0 180.896 0.76416 180 1.70654 180C2.64893 180 3.41309 180.896 3.41309 182C3.41309 183.104 2.64893 184 1.70654 184C0.76416 184 0 183.104 0 182ZM17.0654 182C17.0654 180.896 17.8291 180 18.772 180C19.7144 180 20.478 180.896 20.478 182C20.478 183.104 19.7144 184 18.772 184C17.8291 184 17.0654 183.104 17.0654 182ZM34.1304 182C34.1304 180.896 34.8945 180 35.8369 180C36.7793 180 37.5435 180.896 37.5435 182C37.5435 183.104 36.7793 184 35.8369 184C34.8945 184 34.1304 183.104 34.1304 182ZM51.1958 182C51.1958 180.896 51.9595 180 52.9023 180C53.8447 180 54.6089 180.896 54.6089 182C54.6089 183.104 53.8447 184 52.9023 184C51.9595 184 51.1958 183.104 51.1958 182ZM68.2607 182C68.2607 180.896 69.0249 180 69.9673 180C70.9097 180 71.6738 180.896 71.6738 182C71.6738 183.104 70.9097 184 69.9673 184C69.0249 184 68.2607 183.104 68.2607 182ZM85.3262 182C85.3262 180.896 86.0903 180 87.0327 180C87.9751 180 88.7393 180.896 88.7393 182C88.7393 183.104 87.9751 184 87.0327 184C86.0903 184 85.3262 183.104 85.3262 182ZM102.391 182C102.391 180.896 103.155 180 104.098 180C105.041 180 105.804 180.896 105.804 182C105.804 183.104 105.041 184 104.098 184C103.155 184 102.391 183.104 102.391 182ZM119.457 182C119.457 180.896 120.221 180 121.163 180C122.105 180 122.87 180.896 122.87 182C122.87 183.104 122.105 184 121.163 184C120.221 184 119.457 183.104 119.457 182ZM136.521 182C136.521 180.896 137.286 180 138.228 180C139.171 180 139.935 180.896 139.935 182C139.935 183.104 139.171 184 138.228 184C137.286 184 136.521 183.104 136.521 182ZM153.587 182C153.587 180.896 154.351 180 155.293 180C156.236 180 157 180.896 157 182C157 183.104 156.236 184 155.293 184C154.351 184 153.587 183.104 153.587 182Z" clip-rule="evenodd" fill="#FFFFFF" fill-opacity="1.000000" fill-rule="evenodd"/>
</svg>
