<svg width="273.000000" height="364.000000" viewBox="0 0 273 364" fill="none" xmlns="http://www.w3.org/2000/svg" xmlns:xlink="http://www.w3.org/1999/xlink">
	<desc>
			Created with Pixso.
	</desc>
	<defs/>
	<path id="Union" d="M0 2C0 0.895508 0.671387 0 1.5 0C2.32861 0 3 0.895508 3 2C3 3.10449 2.32861 4 1.5 4C0.671387 4 0 3.10449 0 2ZM15 2C15 0.895508 15.6714 0 16.5 0C17.3286 0 18 0.895508 18 2C18 3.10449 17.3286 4 16.5 4C15.6714 4 15 3.10449 15 2ZM30 2C30 0.895508 30.6714 0 31.5 0C32.3286 0 33 0.895508 33 2C33 3.10449 32.3286 4 31.5 4C30.6714 4 30 3.10449 30 2ZM45 2C45 0.895508 45.6714 0 46.5 0C47.3286 0 48 0.895508 48 2C48 3.10449 47.3286 4 46.5 4C45.6714 4 45 3.10449 45 2ZM60 2C60 0.895508 60.6714 0 61.5 0C62.3286 0 63 0.895508 63 2C63 3.10449 62.3286 4 61.5 4C60.6714 4 60 3.10449 60 2ZM75 2C75 0.895508 75.6714 0 76.5 0C77.3286 0 78 0.895508 78 2C78 3.10449 77.3286 4 76.5 4C75.6714 4 75 3.10449 75 2ZM90 2C90 0.895508 90.6714 0 91.5 0C92.3286 0 93 0.895508 93 2C93 3.10449 92.3286 4 91.5 4C90.6714 4 90 3.10449 90 2ZM105 2C105 0.895508 105.671 0 106.5 0C107.329 0 108 0.895508 108 2C108 3.10449 107.329 4 106.5 4C105.671 4 105 3.10449 105 2ZM120 2C120 0.895508 120.671 0 121.5 0C122.329 0 123 0.895508 123 2C123 3.10449 122.329 4 121.5 4C120.671 4 120 3.10449 120 2ZM135 2C135 0.895508 135.671 0 136.5 0C137.329 0 138 0.895508 138 2C138 3.10449 137.329 4 136.5 4C135.671 4 135 3.10449 135 2ZM150 2C150 0.895508 150.671 0 151.5 0C152.329 0 153 0.895508 153 2C153 3.10449 152.329 4 151.5 4C150.671 4 150 3.10449 150 2ZM165 2C165 0.895508 165.671 0 166.5 0C167.329 0 168 0.895508 168 2C168 3.10449 167.329 4 166.5 4C165.671 4 165 3.10449 165 2ZM180 2C180 0.895508 180.671 0 181.5 0C182.329 0 183 0.895508 183 2C183 3.10449 182.329 4 181.5 4C180.671 4 180 3.10449 180 2ZM195 2C195 0.895508 195.671 0 196.5 0C197.329 0 198 0.895508 198 2C198 3.10449 197.329 4 196.5 4C195.671 4 195 3.10449 195 2ZM210 2C210 0.895508 210.671 0 211.5 0C212.329 0 213 0.895508 213 2C213 3.10449 212.329 4 211.5 4C210.671 4 210 3.10449 210 2ZM225 2C225 0.895508 225.671 0 226.5 0C227.329 0 228 0.895508 228 2C228 3.10449 227.329 4 226.5 4C225.671 4 225 3.10449 225 2ZM240 2C240 0.895508 240.671 0 241.5 0C242.329 0 243 0.895508 243 2C243 3.10449 242.329 4 241.5 4C240.671 4 240 3.10449 240 2ZM255 2C255 0.895508 255.671 0 256.5 0C257.329 0 258 0.895508 258 2C258 3.10449 257.329 4 256.5 4C255.671 4 255 3.10449 255 2ZM270 2C270 0.895508 270.671 0 271.5 0C272.329 0 273 0.895508 273 2C273 3.10449 272.329 4 271.5 4C270.671 4 270 3.10449 270 2ZM0 22C0 20.8955 0.671387 20 1.5 20C2.32861 20 3 20.8955 3 22C3 23.1045 2.32861 24 1.5 24C0.671387 24 0 23.1045 0 22ZM15 22C15 20.8955 15.6714 20 16.5 20C17.3286 20 18 20.8955 18 22C18 23.1045 17.3286 24 16.5 24C15.6714 24 15 23.1045 15 22ZM30 22C30 20.8955 30.6714 20 31.5 20C32.3286 20 33 20.8955 33 22C33 23.1045 32.3286 24 31.5 24C30.6714 24 30 23.1045 30 22ZM45 22C45 20.8955 45.6714 20 46.5 20C47.3286 20 48 20.8955 48 22C48 23.1045 47.3286 24 46.5 24C45.6714 24 45 23.1045 45 22ZM60 22C60 20.8955 60.6714 20 61.5 20C62.3286 20 63 20.8955 63 22C63 23.1045 62.3286 24 61.5 24C60.6714 24 60 23.1045 60 22ZM75 22C75 20.8955 75.6714 20 76.5 20C77.3286 20 78 20.8955 78 22C78 23.1045 77.3286 24 76.5 24C75.6714 24 75 23.1045 75 22ZM90 22C90 20.8955 90.6714 20 91.5 20C92.3286 20 93 20.8955 93 22C93 23.1045 92.3286 24 91.5 24C90.6714 24 90 23.1045 90 22ZM105 22C105 20.8955 105.671 20 106.5 20C107.329 20 108 20.8955 108 22C108 23.1045 107.329 24 106.5 24C105.671 24 105 23.1045 105 22ZM120 22C120 20.8955 120.671 20 121.5 20C122.329 20 123 20.8955 123 22C123 23.1045 122.329 24 121.5 24C120.671 24 120 23.1045 120 22ZM135 22C135 20.8955 135.671 20 136.5 20C137.329 20 138 20.8955 138 22C138 23.1045 137.329 24 136.5 24C135.671 24 135 23.1045 135 22ZM150 22C150 20.8955 150.671 20 151.5 20C152.329 20 153 20.8955 153 22C153 23.1045 152.329 24 151.5 24C150.671 24 150 23.1045 150 22ZM165 22C165 20.8955 165.671 20 166.5 20C167.329 20 168 20.8955 168 22C168 23.1045 167.329 24 166.5 24C165.671 24 165 23.1045 165 22ZM180 22C180 20.8955 180.671 20 181.5 20C182.329 20 183 20.8955 183 22C183 23.1045 182.329 24 181.5 24C180.671 24 180 23.1045 180 22ZM195 22C195 20.8955 195.671 20 196.5 20C197.329 20 198 20.8955 198 22C198 23.1045 197.329 24 196.5 24C195.671 24 195 23.1045 195 22ZM210 22C210 20.8955 210.671 20 211.5 20C212.329 20 213 20.8955 213 22C213 23.1045 212.329 24 211.5 24C210.671 24 210 23.1045 210 22ZM225 22C225 20.8955 225.671 20 226.5 20C227.329 20 228 20.8955 228 22C228 23.1045 227.329 24 226.5 24C225.671 24 225 23.1045 225 22ZM240 22C240 20.8955 240.671 20 241.5 20C242.329 20 243 20.8955 243 22C243 23.1045 242.329 24 241.5 24C240.671 24 240 23.1045 240 22ZM255 22C255 20.8955 255.671 20 256.5 20C257.329 20 258 20.8955 258 22C258 23.1045 257.329 24 256.5 24C255.671 24 255 23.1045 255 22ZM270 22C270 20.8955 270.671 20 271.5 20C272.329 20 273 20.8955 273 22C273 23.1045 272.329 24 271.5 24C270.671 24 270 23.1045 270 22ZM0 42C0 40.8955 0.671387 40 1.5 40C2.32861 40 3 40.8955 3 42C3 43.1045 2.32861 44 1.5 44C0.671387 44 0 43.1045 0 42ZM15 42C15 40.8955 15.6714 40 16.5 40C17.3286 40 18 40.8955 18 42C18 43.1045 17.3286 44 16.5 44C15.6714 44 15 43.1045 15 42ZM30 42C30 40.8955 30.6714 40 31.5 40C32.3286 40 33 40.8955 33 42C33 43.1045 32.3286 44 31.5 44C30.6714 44 30 43.1045 30 42ZM45 42C45 40.8955 45.6714 40 46.5 40C47.3286 40 48 40.8955 48 42C48 43.1045 47.3286 44 46.5 44C45.6714 44 45 43.1045 45 42ZM60 42C60 40.8955 60.6714 40 61.5 40C62.3286 40 63 40.8955 63 42C63 43.1045 62.3286 44 61.5 44C60.6714 44 60 43.1045 60 42ZM75 42C75 40.8955 75.6714 40 76.5 40C77.3286 40 78 40.8955 78 42C78 43.1045 77.3286 44 76.5 44C75.6714 44 75 43.1045 75 42ZM90 42C90 40.8955 90.6714 40 91.5 40C92.3286 40 93 40.8955 93 42C93 43.1045 92.3286 44 91.5 44C90.6714 44 90 43.1045 90 42ZM105 42C105 40.8955 105.671 40 106.5 40C107.329 40 108 40.8955 108 42C108 43.1045 107.329 44 106.5 44C105.671 44 105 43.1045 105 42ZM120 42C120 40.8955 120.671 40 121.5 40C122.329 40 123 40.8955 123 42C123 43.1045 122.329 44 121.5 44C120.671 44 120 43.1045 120 42ZM135 42C135 40.8955 135.671 40 136.5 40C137.329 40 138 40.8955 138 42C138 43.1045 137.329 44 136.5 44C135.671 44 135 43.1045 135 42ZM150 42C150 40.8955 150.671 40 151.5 40C152.329 40 153 40.8955 153 42C153 43.1045 152.329 44 151.5 44C150.671 44 150 43.1045 150 42ZM165 42C165 40.8955 165.671 40 166.5 40C167.329 40 168 40.8955 168 42C168 43.1045 167.329 44 166.5 44C165.671 44 165 43.1045 165 42ZM180 42C180 40.8955 180.671 40 181.5 40C182.329 40 183 40.8955 183 42C183 43.1045 182.329 44 181.5 44C180.671 44 180 43.1045 180 42ZM195 42C195 40.8955 195.671 40 196.5 40C197.329 40 198 40.8955 198 42C198 43.1045 197.329 44 196.5 44C195.671 44 195 43.1045 195 42ZM210 42C210 40.8955 210.671 40 211.5 40C212.329 40 213 40.8955 213 42C213 43.1045 212.329 44 211.5 44C210.671 44 210 43.1045 210 42ZM225 42C225 40.8955 225.671 40 226.5 40C227.329 40 228 40.8955 228 42C228 43.1045 227.329 44 226.5 44C225.671 44 225 43.1045 225 42ZM240 42C240 40.8955 240.671 40 241.5 40C242.329 40 243 40.8955 243 42C243 43.1045 242.329 44 241.5 44C240.671 44 240 43.1045 240 42ZM255 42C255 40.8955 255.671 40 256.5 40C257.329 40 258 40.8955 258 42C258 43.1045 257.329 44 256.5 44C255.671 44 255 43.1045 255 42ZM270 42C270 40.8955 270.671 40 271.5 40C272.329 40 273 40.8955 273 42C273 43.1045 272.329 44 271.5 44C270.671 44 270 43.1045 270 42ZM0 62C0 60.8955 0.671387 60 1.5 60C2.32861 60 3 60.8955 3 62C3 63.1045 2.32861 64 1.5 64C0.671387 64 0 63.1045 0 62ZM15 62C15 60.8955 15.6714 60 16.5 60C17.3286 60 18 60.8955 18 62C18 63.1045 17.3286 64 16.5 64C15.6714 64 15 63.1045 15 62ZM30 62C30 60.8955 30.6714 60 31.5 60C32.3286 60 33 60.8955 33 62C33 63.1045 32.3286 64 31.5 64C30.6714 64 30 63.1045 30 62ZM45 62C45 60.8955 45.6714 60 46.5 60C47.3286 60 48 60.8955 48 62C48 63.1045 47.3286 64 46.5 64C45.6714 64 45 63.1045 45 62ZM60 62C60 60.8955 60.6714 60 61.5 60C62.3286 60 63 60.8955 63 62C63 63.1045 62.3286 64 61.5 64C60.6714 64 60 63.1045 60 62ZM75 62C75 60.8955 75.6714 60 76.5 60C77.3286 60 78 60.8955 78 62C78 63.1045 77.3286 64 76.5 64C75.6714 64 75 63.1045 75 62ZM90 62C90 60.8955 90.6714 60 91.5 60C92.3286 60 93 60.8955 93 62C93 63.1045 92.3286 64 91.5 64C90.6714 64 90 63.1045 90 62ZM105 62C105 60.8955 105.671 60 106.5 60C107.329 60 108 60.8955 108 62C108 63.1045 107.329 64 106.5 64C105.671 64 105 63.1045 105 62ZM120 62C120 60.8955 120.671 60 121.5 60C122.329 60 123 60.8955 123 62C123 63.1045 122.329 64 121.5 64C120.671 64 120 63.1045 120 62ZM135 62C135 60.8955 135.671 60 136.5 60C137.329 60 138 60.8955 138 62C138 63.1045 137.329 64 136.5 64C135.671 64 135 63.1045 135 62ZM150 62C150 60.8955 150.671 60 151.5 60C152.329 60 153 60.8955 153 62C153 63.1045 152.329 64 151.5 64C150.671 64 150 63.1045 150 62ZM165 62C165 60.8955 165.671 60 166.5 60C167.329 60 168 60.8955 168 62C168 63.1045 167.329 64 166.5 64C165.671 64 165 63.1045 165 62ZM180 62C180 60.8955 180.671 60 181.5 60C182.329 60 183 60.8955 183 62C183 63.1045 182.329 64 181.5 64C180.671 64 180 63.1045 180 62ZM195 62C195 60.8955 195.671 60 196.5 60C197.329 60 198 60.8955 198 62C198 63.1045 197.329 64 196.5 64C195.671 64 195 63.1045 195 62ZM210 62C210 60.8955 210.671 60 211.5 60C212.329 60 213 60.8955 213 62C213 63.1045 212.329 64 211.5 64C210.671 64 210 63.1045 210 62ZM225 62C225 60.8955 225.671 60 226.5 60C227.329 60 228 60.8955 228 62C228 63.1045 227.329 64 226.5 64C225.671 64 225 63.1045 225 62ZM240 62C240 60.8955 240.671 60 241.5 60C242.329 60 243 60.8955 243 62C243 63.1045 242.329 64 241.5 64C240.671 64 240 63.1045 240 62ZM255 62C255 60.8955 255.671 60 256.5 60C257.329 60 258 60.8955 258 62C258 63.1045 257.329 64 256.5 64C255.671 64 255 63.1045 255 62ZM270 62C270 60.8955 270.671 60 271.5 60C272.329 60 273 60.8955 273 62C273 63.1045 272.329 64 271.5 64C270.671 64 270 63.1045 270 62ZM0 82C0 80.8955 0.671387 80 1.5 80C2.32861 80 3 80.8955 3 82C3 83.1045 2.32861 84 1.5 84C0.671387 84 0 83.1045 0 82ZM15 82C15 80.8955 15.6714 80 16.5 80C17.3286 80 18 80.8955 18 82C18 83.1045 17.3286 84 16.5 84C15.6714 84 15 83.1045 15 82ZM30 82C30 80.8955 30.6714 80 31.5 80C32.3286 80 33 80.8955 33 82C33 83.1045 32.3286 84 31.5 84C30.6714 84 30 83.1045 30 82ZM45 82C45 80.8955 45.6714 80 46.5 80C47.3286 80 48 80.8955 48 82C48 83.1045 47.3286 84 46.5 84C45.6714 84 45 83.1045 45 82ZM60 82C60 80.8955 60.6714 80 61.5 80C62.3286 80 63 80.8955 63 82C63 83.1045 62.3286 84 61.5 84C60.6714 84 60 83.1045 60 82ZM75 82C75 80.8955 75.6714 80 76.5 80C77.3286 80 78 80.8955 78 82C78 83.1045 77.3286 84 76.5 84C75.6714 84 75 83.1045 75 82ZM90 82C90 80.8955 90.6714 80 91.5 80C92.3286 80 93 80.8955 93 82C93 83.1045 92.3286 84 91.5 84C90.6714 84 90 83.1045 90 82ZM105 82C105 80.8955 105.671 80 106.5 80C107.329 80 108 80.8955 108 82C108 83.1045 107.329 84 106.5 84C105.671 84 105 83.1045 105 82ZM120 82C120 80.8955 120.671 80 121.5 80C122.329 80 123 80.8955 123 82C123 83.1045 122.329 84 121.5 84C120.671 84 120 83.1045 120 82ZM135 82C135 80.8955 135.671 80 136.5 80C137.329 80 138 80.8955 138 82C138 83.1045 137.329 84 136.5 84C135.671 84 135 83.1045 135 82ZM150 82C150 80.8955 150.671 80 151.5 80C152.329 80 153 80.8955 153 82C153 83.1045 152.329 84 151.5 84C150.671 84 150 83.1045 150 82ZM165 82C165 80.8955 165.671 80 166.5 80C167.329 80 168 80.8955 168 82C168 83.1045 167.329 84 166.5 84C165.671 84 165 83.1045 165 82ZM180 82C180 80.8955 180.671 80 181.5 80C182.329 80 183 80.8955 183 82C183 83.1045 182.329 84 181.5 84C180.671 84 180 83.1045 180 82ZM195 82C195 80.8955 195.671 80 196.5 80C197.329 80 198 80.8955 198 82C198 83.1045 197.329 84 196.5 84C195.671 84 195 83.1045 195 82ZM210 82C210 80.8955 210.671 80 211.5 80C212.329 80 213 80.8955 213 82C213 83.1045 212.329 84 211.5 84C210.671 84 210 83.1045 210 82ZM225 82C225 80.8955 225.671 80 226.5 80C227.329 80 228 80.8955 228 82C228 83.1045 227.329 84 226.5 84C225.671 84 225 83.1045 225 82ZM240 82C240 80.8955 240.671 80 241.5 80C242.329 80 243 80.8955 243 82C243 83.1045 242.329 84 241.5 84C240.671 84 240 83.1045 240 82ZM255 82C255 80.8955 255.671 80 256.5 80C257.329 80 258 80.8955 258 82C258 83.1045 257.329 84 256.5 84C255.671 84 255 83.1045 255 82ZM270 82C270 80.8955 270.671 80 271.5 80C272.329 80 273 80.8955 273 82C273 83.1045 272.329 84 271.5 84C270.671 84 270 83.1045 270 82ZM0 102C0 100.896 0.671387 100 1.5 100C2.32861 100 3 100.896 3 102C3 103.104 2.32861 104 1.5 104C0.671387 104 0 103.104 0 102ZM15 102C15 100.896 15.6714 100 16.5 100C17.3286 100 18 100.896 18 102C18 103.104 17.3286 104 16.5 104C15.6714 104 15 103.104 15 102ZM30 102C30 100.896 30.6714 100 31.5 100C32.3286 100 33 100.896 33 102C33 103.104 32.3286 104 31.5 104C30.6714 104 30 103.104 30 102ZM45 102C45 100.896 45.6714 100 46.5 100C47.3286 100 48 100.896 48 102C48 103.104 47.3286 104 46.5 104C45.6714 104 45 103.104 45 102ZM60 102C60 100.896 60.6714 100 61.5 100C62.3286 100 63 100.896 63 102C63 103.104 62.3286 104 61.5 104C60.6714 104 60 103.104 60 102ZM75 102C75 100.896 75.6714 100 76.5 100C77.3286 100 78 100.896 78 102C78 103.104 77.3286 104 76.5 104C75.6714 104 75 103.104 75 102ZM90 102C90 100.896 90.6714 100 91.5 100C92.3286 100 93 100.896 93 102C93 103.104 92.3286 104 91.5 104C90.6714 104 90 103.104 90 102ZM105 102C105 100.896 105.671 100 106.5 100C107.329 100 108 100.896 108 102C108 103.104 107.329 104 106.5 104C105.671 104 105 103.104 105 102ZM120 102C120 100.896 120.671 100 121.5 100C122.329 100 123 100.896 123 102C123 103.104 122.329 104 121.5 104C120.671 104 120 103.104 120 102ZM135 102C135 100.896 135.671 100 136.5 100C137.329 100 138 100.896 138 102C138 103.104 137.329 104 136.5 104C135.671 104 135 103.104 135 102ZM150 102C150 100.896 150.671 100 151.5 100C152.329 100 153 100.896 153 102C153 103.104 152.329 104 151.5 104C150.671 104 150 103.104 150 102ZM165 102C165 100.896 165.671 100 166.5 100C167.329 100 168 100.896 168 102C168 103.104 167.329 104 166.5 104C165.671 104 165 103.104 165 102ZM180 102C180 100.896 180.671 100 181.5 100C182.329 100 183 100.896 183 102C183 103.104 182.329 104 181.5 104C180.671 104 180 103.104 180 102ZM195 102C195 100.896 195.671 100 196.5 100C197.329 100 198 100.896 198 102C198 103.104 197.329 104 196.5 104C195.671 104 195 103.104 195 102ZM210 102C210 100.896 210.671 100 211.5 100C212.329 100 213 100.896 213 102C213 103.104 212.329 104 211.5 104C210.671 104 210 103.104 210 102ZM225 102C225 100.896 225.671 100 226.5 100C227.329 100 228 100.896 228 102C228 103.104 227.329 104 226.5 104C225.671 104 225 103.104 225 102ZM240 102C240 100.896 240.671 100 241.5 100C242.329 100 243 100.896 243 102C243 103.104 242.329 104 241.5 104C240.671 104 240 103.104 240 102ZM255 102C255 100.896 255.671 100 256.5 100C257.329 100 258 100.896 258 102C258 103.104 257.329 104 256.5 104C255.671 104 255 103.104 255 102ZM270 102C270 100.896 270.671 100 271.5 100C272.329 100 273 100.896 273 102C273 103.104 272.329 104 271.5 104C270.671 104 270 103.104 270 102ZM0 122C0 120.896 0.671387 120 1.5 120C2.32861 120 3 120.896 3 122C3 123.104 2.32861 124 1.5 124C0.671387 124 0 123.104 0 122ZM15 122C15 120.896 15.6714 120 16.5 120C17.3286 120 18 120.896 18 122C18 123.104 17.3286 124 16.5 124C15.6714 124 15 123.104 15 122ZM30 122C30 120.896 30.6714 120 31.5 120C32.3286 120 33 120.896 33 122C33 123.104 32.3286 124 31.5 124C30.6714 124 30 123.104 30 122ZM45 122C45 120.896 45.6714 120 46.5 120C47.3286 120 48 120.896 48 122C48 123.104 47.3286 124 46.5 124C45.6714 124 45 123.104 45 122ZM60 122C60 120.896 60.6714 120 61.5 120C62.3286 120 63 120.896 63 122C63 123.104 62.3286 124 61.5 124C60.6714 124 60 123.104 60 122ZM75 122C75 120.896 75.6714 120 76.5 120C77.3286 120 78 120.896 78 122C78 123.104 77.3286 124 76.5 124C75.6714 124 75 123.104 75 122ZM90 122C90 120.896 90.6714 120 91.5 120C92.3286 120 93 120.896 93 122C93 123.104 92.3286 124 91.5 124C90.6714 124 90 123.104 90 122ZM105 122C105 120.896 105.671 120 106.5 120C107.329 120 108 120.896 108 122C108 123.104 107.329 124 106.5 124C105.671 124 105 123.104 105 122ZM120 122C120 120.896 120.671 120 121.5 120C122.329 120 123 120.896 123 122C123 123.104 122.329 124 121.5 124C120.671 124 120 123.104 120 122ZM135 122C135 120.896 135.671 120 136.5 120C137.329 120 138 120.896 138 122C138 123.104 137.329 124 136.5 124C135.671 124 135 123.104 135 122ZM150 122C150 120.896 150.671 120 151.5 120C152.329 120 153 120.896 153 122C153 123.104 152.329 124 151.5 124C150.671 124 150 123.104 150 122ZM165 122C165 120.896 165.671 120 166.5 120C167.329 120 168 120.896 168 122C168 123.104 167.329 124 166.5 124C165.671 124 165 123.104 165 122ZM180 122C180 120.896 180.671 120 181.5 120C182.329 120 183 120.896 183 122C183 123.104 182.329 124 181.5 124C180.671 124 180 123.104 180 122ZM195 122C195 120.896 195.671 120 196.5 120C197.329 120 198 120.896 198 122C198 123.104 197.329 124 196.5 124C195.671 124 195 123.104 195 122ZM210 122C210 120.896 210.671 120 211.5 120C212.329 120 213 120.896 213 122C213 123.104 212.329 124 211.5 124C210.671 124 210 123.104 210 122ZM225 122C225 120.896 225.671 120 226.5 120C227.329 120 228 120.896 228 122C228 123.104 227.329 124 226.5 124C225.671 124 225 123.104 225 122ZM240 122C240 120.896 240.671 120 241.5 120C242.329 120 243 120.896 243 122C243 123.104 242.329 124 241.5 124C240.671 124 240 123.104 240 122ZM255 122C255 120.896 255.671 120 256.5 120C257.329 120 258 120.896 258 122C258 123.104 257.329 124 256.5 124C255.671 124 255 123.104 255 122ZM270 122C270 120.896 270.671 120 271.5 120C272.329 120 273 120.896 273 122C273 123.104 272.329 124 271.5 124C270.671 124 270 123.104 270 122ZM0 142C0 140.896 0.671387 140 1.5 140C2.32861 140 3 140.896 3 142C3 143.104 2.32861 144 1.5 144C0.671387 144 0 143.104 0 142ZM15 142C15 140.896 15.6714 140 16.5 140C17.3286 140 18 140.896 18 142C18 143.104 17.3286 144 16.5 144C15.6714 144 15 143.104 15 142ZM30 142C30 140.896 30.6714 140 31.5 140C32.3286 140 33 140.896 33 142C33 143.104 32.3286 144 31.5 144C30.6714 144 30 143.104 30 142ZM45 142C45 140.896 45.6714 140 46.5 140C47.3286 140 48 140.896 48 142C48 143.104 47.3286 144 46.5 144C45.6714 144 45 143.104 45 142ZM60 142C60 140.896 60.6714 140 61.5 140C62.3286 140 63 140.896 63 142C63 143.104 62.3286 144 61.5 144C60.6714 144 60 143.104 60 142ZM75 142C75 140.896 75.6714 140 76.5 140C77.3286 140 78 140.896 78 142C78 143.104 77.3286 144 76.5 144C75.6714 144 75 143.104 75 142ZM90 142C90 140.896 90.6714 140 91.5 140C92.3286 140 93 140.896 93 142C93 143.104 92.3286 144 91.5 144C90.6714 144 90 143.104 90 142ZM105 142C105 140.896 105.671 140 106.5 140C107.329 140 108 140.896 108 142C108 143.104 107.329 144 106.5 144C105.671 144 105 143.104 105 142ZM120 142C120 140.896 120.671 140 121.5 140C122.329 140 123 140.896 123 142C123 143.104 122.329 144 121.5 144C120.671 144 120 143.104 120 142ZM135 142C135 140.896 135.671 140 136.5 140C137.329 140 138 140.896 138 142C138 143.104 137.329 144 136.5 144C135.671 144 135 143.104 135 142ZM150 142C150 140.896 150.671 140 151.5 140C152.329 140 153 140.896 153 142C153 143.104 152.329 144 151.5 144C150.671 144 150 143.104 150 142ZM165 142C165 140.896 165.671 140 166.5 140C167.329 140 168 140.896 168 142C168 143.104 167.329 144 166.5 144C165.671 144 165 143.104 165 142ZM180 142C180 140.896 180.671 140 181.5 140C182.329 140 183 140.896 183 142C183 143.104 182.329 144 181.5 144C180.671 144 180 143.104 180 142ZM195 142C195 140.896 195.671 140 196.5 140C197.329 140 198 140.896 198 142C198 143.104 197.329 144 196.5 144C195.671 144 195 143.104 195 142ZM210 142C210 140.896 210.671 140 211.5 140C212.329 140 213 140.896 213 142C213 143.104 212.329 144 211.5 144C210.671 144 210 143.104 210 142ZM225 142C225 140.896 225.671 140 226.5 140C227.329 140 228 140.896 228 142C228 143.104 227.329 144 226.5 144C225.671 144 225 143.104 225 142ZM240 142C240 140.896 240.671 140 241.5 140C242.329 140 243 140.896 243 142C243 143.104 242.329 144 241.5 144C240.671 144 240 143.104 240 142ZM255 142C255 140.896 255.671 140 256.5 140C257.329 140 258 140.896 258 142C258 143.104 257.329 144 256.5 144C255.671 144 255 143.104 255 142ZM270 142C270 140.896 270.671 140 271.5 140C272.329 140 273 140.896 273 142C273 143.104 272.329 144 271.5 144C270.671 144 270 143.104 270 142ZM0 162C0 160.896 0.671387 160 1.5 160C2.32861 160 3 160.896 3 162C3 163.104 2.32861 164 1.5 164C0.671387 164 0 163.104 0 162ZM15 162C15 160.896 15.6714 160 16.5 160C17.3286 160 18 160.896 18 162C18 163.104 17.3286 164 16.5 164C15.6714 164 15 163.104 15 162ZM30 162C30 160.896 30.6714 160 31.5 160C32.3286 160 33 160.896 33 162C33 163.104 32.3286 164 31.5 164C30.6714 164 30 163.104 30 162ZM45 162C45 160.896 45.6714 160 46.5 160C47.3286 160 48 160.896 48 162C48 163.104 47.3286 164 46.5 164C45.6714 164 45 163.104 45 162ZM60 162C60 160.896 60.6714 160 61.5 160C62.3286 160 63 160.896 63 162C63 163.104 62.3286 164 61.5 164C60.6714 164 60 163.104 60 162ZM75 162C75 160.896 75.6714 160 76.5 160C77.3286 160 78 160.896 78 162C78 163.104 77.3286 164 76.5 164C75.6714 164 75 163.104 75 162ZM90 162C90 160.896 90.6714 160 91.5 160C92.3286 160 93 160.896 93 162C93 163.104 92.3286 164 91.5 164C90.6714 164 90 163.104 90 162ZM105 162C105 160.896 105.671 160 106.5 160C107.329 160 108 160.896 108 162C108 163.104 107.329 164 106.5 164C105.671 164 105 163.104 105 162ZM120 162C120 160.896 120.671 160 121.5 160C122.329 160 123 160.896 123 162C123 163.104 122.329 164 121.5 164C120.671 164 120 163.104 120 162ZM135 162C135 160.896 135.671 160 136.5 160C137.329 160 138 160.896 138 162C138 163.104 137.329 164 136.5 164C135.671 164 135 163.104 135 162ZM150 162C150 160.896 150.671 160 151.5 160C152.329 160 153 160.896 153 162C153 163.104 152.329 164 151.5 164C150.671 164 150 163.104 150 162ZM165 162C165 160.896 165.671 160 166.5 160C167.329 160 168 160.896 168 162C168 163.104 167.329 164 166.5 164C165.671 164 165 163.104 165 162ZM180 162C180 160.896 180.671 160 181.5 160C182.329 160 183 160.896 183 162C183 163.104 182.329 164 181.5 164C180.671 164 180 163.104 180 162ZM195 162C195 160.896 195.671 160 196.5 160C197.329 160 198 160.896 198 162C198 163.104 197.329 164 196.5 164C195.671 164 195 163.104 195 162ZM210 162C210 160.896 210.671 160 211.5 160C212.329 160 213 160.896 213 162C213 163.104 212.329 164 211.5 164C210.671 164 210 163.104 210 162ZM225 162C225 160.896 225.671 160 226.5 160C227.329 160 228 160.896 228 162C228 163.104 227.329 164 226.5 164C225.671 164 225 163.104 225 162ZM240 162C240 160.896 240.671 160 241.5 160C242.329 160 243 160.896 243 162C243 163.104 242.329 164 241.5 164C240.671 164 240 163.104 240 162ZM255 162C255 160.896 255.671 160 256.5 160C257.329 160 258 160.896 258 162C258 163.104 257.329 164 256.5 164C255.671 164 255 163.104 255 162ZM270 162C270 160.896 270.671 160 271.5 160C272.329 160 273 160.896 273 162C273 163.104 272.329 164 271.5 164C270.671 164 270 163.104 270 162ZM1.5 184C0.671387 184 0 183.104 0 182C0 180.896 0.671387 180 1.5 180C2.32861 180 3 180.896 3 182C3 183.104 2.32861 184 1.5 184ZM16.5 184C15.6714 184 15 183.104 15 182C15 180.896 15.6714 180 16.5 180C17.3286 180 18 180.896 18 182C18 183.104 17.3286 184 16.5 184ZM31.5 184C30.6714 184 30 183.104 30 182C30 180.896 30.6714 180 31.5 180C32.3286 180 33 180.896 33 182C33 183.104 32.3286 184 31.5 184ZM46.5 184C45.6714 184 45 183.104 45 182C45 180.896 45.6714 180 46.5 180C47.3286 180 48 180.896 48 182C48 183.104 47.3286 184 46.5 184ZM61.5 184C60.6714 184 60 183.104 60 182C60 180.896 60.6714 180 61.5 180C62.3286 180 63 180.896 63 182C63 183.104 62.3286 184 61.5 184ZM76.5 184C75.6714 184 75 183.104 75 182C75 180.896 75.6714 180 76.5 180C77.3286 180 78 180.896 78 182C78 183.104 77.3286 184 76.5 184ZM91.5 180C90.6714 180 90 180.896 90 182C90 183.104 90.6714 184 91.5 184C92.3286 184 93 183.104 93 182C93 180.896 92.3286 180 91.5 180ZM106.5 184C105.671 184 105 183.104 105 182C105 180.896 105.671 180 106.5 180C107.329 180 108 180.896 108 182C108 183.104 107.329 184 106.5 184ZM121.5 184C120.671 184 120 183.104 120 182C120 180.896 120.671 180 121.5 180C122.329 180 123 180.896 123 182C123 183.104 122.329 184 121.5 184ZM136.5 184C135.671 184 135 183.104 135 182C135 180.896 135.671 180 136.5 180C137.329 180 138 180.896 138 182C138 183.104 137.329 184 136.5 184ZM151.5 184C150.671 184 150 183.104 150 182C150 180.896 150.671 180 151.5 180C152.329 180 153 180.896 153 182C153 183.104 152.329 184 151.5 184ZM166.5 184C165.671 184 165 183.104 165 182C165 180.896 165.671 180 166.5 180C167.329 180 168 180.896 168 182C168 183.104 167.329 184 166.5 184ZM181.5 184C180.671 184 180 183.104 180 182C180 180.896 180.671 180 181.5 180C182.329 180 183 180.896 183 182C183 183.104 182.329 184 181.5 184ZM196.5 184C195.671 184 195 183.104 195 182C195 180.896 195.671 180 196.5 180C197.329 180 198 180.896 198 182C198 183.104 197.329 184 196.5 184ZM211.5 184C210.671 184 210 183.104 210 182C210 180.896 210.671 180 211.5 180C212.329 180 213 180.896 213 182C213 183.104 212.329 184 211.5 184ZM226.5 184C225.671 184 225 183.104 225 182C225 180.896 225.671 180 226.5 180C227.329 180 228 180.896 228 182C228 183.104 227.329 184 226.5 184ZM241.5 184C240.671 184 240 183.104 240 182C240 180.896 240.671 180 241.5 180C242.329 180 243 180.896 243 182C243 183.104 242.329 184 241.5 184ZM256.5 184C255.671 184 255 183.104 255 182C255 180.896 255.671 180 256.5 180C257.329 180 258 180.896 258 182C258 183.104 257.329 184 256.5 184ZM271.5 184C270.671 184 270 183.104 270 182C270 180.896 270.671 180 271.5 180C272.329 180 273 180.896 273 182C273 183.104 272.329 184 271.5 184ZM1.5 200C0.671387 200 0 200.896 0 202C0 203.104 0.671387 204 1.5 204C2.32861 204 3 203.104 3 202C3 200.896 2.32861 200 1.5 200ZM16.5 200C15.6714 200 15 200.896 15 202C15 203.104 15.6714 204 16.5 204C17.3286 204 18 203.104 18 202C18 200.896 17.3286 200 16.5 200ZM31.5 200C30.6714 200 30 200.896 30 202C30 203.104 30.6714 204 31.5 204C32.3286 204 33 203.104 33 202C33 200.896 32.3286 200 31.5 200ZM46.5 200C45.6714 200 45 200.896 45 202C45 203.104 45.6714 204 46.5 204C47.3286 204 48 203.104 48 202C48 200.896 47.3286 200 46.5 200ZM61.5 200C60.6714 200 60 200.896 60 202C60 203.104 60.6714 204 61.5 204C62.3286 204 63 203.104 63 202C63 200.896 62.3286 200 61.5 200ZM76.5 200C75.6714 200 75 200.896 75 202C75 203.104 75.6714 204 76.5 204C77.3286 204 78 203.104 78 202C78 200.896 77.3286 200 76.5 200ZM91.5 200C90.6714 200 90 200.896 90 202C90 203.104 90.6714 204 91.5 204C92.3286 204 93 203.104 93 202C93 200.896 92.3286 200 91.5 200ZM106.5 200C105.671 200 105 200.896 105 202C105 203.104 105.671 204 106.5 204C107.329 204 108 203.104 108 202C108 200.896 107.329 200 106.5 200ZM121.5 200C120.671 200 120 200.896 120 202C120 203.104 120.671 204 121.5 204C122.329 204 123 203.104 123 202C123 200.896 122.329 200 121.5 200ZM136.5 200C135.671 200 135 200.896 135 202C135 203.104 135.671 204 136.5 204C137.329 204 138 203.104 138 202C138 200.896 137.329 200 136.5 200ZM151.5 200C150.671 200 150 200.896 150 202C150 203.104 150.671 204 151.5 204C152.329 204 153 203.104 153 202C153 200.896 152.329 200 151.5 200ZM166.5 200C165.671 200 165 200.896 165 202C165 203.104 165.671 204 166.5 204C167.329 204 168 203.104 168 202C168 200.896 167.329 200 166.5 200ZM181.5 200C180.671 200 180 200.896 180 202C180 203.104 180.671 204 181.5 204C182.329 204 183 203.104 183 202C183 200.896 182.329 200 181.5 200ZM196.5 200C195.671 200 195 200.896 195 202C195 203.104 195.671 204 196.5 204C197.329 204 198 203.104 198 202C198 200.896 197.329 200 196.5 200ZM211.5 200C210.671 200 210 200.896 210 202C210 203.104 210.671 204 211.5 204C212.329 204 213 203.104 213 202C213 200.896 212.329 200 211.5 200ZM226.5 200C225.671 200 225 200.896 225 202C225 203.104 225.671 204 226.5 204C227.329 204 228 203.104 228 202C228 200.896 227.329 200 226.5 200ZM241.5 200C240.671 200 240 200.896 240 202C240 203.104 240.671 204 241.5 204C242.329 204 243 203.104 243 202C243 200.896 242.329 200 241.5 200ZM256.5 200C255.671 200 255 200.896 255 202C255 203.104 255.671 204 256.5 204C257.329 204 258 203.104 258 202C258 200.896 257.329 200 256.5 200ZM271.5 200C270.671 200 270 200.896 270 202C270 203.104 270.671 204 271.5 204C272.329 204 273 203.104 273 202C273 200.896 272.329 200 271.5 200ZM1.5 220C0.671387 220 0 220.896 0 222C0 223.104 0.671387 224 1.5 224C2.32861 224 3 223.104 3 222C3 220.896 2.32861 220 1.5 220ZM16.5 220C15.6714 220 15 220.896 15 222C15 223.104 15.6714 224 16.5 224C17.3286 224 18 223.104 18 222C18 220.896 17.3286 220 16.5 220ZM31.5 220C30.6714 220 30 220.896 30 222C30 223.104 30.6714 224 31.5 224C32.3286 224 33 223.104 33 222C33 220.896 32.3286 220 31.5 220ZM46.5 220C45.6714 220 45 220.896 45 222C45 223.104 45.6714 224 46.5 224C47.3286 224 48 223.104 48 222C48 220.896 47.3286 220 46.5 220ZM61.5 220C60.6714 220 60 220.896 60 222C60 223.104 60.6714 224 61.5 224C62.3286 224 63 223.104 63 222C63 220.896 62.3286 220 61.5 220ZM76.5 220C75.6714 220 75 220.896 75 222C75 223.104 75.6714 224 76.5 224C77.3286 224 78 223.104 78 222C78 220.896 77.3286 220 76.5 220ZM91.5 220C90.6714 220 90 220.896 90 222C90 223.104 90.6714 224 91.5 224C92.3286 224 93 223.104 93 222C93 220.896 92.3286 220 91.5 220ZM106.5 220C105.671 220 105 220.896 105 222C105 223.104 105.671 224 106.5 224C107.329 224 108 223.104 108 222C108 220.896 107.329 220 106.5 220ZM121.5 220C120.671 220 120 220.896 120 222C120 223.104 120.671 224 121.5 224C122.329 224 123 223.104 123 222C123 220.896 122.329 220 121.5 220ZM136.5 220C135.671 220 135 220.896 135 222C135 223.104 135.671 224 136.5 224C137.329 224 138 223.104 138 222C138 220.896 137.329 220 136.5 220ZM151.5 220C150.671 220 150 220.896 150 222C150 223.104 150.671 224 151.5 224C152.329 224 153 223.104 153 222C153 220.896 152.329 220 151.5 220ZM166.5 220C165.671 220 165 220.896 165 222C165 223.104 165.671 224 166.5 224C167.329 224 168 223.104 168 222C168 220.896 167.329 220 166.5 220ZM181.5 220C180.671 220 180 220.896 180 222C180 223.104 180.671 224 181.5 224C182.329 224 183 223.104 183 222C183 220.896 182.329 220 181.5 220ZM196.5 220C195.671 220 195 220.896 195 222C195 223.104 195.671 224 196.5 224C197.329 224 198 223.104 198 222C198 220.896 197.329 220 196.5 220ZM211.5 220C210.671 220 210 220.896 210 222C210 223.104 210.671 224 211.5 224C212.329 224 213 223.104 213 222C213 220.896 212.329 220 211.5 220ZM226.5 220C225.671 220 225 220.896 225 222C225 223.104 225.671 224 226.5 224C227.329 224 228 223.104 228 222C228 220.896 227.329 220 226.5 220ZM241.5 220C240.671 220 240 220.896 240 222C240 223.104 240.671 224 241.5 224C242.329 224 243 223.104 243 222C243 220.896 242.329 220 241.5 220ZM256.5 220C255.671 220 255 220.896 255 222C255 223.104 255.671 224 256.5 224C257.329 224 258 223.104 258 222C258 220.896 257.329 220 256.5 220ZM271.5 220C270.671 220 270 220.896 270 222C270 223.104 270.671 224 271.5 224C272.329 224 273 223.104 273 222C273 220.896 272.329 220 271.5 220ZM1.5 240C0.671387 240 0 240.896 0 242C0 243.104 0.671387 244 1.5 244C2.32861 244 3 243.104 3 242C3 240.896 2.32861 240 1.5 240ZM16.5 240C15.6714 240 15 240.896 15 242C15 243.104 15.6714 244 16.5 244C17.3286 244 18 243.104 18 242C18 240.896 17.3286 240 16.5 240ZM31.5 240C30.6714 240 30 240.896 30 242C30 243.104 30.6714 244 31.5 244C32.3286 244 33 243.104 33 242C33 240.896 32.3286 240 31.5 240ZM46.5 240C45.6714 240 45 240.896 45 242C45 243.104 45.6714 244 46.5 244C47.3286 244 48 243.104 48 242C48 240.896 47.3286 240 46.5 240ZM61.5 240C60.6714 240 60 240.896 60 242C60 243.104 60.6714 244 61.5 244C62.3286 244 63 243.104 63 242C63 240.896 62.3286 240 61.5 240ZM76.5 240C75.6714 240 75 240.896 75 242C75 243.104 75.6714 244 76.5 244C77.3286 244 78 243.104 78 242C78 240.896 77.3286 240 76.5 240ZM91.5 240C90.6714 240 90 240.896 90 242C90 243.104 90.6714 244 91.5 244C92.3286 244 93 243.104 93 242C93 240.896 92.3286 240 91.5 240ZM106.5 240C105.671 240 105 240.896 105 242C105 243.104 105.671 244 106.5 244C107.329 244 108 243.104 108 242C108 240.896 107.329 240 106.5 240ZM121.5 240C120.671 240 120 240.896 120 242C120 243.104 120.671 244 121.5 244C122.329 244 123 243.104 123 242C123 240.896 122.329 240 121.5 240ZM136.5 240C135.671 240 135 240.896 135 242C135 243.104 135.671 244 136.5 244C137.329 244 138 243.104 138 242C138 240.896 137.329 240 136.5 240ZM151.5 240C150.671 240 150 240.896 150 242C150 243.104 150.671 244 151.5 244C152.329 244 153 243.104 153 242C153 240.896 152.329 240 151.5 240ZM166.5 240C165.671 240 165 240.896 165 242C165 243.104 165.671 244 166.5 244C167.329 244 168 243.104 168 242C168 240.896 167.329 240 166.5 240ZM181.5 240C180.671 240 180 240.896 180 242C180 243.104 180.671 244 181.5 244C182.329 244 183 243.104 183 242C183 240.896 182.329 240 181.5 240ZM196.5 240C195.671 240 195 240.896 195 242C195 243.104 195.671 244 196.5 244C197.329 244 198 243.104 198 242C198 240.896 197.329 240 196.5 240ZM211.5 240C210.671 240 210 240.896 210 242C210 243.104 210.671 244 211.5 244C212.329 244 213 243.104 213 242C213 240.896 212.329 240 211.5 240ZM226.5 240C225.671 240 225 240.896 225 242C225 243.104 225.671 244 226.5 244C227.329 244 228 243.104 228 242C228 240.896 227.329 240 226.5 240ZM241.5 240C240.671 240 240 240.896 240 242C240 243.104 240.671 244 241.5 244C242.329 244 243 243.104 243 242C243 240.896 242.329 240 241.5 240ZM256.5 240C255.671 240 255 240.896 255 242C255 243.104 255.671 244 256.5 244C257.329 244 258 243.104 258 242C258 240.896 257.329 240 256.5 240ZM271.5 240C270.671 240 270 240.896 270 242C270 243.104 270.671 244 271.5 244C272.329 244 273 243.104 273 242C273 240.896 272.329 240 271.5 240ZM1.5 260C0.671387 260 0 260.896 0 262C0 263.104 0.671387 264 1.5 264C2.32861 264 3 263.104 3 262C3 260.896 2.32861 260 1.5 260ZM16.5 260C15.6714 260 15 260.896 15 262C15 263.104 15.6714 264 16.5 264C17.3286 264 18 263.104 18 262C18 260.896 17.3286 260 16.5 260ZM31.5 260C30.6714 260 30 260.896 30 262C30 263.104 30.6714 264 31.5 264C32.3286 264 33 263.104 33 262C33 260.896 32.3286 260 31.5 260ZM46.5 260C45.6714 260 45 260.896 45 262C45 263.104 45.6714 264 46.5 264C47.3286 264 48 263.104 48 262C48 260.896 47.3286 260 46.5 260ZM61.5 260C60.6714 260 60 260.896 60 262C60 263.104 60.6714 264 61.5 264C62.3286 264 63 263.104 63 262C63 260.896 62.3286 260 61.5 260ZM76.5 260C75.6714 260 75 260.896 75 262C75 263.104 75.6714 264 76.5 264C77.3286 264 78 263.104 78 262C78 260.896 77.3286 260 76.5 260ZM91.5 260C90.6714 260 90 260.896 90 262C90 263.104 90.6714 264 91.5 264C92.3286 264 93 263.104 93 262C93 260.896 92.3286 260 91.5 260ZM106.5 260C105.671 260 105 260.896 105 262C105 263.104 105.671 264 106.5 264C107.329 264 108 263.104 108 262C108 260.896 107.329 260 106.5 260ZM121.5 260C120.671 260 120 260.896 120 262C120 263.104 120.671 264 121.5 264C122.329 264 123 263.104 123 262C123 260.896 122.329 260 121.5 260ZM136.5 260C135.671 260 135 260.896 135 262C135 263.104 135.671 264 136.5 264C137.329 264 138 263.104 138 262C138 260.896 137.329 260 136.5 260ZM151.5 260C150.671 260 150 260.896 150 262C150 263.104 150.671 264 151.5 264C152.329 264 153 263.104 153 262C153 260.896 152.329 260 151.5 260ZM166.5 260C165.671 260 165 260.896 165 262C165 263.104 165.671 264 166.5 264C167.329 264 168 263.104 168 262C168 260.896 167.329 260 166.5 260ZM181.5 260C180.671 260 180 260.896 180 262C180 263.104 180.671 264 181.5 264C182.329 264 183 263.104 183 262C183 260.896 182.329 260 181.5 260ZM196.5 260C195.671 260 195 260.896 195 262C195 263.104 195.671 264 196.5 264C197.329 264 198 263.104 198 262C198 260.896 197.329 260 196.5 260ZM211.5 260C210.671 260 210 260.896 210 262C210 263.104 210.671 264 211.5 264C212.329 264 213 263.104 213 262C213 260.896 212.329 260 211.5 260ZM226.5 260C225.671 260 225 260.896 225 262C225 263.104 225.671 264 226.5 264C227.329 264 228 263.104 228 262C228 260.896 227.329 260 226.5 260ZM241.5 260C240.671 260 240 260.896 240 262C240 263.104 240.671 264 241.5 264C242.329 264 243 263.104 243 262C243 260.896 242.329 260 241.5 260ZM256.5 260C255.671 260 255 260.896 255 262C255 263.104 255.671 264 256.5 264C257.329 264 258 263.104 258 262C258 260.896 257.329 260 256.5 260ZM271.5 260C270.671 260 270 260.896 270 262C270 263.104 270.671 264 271.5 264C272.329 264 273 263.104 273 262C273 260.896 272.329 260 271.5 260ZM1.5 280C0.671387 280 0 280.896 0 282C0 283.104 0.671387 284 1.5 284C2.32861 284 3 283.104 3 282C3 280.896 2.32861 280 1.5 280ZM16.5 280C15.6714 280 15 280.896 15 282C15 283.104 15.6714 284 16.5 284C17.3286 284 18 283.104 18 282C18 280.896 17.3286 280 16.5 280ZM31.5 280C30.6714 280 30 280.896 30 282C30 283.104 30.6714 284 31.5 284C32.3286 284 33 283.104 33 282C33 280.896 32.3286 280 31.5 280ZM46.5 280C45.6714 280 45 280.896 45 282C45 283.104 45.6714 284 46.5 284C47.3286 284 48 283.104 48 282C48 280.896 47.3286 280 46.5 280ZM61.5 280C60.6714 280 60 280.896 60 282C60 283.104 60.6714 284 61.5 284C62.3286 284 63 283.104 63 282C63 280.896 62.3286 280 61.5 280ZM76.5 280C75.6714 280 75 280.896 75 282C75 283.104 75.6714 284 76.5 284C77.3286 284 78 283.104 78 282C78 280.896 77.3286 280 76.5 280ZM91.5 280C90.6714 280 90 280.896 90 282C90 283.104 90.6714 284 91.5 284C92.3286 284 93 283.104 93 282C93 280.896 92.3286 280 91.5 280ZM106.5 280C105.671 280 105 280.896 105 282C105 283.104 105.671 284 106.5 284C107.329 284 108 283.104 108 282C108 280.896 107.329 280 106.5 280ZM121.5 280C120.671 280 120 280.896 120 282C120 283.104 120.671 284 121.5 284C122.329 284 123 283.104 123 282C123 280.896 122.329 280 121.5 280ZM136.5 280C135.671 280 135 280.896 135 282C135 283.104 135.671 284 136.5 284C137.329 284 138 283.104 138 282C138 280.896 137.329 280 136.5 280ZM151.5 280C150.671 280 150 280.896 150 282C150 283.104 150.671 284 151.5 284C152.329 284 153 283.104 153 282C153 280.896 152.329 280 151.5 280ZM166.5 280C165.671 280 165 280.896 165 282C165 283.104 165.671 284 166.5 284C167.329 284 168 283.104 168 282C168 280.896 167.329 280 166.5 280ZM181.5 280C180.671 280 180 280.896 180 282C180 283.104 180.671 284 181.5 284C182.329 284 183 283.104 183 282C183 280.896 182.329 280 181.5 280ZM196.5 280C195.671 280 195 280.896 195 282C195 283.104 195.671 284 196.5 284C197.329 284 198 283.104 198 282C198 280.896 197.329 280 196.5 280ZM211.5 280C210.671 280 210 280.896 210 282C210 283.104 210.671 284 211.5 284C212.329 284 213 283.104 213 282C213 280.896 212.329 280 211.5 280ZM226.5 280C225.671 280 225 280.896 225 282C225 283.104 225.671 284 226.5 284C227.329 284 228 283.104 228 282C228 280.896 227.329 280 226.5 280ZM241.5 280C240.671 280 240 280.896 240 282C240 283.104 240.671 284 241.5 284C242.329 284 243 283.104 243 282C243 280.896 242.329 280 241.5 280ZM256.5 280C255.671 280 255 280.896 255 282C255 283.104 255.671 284 256.5 284C257.329 284 258 283.104 258 282C258 280.896 257.329 280 256.5 280ZM271.5 280C270.671 280 270 280.896 270 282C270 283.104 270.671 284 271.5 284C272.329 284 273 283.104 273 282C273 280.896 272.329 280 271.5 280ZM1.5 300C0.671387 300 0 300.896 0 302C0 303.104 0.671387 304 1.5 304C2.32861 304 3 303.104 3 302C3 300.896 2.32861 300 1.5 300ZM16.5 300C15.6714 300 15 300.896 15 302C15 303.104 15.6714 304 16.5 304C17.3286 304 18 303.104 18 302C18 300.896 17.3286 300 16.5 300ZM31.5 300C30.6714 300 30 300.896 30 302C30 303.104 30.6714 304 31.5 304C32.3286 304 33 303.104 33 302C33 300.896 32.3286 300 31.5 300ZM46.5 300C45.6714 300 45 300.896 45 302C45 303.104 45.6714 304 46.5 304C47.3286 304 48 303.104 48 302C48 300.896 47.3286 300 46.5 300ZM61.5 300C60.6714 300 60 300.896 60 302C60 303.104 60.6714 304 61.5 304C62.3286 304 63 303.104 63 302C63 300.896 62.3286 300 61.5 300ZM76.5 300C75.6714 300 75 300.896 75 302C75 303.104 75.6714 304 76.5 304C77.3286 304 78 303.104 78 302C78 300.896 77.3286 300 76.5 300ZM91.5 300C90.6714 300 90 300.896 90 302C90 303.104 90.6714 304 91.5 304C92.3286 304 93 303.104 93 302C93 300.896 92.3286 300 91.5 300ZM106.5 300C105.671 300 105 300.896 105 302C105 303.104 105.671 304 106.5 304C107.329 304 108 303.104 108 302C108 300.896 107.329 300 106.5 300ZM121.5 300C120.671 300 120 300.896 120 302C120 303.104 120.671 304 121.5 304C122.329 304 123 303.104 123 302C123 300.896 122.329 300 121.5 300ZM136.5 300C135.671 300 135 300.896 135 302C135 303.104 135.671 304 136.5 304C137.329 304 138 303.104 138 302C138 300.896 137.329 300 136.5 300ZM151.5 300C150.671 300 150 300.896 150 302C150 303.104 150.671 304 151.5 304C152.329 304 153 303.104 153 302C153 300.896 152.329 300 151.5 300ZM166.5 300C165.671 300 165 300.896 165 302C165 303.104 165.671 304 166.5 304C167.329 304 168 303.104 168 302C168 300.896 167.329 300 166.5 300ZM181.5 300C180.671 300 180 300.896 180 302C180 303.104 180.671 304 181.5 304C182.329 304 183 303.104 183 302C183 300.896 182.329 300 181.5 300ZM196.5 300C195.671 300 195 300.896 195 302C195 303.104 195.671 304 196.5 304C197.329 304 198 303.104 198 302C198 300.896 197.329 300 196.5 300ZM211.5 300C210.671 300 210 300.896 210 302C210 303.104 210.671 304 211.5 304C212.329 304 213 303.104 213 302C213 300.896 212.329 300 211.5 300ZM226.5 300C225.671 300 225 300.896 225 302C225 303.104 225.671 304 226.5 304C227.329 304 228 303.104 228 302C228 300.896 227.329 300 226.5 300ZM241.5 300C240.671 300 240 300.896 240 302C240 303.104 240.671 304 241.5 304C242.329 304 243 303.104 243 302C243 300.896 242.329 300 241.5 300ZM256.5 300C255.671 300 255 300.896 255 302C255 303.104 255.671 304 256.5 304C257.329 304 258 303.104 258 302C258 300.896 257.329 300 256.5 300ZM271.5 300C270.671 300 270 300.896 270 302C270 303.104 270.671 304 271.5 304C272.329 304 273 303.104 273 302C273 300.896 272.329 300 271.5 300ZM1.5 320C0.671387 320 0 320.896 0 322C0 323.104 0.671387 324 1.5 324C2.32861 324 3 323.104 3 322C3 320.896 2.32861 320 1.5 320ZM16.5 320C15.6714 320 15 320.896 15 322C15 323.104 15.6714 324 16.5 324C17.3286 324 18 323.104 18 322C18 320.896 17.3286 320 16.5 320ZM31.5 320C30.6714 320 30 320.896 30 322C30 323.104 30.6714 324 31.5 324C32.3286 324 33 323.104 33 322C33 320.896 32.3286 320 31.5 320ZM46.5 320C45.6714 320 45 320.896 45 322C45 323.104 45.6714 324 46.5 324C47.3286 324 48 323.104 48 322C48 320.896 47.3286 320 46.5 320ZM61.5 320C60.6714 320 60 320.896 60 322C60 323.104 60.6714 324 61.5 324C62.3286 324 63 323.104 63 322C63 320.896 62.3286 320 61.5 320ZM76.5 320C75.6714 320 75 320.896 75 322C75 323.104 75.6714 324 76.5 324C77.3286 324 78 323.104 78 322C78 320.896 77.3286 320 76.5 320ZM91.5 320C90.6714 320 90 320.896 90 322C90 323.104 90.6714 324 91.5 324C92.3286 324 93 323.104 93 322C93 320.896 92.3286 320 91.5 320ZM106.5 320C105.671 320 105 320.896 105 322C105 323.104 105.671 324 106.5 324C107.329 324 108 323.104 108 322C108 320.896 107.329 320 106.5 320ZM121.5 320C120.671 320 120 320.896 120 322C120 323.104 120.671 324 121.5 324C122.329 324 123 323.104 123 322C123 320.896 122.329 320 121.5 320ZM136.5 320C135.671 320 135 320.896 135 322C135 323.104 135.671 324 136.5 324C137.329 324 138 323.104 138 322C138 320.896 137.329 320 136.5 320ZM151.5 320C150.671 320 150 320.896 150 322C150 323.104 150.671 324 151.5 324C152.329 324 153 323.104 153 322C153 320.896 152.329 320 151.5 320ZM166.5 320C165.671 320 165 320.896 165 322C165 323.104 165.671 324 166.5 324C167.329 324 168 323.104 168 322C168 320.896 167.329 320 166.5 320ZM181.5 320C180.671 320 180 320.896 180 322C180 323.104 180.671 324 181.5 324C182.329 324 183 323.104 183 322C183 320.896 182.329 320 181.5 320ZM196.5 320C195.671 320 195 320.896 195 322C195 323.104 195.671 324 196.5 324C197.329 324 198 323.104 198 322C198 320.896 197.329 320 196.5 320ZM211.5 320C210.671 320 210 320.896 210 322C210 323.104 210.671 324 211.5 324C212.329 324 213 323.104 213 322C213 320.896 212.329 320 211.5 320ZM226.5 320C225.671 320 225 320.896 225 322C225 323.104 225.671 324 226.5 324C227.329 324 228 323.104 228 322C228 320.896 227.329 320 226.5 320ZM241.5 320C240.671 320 240 320.896 240 322C240 323.104 240.671 324 241.5 324C242.329 324 243 323.104 243 322C243 320.896 242.329 320 241.5 320ZM256.5 320C255.671 320 255 320.896 255 322C255 323.104 255.671 324 256.5 324C257.329 324 258 323.104 258 322C258 320.896 257.329 320 256.5 320ZM271.5 320C270.671 320 270 320.896 270 322C270 323.104 270.671 324 271.5 324C272.329 324 273 323.104 273 322C273 320.896 272.329 320 271.5 320ZM1.5 340C0.671387 340 0 340.896 0 342C0 343.104 0.671387 344 1.5 344C2.32861 344 3 343.104 3 342C3 340.896 2.32861 340 1.5 340ZM16.5 340C15.6714 340 15 340.896 15 342C15 343.104 15.6714 344 16.5 344C17.3286 344 18 343.104 18 342C18 340.896 17.3286 340 16.5 340ZM31.5 340C30.6714 340 30 340.896 30 342C30 343.104 30.6714 344 31.5 344C32.3286 344 33 343.104 33 342C33 340.896 32.3286 340 31.5 340ZM46.5 340C45.6714 340 45 340.896 45 342C45 343.104 45.6714 344 46.5 344C47.3286 344 48 343.104 48 342C48 340.896 47.3286 340 46.5 340ZM61.5 340C60.6714 340 60 340.896 60 342C60 343.104 60.6714 344 61.5 344C62.3286 344 63 343.104 63 342C63 340.896 62.3286 340 61.5 340ZM76.5 340C75.6714 340 75 340.896 75 342C75 343.104 75.6714 344 76.5 344C77.3286 344 78 343.104 78 342C78 340.896 77.3286 340 76.5 340ZM91.5 340C90.6714 340 90 340.896 90 342C90 343.104 90.6714 344 91.5 344C92.3286 344 93 343.104 93 342C93 340.896 92.3286 340 91.5 340ZM106.5 340C105.671 340 105 340.896 105 342C105 343.104 105.671 344 106.5 344C107.329 344 108 343.104 108 342C108 340.896 107.329 340 106.5 340ZM121.5 340C120.671 340 120 340.896 120 342C120 343.104 120.671 344 121.5 344C122.329 344 123 343.104 123 342C123 340.896 122.329 340 121.5 340ZM136.5 340C135.671 340 135 340.896 135 342C135 343.104 135.671 344 136.5 344C137.329 344 138 343.104 138 342C138 340.896 137.329 340 136.5 340ZM151.5 340C150.671 340 150 340.896 150 342C150 343.104 150.671 344 151.5 344C152.329 344 153 343.104 153 342C153 340.896 152.329 340 151.5 340ZM166.5 340C165.671 340 165 340.896 165 342C165 343.104 165.671 344 166.5 344C167.329 344 168 343.104 168 342C168 340.896 167.329 340 166.5 340ZM181.5 340C180.671 340 180 340.896 180 342C180 343.104 180.671 344 181.5 344C182.329 344 183 343.104 183 342C183 340.896 182.329 340 181.5 340ZM196.5 340C195.671 340 195 340.896 195 342C195 343.104 195.671 344 196.5 344C197.329 344 198 343.104 198 342C198 340.896 197.329 340 196.5 340ZM211.5 340C210.671 340 210 340.896 210 342C210 343.104 210.671 344 211.5 344C212.329 344 213 343.104 213 342C213 340.896 212.329 340 211.5 340ZM226.5 340C225.671 340 225 340.896 225 342C225 343.104 225.671 344 226.5 344C227.329 344 228 343.104 228 342C228 340.896 227.329 340 226.5 340ZM241.5 340C240.671 340 240 340.896 240 342C240 343.104 240.671 344 241.5 344C242.329 344 243 343.104 243 342C243 340.896 242.329 340 241.5 340ZM256.5 340C255.671 340 255 340.896 255 342C255 343.104 255.671 344 256.5 344C257.329 344 258 343.104 258 342C258 340.896 257.329 340 256.5 340ZM271.5 340C270.671 340 270 340.896 270 342C270 343.104 270.671 344 271.5 344C272.329 344 273 343.104 273 342C273 340.896 272.329 340 271.5 340ZM1.5 360C0.671387 360 0 360.896 0 362C0 363.104 0.671387 364 1.5 364C2.32861 364 3 363.104 3 362C3 360.896 2.32861 360 1.5 360ZM16.5 360C15.6714 360 15 360.896 15 362C15 363.104 15.6714 364 16.5 364C17.3286 364 18 363.104 18 362C18 360.896 17.3286 360 16.5 360ZM31.5 360C30.6714 360 30 360.896 30 362C30 363.104 30.6714 364 31.5 364C32.3286 364 33 363.104 33 362C33 360.896 32.3286 360 31.5 360ZM46.5 360C45.6714 360 45 360.896 45 362C45 363.104 45.6714 364 46.5 364C47.3286 364 48 363.104 48 362C48 360.896 47.3286 360 46.5 360ZM61.5 360C60.6714 360 60 360.896 60 362C60 363.104 60.6714 364 61.5 364C62.3286 364 63 363.104 63 362C63 360.896 62.3286 360 61.5 360ZM76.5 360C75.6714 360 75 360.896 75 362C75 363.104 75.6714 364 76.5 364C77.3286 364 78 363.104 78 362C78 360.896 77.3286 360 76.5 360ZM91.5 360C90.6714 360 90 360.896 90 362C90 363.104 90.6714 364 91.5 364C92.3286 364 93 363.104 93 362C93 360.896 92.3286 360 91.5 360ZM106.5 360C105.671 360 105 360.896 105 362C105 363.104 105.671 364 106.5 364C107.329 364 108 363.104 108 362C108 360.896 107.329 360 106.5 360ZM121.5 360C120.671 360 120 360.896 120 362C120 363.104 120.671 364 121.5 364C122.329 364 123 363.104 123 362C123 360.896 122.329 360 121.5 360ZM136.5 360C135.671 360 135 360.896 135 362C135 363.104 135.671 364 136.5 364C137.329 364 138 363.104 138 362C138 360.896 137.329 360 136.5 360ZM151.5 360C150.671 360 150 360.896 150 362C150 363.104 150.671 364 151.5 364C152.329 364 153 363.104 153 362C153 360.896 152.329 360 151.5 360ZM166.5 360C165.671 360 165 360.896 165 362C165 363.104 165.671 364 166.5 364C167.329 364 168 363.104 168 362C168 360.896 167.329 360 166.5 360ZM181.5 360C180.671 360 180 360.896 180 362C180 363.104 180.671 364 181.5 364C182.329 364 183 363.104 183 362C183 360.896 182.329 360 181.5 360ZM196.5 360C195.671 360 195 360.896 195 362C195 363.104 195.671 364 196.5 364C197.329 364 198 363.104 198 362C198 360.896 197.329 360 196.5 360ZM211.5 360C210.671 360 210 360.896 210 362C210 363.104 210.671 364 211.5 364C212.329 364 213 363.104 213 362C213 360.896 212.329 360 211.5 360ZM226.5 360C225.671 360 225 360.896 225 362C225 363.104 225.671 364 226.5 364C227.329 364 228 363.104 228 362C228 360.896 227.329 360 226.5 360ZM241.5 360C240.671 360 240 360.896 240 362C240 363.104 240.671 364 241.5 364C242.329 364 243 363.104 243 362C243 360.896 242.329 360 241.5 360ZM256.5 360C255.671 360 255 360.896 255 362C255 363.104 255.671 364 256.5 364C257.329 364 258 363.104 258 362C258 360.896 257.329 360 256.5 360ZM271.5 360C270.671 360 270 360.896 270 362C270 363.104 270.671 364 271.5 364C272.329 364 273 363.104 273 362C273 360.896 272.329 360 271.5 360Z" clip-rule="evenodd" fill="#FFFFFF" fill-opacity="1.000000" fill-rule="evenodd"/>
</svg>
