<svg width="119.000000" height="267.000000" viewBox="0 0 119 267" fill="none" xmlns="http://www.w3.org/2000/svg" xmlns:xlink="http://www.w3.org/1999/xlink">
	<desc>
			Created with Pixso.
	</desc>
	<defs/>
	<path id="Vector" d="M101.09 219.31C101.09 219.77 101.09 220.07 101.09 220.68C100.63 220.38 100.33 220.23 100.17 220.07C99.87 220.68 99.72 221.29 99.26 221.75C98.96 222.05 98.35 222.05 97.59 222.2C97.29 222.05 96.83 221.9 96.22 221.6C95.61 222.36 95.16 222.97 94.4 223.73C94.09 223.73 93.79 223.73 93.33 223.73C93.18 223.58 92.88 223.27 92.73 222.97C91.51 223.12 90.44 224.79 88.92 223.58C88.47 223.73 88.01 223.88 87.56 224.18C87.56 224.49 87.71 224.64 87.71 225.1C87.56 225.86 86.95 226.77 87.86 227.84C87.71 228.14 87.4 228.3 87.4 228.6C87.1 230.28 86.95 232.1 86.8 233.78C86.64 234.69 86.64 235.6 85.88 236.21C86.19 236.52 86.49 236.98 86.95 237.43C86.49 237.58 86.19 237.74 86.04 237.74C85.73 238.65 85.73 239.72 85.28 240.48C84.21 242.15 83 243.68 81.78 245.2C80.87 245.2 80.26 245.2 79.35 245.05C79.04 244.74 78.59 244.44 78.28 244.13C77.52 244.89 77.07 245.5 76.31 246.26C75.85 246.26 75.24 246.26 74.79 246.26C74.48 246.57 83.15 217.94 73.87 247.03C70.83 246.72 67.79 247.18 64.75 248.24C64.15 247.33 63.08 248.4 62.17 247.94C62.17 248.09 62.02 248.4 62.02 248.55C61.11 249.16 60.35 248.09 59.43 248.24C59.43 248.09 59.28 247.94 59.28 247.94C59.13 248.09 59.13 248.24 58.98 248.24C58.52 248.4 58.06 248.55 57.61 248.55C57.31 248.24 57 247.94 56.7 247.63L56.54 247.79C56.7 248.09 56.85 248.4 57 248.85C55.48 249.16 53.96 249.31 52.44 249.61C51.98 249.46 51.22 249 51.07 249.31C50.31 249.92 49.86 249.61 49.25 249.16C49.25 249.16 48.94 249.46 48.64 249.61C48.34 249.77 48.18 249.92 47.88 249.92C47.73 249.77 47.58 249.61 47.42 249.46C47.27 249.92 47.27 250.38 47.12 250.98C46.66 250.38 46.51 249.92 46.21 249.46C46.06 249.77 46.06 249.92 45.9 250.22C45.6 250.22 45.14 250.38 44.69 250.38C43.93 250.53 42.86 250.68 42.1 250.53C41.65 250.53 41.04 250.22 40.43 250.83C39.97 251.29 39.37 251.44 38.76 251.75C38.15 251.59 37.69 250.83 36.93 251.44C36.63 251.59 36.02 251.44 35.26 251.29C35.26 251.14 35.26 250.83 35.26 250.68C35.41 250.83 35.57 250.83 35.57 250.68L35.41 250.53C35.41 250.68 35.26 250.83 35.26 250.98C34.96 251.29 34.5 251.59 34.05 251.75C33.74 251.44 33.59 251.29 33.29 250.83C32.98 251.29 32.68 251.75 32.37 252.2C31.61 251.59 30.55 252.2 29.79 251.9C28.73 251.59 27.66 252.51 26.9 251.44C26.6 251.59 26.45 251.75 26.14 251.9C25.68 251.14 24.77 250.68 24.62 249.77C24.77 249.61 24.92 249.46 25.08 249.31C24.92 249 24.77 248.55 24.62 248.24C24.62 248.09 24.77 247.79 24.92 247.63C24.47 246.57 24.16 245.65 25.08 244.74C24.62 244.28 24.62 243.83 24.92 243.22C25.08 242.76 25.08 242.3 24.92 241.85C24.77 241.39 24.92 240.63 23.56 241.09C24.16 240.48 24.47 240.33 24.77 240.02C24.62 239.41 24.62 238.95 24.62 238.5C24.62 237.89 23.71 237.43 24.62 236.82C24.16 236.37 24.32 235.76 24.32 235.3C24.32 234.69 24.62 234.08 23.86 233.78C24.01 233.63 24.16 233.47 24.47 233.17C24.16 232.71 23.86 232.25 23.56 231.8C23.71 231.65 23.86 231.34 24.01 231.04C23.86 230.43 23.56 229.67 23.25 228.9C23.71 228.14 23.71 228.14 23.25 226.77C23.56 226.62 23.86 226.62 24.01 226.47C24.01 225.55 23.86 224.64 23.86 223.88C23.86 222.97 23.71 222.2 23.1 221.6C23.25 220.23 23.4 218.85 22.64 217.48C22.34 216.88 23.4 216.72 22.64 216.11C22.04 215.66 22.34 215.05 22.95 214.59C22.64 214.44 22.34 214.13 22.04 213.83C22.19 213.22 22.04 212.61 22.34 212.15C22.64 211.55 21.88 211.09 22.19 210.48C22.34 210.02 22.04 265.51 21.88 264.9C22.04 264.74 22.19 264.59 22.19 264.44C21.73 264.13 22.04 263.22 21.12 263.22C21.12 263.22 20.97 262.76 21.28 262C21.28 261.7 20.97 261.85 20.97 261.85C20.97 262 21.12 262.31 21.12 262.46C21.28 262.16 21.28 262 21.12 262C20.82 262.61 20.52 262.61 20.36 262.61C20.06 263.07 19.91 263.37 19.6 263.83C19.3 263.83 18.84 263.83 18.54 263.83C18.39 264.13 18.24 264.44 18.08 264.9C17.93 264.59 17.93 264.29 17.78 263.98C17.02 264.29 16.41 264.59 15.65 264.9C15.8 265.05 15.96 265.2 16.11 265.35C15.35 265.35 14.74 265.35 13.83 265.2C13.83 264.9 13.83 264.74 13.83 264.29L13.83 264.44C14.13 264.44 14.44 264.29 14.74 264.29C14.74 264.13 14.74 264.13 14.74 263.98C14.44 263.98 14.13 263.98 13.98 264.13C13.22 264.13 12.92 264.74 12.46 265.05C12.31 264.74 12 264.44 11.85 264.13C11.7 263.98 11.7 263.83 11.55 263.83L11.4 263.98C11.55 264.13 11.55 264.13 11.7 264.29C11.55 265.05 11.09 265.66 10.79 266.27C10.03 265.96 9.57 265.81 8.96 265.66C8.51 265.66 7.9 265.96 7.29 265.66C6.83 265.35 5.92 265.66 5.47 265.35C4.86 264.9 4.4 264.74 3.79 265.51C3.49 264.9 3.03 264.29 2.73 263.68C2.27 263.68 1.82 263.68 1.36 263.68C1.06 263.22 0.75 262.76 0.3 262.16C0.15 261.24 0.3 260.18 0.91 258.96C0.6 258.81 0.3 258.5 -0.01 258.35C0.45 257.43 0.45 256.37 -0.16 255C0.15 254.69 0.6 254.39 0.91 254.09C1.06 253.93 1.36 254.09 1.51 253.93C0.3 251.95 2.73 251.5 3.03 250.13C2.88 249.97 2.73 249.67 2.58 249.52C2.88 249.21 3.03 249.06 3.34 248.76C3.19 248.6 3.19 248.45 2.88 248.15C3.03 247.54 4.1 246.78 3.03 246.01C3.19 245.86 3.34 245.71 3.49 245.56C3.34 245.25 3.19 244.8 3.03 244.49C3.19 244.34 3.34 244.19 3.49 244.04C3.34 243.58 3.03 243.12 2.88 242.66C2.88 241.75 3.03 240.84 2.73 239.92C2.43 239.01 2.43 238.25 3.03 237.18C1.97 236.12 3.79 234.9 3.03 233.22C3.03 233.22 2.73 232.92 2.43 232.77C2.58 232.01 3.03 231.24 2.88 230.94C2.43 230.18 3.03 229.87 3.03 229.26C3.19 227.59 2.73 225.91 2.73 224.24C2.73 223.63 3.03 223.02 3.03 222.56C3.03 221.96 2.58 221.5 2.43 220.89C2.43 220.59 2.43 220.13 2.58 219.82C3.03 218.91 3.03 218.15 2.58 217.39C2.73 216.63 2.88 216.02 2.88 215.26C2.88 214.65 2.58 213.89 2.58 213.28C2.43 212.67 2.88 211.91 2.27 211.3C2.43 211.14 2.58 210.99 2.73 210.84C1.97 209.16 2.73 207.34 2.43 205.66C2.27 205.36 1.97 205.21 1.67 204.75C1.97 204.6 2.43 204.29 2.73 204.14C2.27 203.84 2.12 203.53 1.67 203.07C1.82 202.31 1.97 201.55 2.12 200.49C1.51 197.29 2.12 193.48 1.06 189.83C1.97 188.91 1.06 188 0.75 186.93C1.67 185.87 1.97 184.5 0.91 183.13L0.91 182.97C1.67 182.37 1.21 181.3 1.36 180.54C0.3 179.47 1.67 177.8 0.6 176.73C1.51 175.82 1.51 174.75 1.21 173.84C0.91 173.08 1.06 172.32 0.91 171.55C0.91 170.79 0.45 169.88 0.75 169.27C1.21 168.36 0.15 167.75 0.6 166.83C0.91 166.07 0.75 165.16 0.75 164.25C0.75 163.94 0.45 163.79 0.3 163.48C0.45 163.33 0.6 163.03 0.91 162.72C0.6 161.81 0.15 160.74 1.06 159.68C0.75 159.52 0.6 159.52 0.3 159.37C0.45 158.76 0.6 158.31 0.91 157.7C0.6 157.39 0.3 157.09 -0.01 156.94C0.45 156.33 0.75 155.72 1.06 155.26C0.91 154.35 0.15 153.28 1.06 152.37C1.06 152.22 1.06 152.06 0.91 151.91C0.45 150.39 0.15 148.87 0.3 147.19C1.06 146.43 -0.01 145.82 0.3 144.91C0.6 144.14 0.45 143.23 0.3 142.32C0.3 142.01 0.3 141.86 0.3 141.56C0.3 139.88 0.15 138.21 -0.31 136.53L-0.31 136.38C-0.16 136.23 -0.01 136.07 0.15 135.92C-0.01 135.16 -0.77 134.4 0.3 133.79C0.15 133.49 -0.16 133.18 -0.16 132.88C-0.16 131.96 -0.31 130.9 -0.01 130.14C0.3 129.37 -0.77 128.61 -0.01 127.85C-0.92 125.72 0.3 123.59 -0.46 121.46C0.15 120.85 -0.46 120.24 -0.46 119.63C-0.46 119.32 -0.16 118.87 -0.01 118.41C-0.01 118.26 -0.16 118.11 -0.31 117.8C-0.16 117.65 -0.01 117.5 0.15 117.35C-0.01 117.19 -0.01 117.19 -0.16 117.04C-0.01 116.89 0.15 116.74 0.15 116.58C-0.01 115.82 -0.01 115.06 -0.16 114.45C-0.16 113.69 -0.31 113.08 -0.31 112.32C-0.31 111.71 -0.01 111.1 0.15 110.34C-0.16 110.19 -0.46 110.19 -0.77 110.04C-0.61 109.88 -0.46 109.73 -0.31 109.43C-0.16 108.67 -0.61 107.75 0.15 106.99C-0.61 106.23 0.3 105.62 0.3 105.01C0.3 103.95 0.3 102.88 -0.46 102.12C0.15 101.05 0.15 99.83 -0.01 98.46C-0.16 97.85 -0.61 97.09 0.15 96.48C-0.01 95.42 -0.31 94.35 -0.46 92.98C-0.31 92.68 -0.01 92.22 0.3 91.61C0.15 91.31 0.15 91 -0.01 90.7C-0.16 90.39 -0.46 90.24 -0.31 89.94C-0.16 89.17 0.3 88.26 0.15 87.65C-0.16 86.89 -0.16 86.13 -0.01 85.37C-0.01 85.22 0.3 84.91 0.45 84.76C0.3 84.45 0.15 84.3 -0.16 84C0.45 83.24 0.3 82.47 -0.01 81.41C-0.31 80.5 0.3 79.43 -0.46 78.52C-0.31 78.21 -0.16 78.06 0.15 77.75C-0.01 77.45 -0.16 76.99 -0.31 76.69C-0.16 76.38 -0.01 76.23 0.15 75.93C-0.46 74.56 -0.31 73.8 0.15 72.73C-0.01 72.12 -0.16 71.82 -0.16 71.36C-0.01 68.01 -0.61 64.51 -0.16 61.16C-0.16 60.55 -0.46 59.94 -0.46 59.33C-0.46 58.72 -0.46 57.96 -0.31 57.35C-0.31 56.89 -0.01 56.59 0.15 56.13C-0.46 55.22 -0.46 54.15 0.3 53.24C-0.16 51.72 -0.92 50.35 -0.01 48.67C-0.16 48.37 -0.46 47.91 -0.61 47.3C-0.01 46.69 -0.16 45.78 -0.31 45.02C-0.31 44.71 -0.61 44.25 -0.46 44.25C0.45 43.8 -0.92 43.34 -0.31 42.88C0.6 42.12 -0.16 41.21 -0.31 40.45C-0.31 39.69 -0.01 38.77 -0.61 38.16C-0.46 37.55 -0.31 36.95 -0.16 36.34C-0.01 33.44 -0.01 30.55 0.3 27.66C0.3 26.9 0.15 25.98 0.75 25.22C1.06 24.92 0.75 24 0.75 23.39C0.75 22.63 0.45 21.87 0.6 21.26C1.21 19.74 1.21 18.22 0.75 16.69C0.6 16.08 1.06 15.32 0.3 14.87C0.6 14.71 0.91 14.71 1.06 14.56C0.6 13.19 0.75 11.67 1.21 10.3C1.36 9.84 0.45 9.38 1.21 8.93C1.67 8.62 1.51 8.17 1.21 7.56C0.45 8.01 0.45 7.4 0.45 6.8C0.3 6.19 0.3 5.73 0.15 5.12C1.67 4.51 0.91 2.23 2.88 1.92C2.88 1.62 2.88 1.31 2.88 1.01C3.34 0.55 3.64 0.25 4.1 -0.06C4.25 0.25 4.4 0.55 4.55 0.86C4.71 0.55 4.86 0.25 5.01 -0.21C5.62 0.1 6.07 0.4 6.83 0.86C6.99 0.55 7.29 0.25 7.44 -0.06C8.05 0.25 8.66 0.4 9.12 0.7C9.27 0.55 9.57 0.4 9.87 0.25C10.18 0.55 10.64 0.86 11.09 1.16C11.09 1.01 11.24 0.7 11.4 0.55C12 0.4 12.61 0.25 13.52 -0.06C13.37 0.25 13.22 0.55 13.07 1.01C13.52 0.86 13.83 0.7 14.28 0.55C14.44 0.86 14.74 1.01 15.04 1.47C15.2 1.16 15.2 1.01 15.35 0.7C15.96 1.01 16.56 1.47 17.17 0.55C17.48 0.86 17.63 1.16 17.78 1.47C17.63 1.62 17.48 1.62 17.48 1.77L17.63 1.92C17.78 1.77 17.78 1.77 17.93 1.62C18.39 1.62 18.84 1.62 19.45 1.62C19.45 1.92 19.6 2.38 19.6 2.84C20.21 3.14 20.97 2.68 21.43 3.45C21.88 2.68 22.64 3.29 23.1 3.14C23.4 3.45 23.71 3.75 24.01 4.05C24.32 4.05 24.62 4.05 25.08 4.05C26.6 4.05 27.66 4.97 28.88 5.73C29.03 6.64 29.79 6.64 30.4 7.1C30.55 7.56 30.7 8.17 31.01 8.78C30.85 8.93 30.7 8.93 30.7 9.08L30.85 9.23C31.01 9.08 31.01 9.08 31.16 8.93C31.31 9.08 31.46 9.08 31.46 9.23C31.46 9.99 31.46 10.6 31.46 11.21C31.92 11.52 32.37 11.82 32.68 12.13C32.37 12.73 32.22 14.1 32.53 14.71C32.83 15.78 33.13 16.85 33.29 17.76C33.29 18.06 32.98 18.37 32.98 18.67C33.13 18.83 33.44 19.13 33.74 19.43C33.59 21.57 33.59 23.7 33.44 25.98C33.74 26.13 34.2 26.29 34.2 26.44C34.2 27.2 34.2 27.5 34.2 27.81C34.5 27.96 34.81 27.96 34.96 28.11C34.5 29.48 34.5 29.48 34.81 31.01C34.5 31.46 34.2 31.92 33.74 32.83C33.89 34.05 34.2 35.58 34.35 37.1C34.35 37.71 34.5 38.47 34.2 39.08C33.74 39.99 33.74 40.9 34.35 41.97C34.05 42.28 33.74 42.58 33.29 43.04C34.2 44.1 33.74 45.62 34.5 46.84C33.29 47.91 34.81 48.82 34.5 49.89C34.5 50.04 34.81 50.35 34.96 50.5C34.5 50.95 34.2 51.26 33.59 51.87C34.05 52.02 34.5 52.17 35.11 52.32C34.96 52.48 34.81 52.63 34.65 52.78C34.96 53.85 34.2 55.07 35.11 55.98L35.11 56.13C34.35 58.11 35.26 60.09 34.96 62.07C34.81 62.68 34.65 63.44 35.26 64.05C35.41 64.2 35.26 64.66 35.11 64.96C34.65 65.88 34.65 66.79 34.96 67.7C35.26 68.62 35.26 69.84 35.41 70.75C35.41 71.05 35.11 71.51 35.11 71.66C35.26 72.73 35.26 73.49 35.41 74.56C35.57 74.71 35.87 74.86 36.17 75.17C35.87 75.47 35.72 75.77 35.57 76.08C35.72 76.38 35.87 76.69 36.02 76.99C35.87 77.15 35.72 77.45 35.57 77.45C35.57 78.52 36.78 79.43 35.87 80.5C36.63 81.26 35.41 82.02 35.72 82.63C35.87 83.08 36.17 83.39 36.33 83.85C35.87 84.61 35.72 85.37 36.02 86.13C36.48 87.5 36.63 88.72 36.63 90.09C36.63 91.15 36.93 92.07 37.24 93.13C37.09 93.44 36.78 93.74 36.48 94.35C36.63 94.5 36.78 94.81 36.78 94.81C36.17 95.57 36.93 96.48 36.78 97.25C36.63 98.16 37.24 98.92 37.39 99.83C37.54 100.6 37.85 101.36 37.54 102.27C37.39 102.88 37.54 103.79 37.69 104.86C37.85 104.71 37.69 105.01 37.39 105.32C37.54 105.47 37.69 105.77 37.85 106.23C37.69 107.3 37.54 108.51 38.61 109.58C38.3 109.73 38.15 110.04 38 110.19C38.15 111.86 38.15 113.54 39.21 115.21C38.61 115.37 38.3 115.52 38.15 115.52C38.15 116.89 38 117.8 38 118.72C38.3 118.72 38.76 118.72 39.21 118.72C39.06 119.17 38.91 119.48 38.76 119.93C38.76 119.93 38.91 120.09 39.06 120.39C38.61 120.39 38.15 120.54 37.85 120.54C37.69 120.85 37.69 121 37.54 121.3C37.09 121.3 36.78 121.3 36.48 121.3C36.33 122.37 36.17 123.28 36.02 124.65C36.02 124.65 36.33 125.26 36.48 125.72C36.63 125.72 36.78 125.72 37.09 125.72C37.09 124.65 37.24 123.44 37.24 122.37C37.39 122.37 37.39 122.37 37.54 122.37C37.69 122.67 37.69 122.83 38 123.44C38.15 122.67 38.3 122.07 38.3 121.46C38.61 121.76 38.76 121.91 38.91 122.22C39.06 123.13 38.61 124.2 39.21 125.26C39.37 125.42 39.06 125.87 38.91 126.18C39.06 126.33 39.37 126.63 39.82 127.24C39.52 127.4 39.06 127.7 38.45 128C39.06 128.16 39.21 128.16 39.52 128.31C39.52 129.07 39.37 129.83 39.52 130.59C39.52 131.35 39.82 131.96 40.13 133.03C40.58 132.42 40.89 132.12 41.19 131.66C41.04 131.51 40.89 131.35 40.73 131.05C40.89 130.75 41.04 130.44 41.19 130.29C40.89 130.14 40.73 130.14 40.28 129.98C40.58 129.53 41.04 129.07 41.34 128.61C41.19 127.7 41.8 126.63 41.19 125.87C41.34 124.81 41.65 123.74 41.5 122.83C41.34 122.22 41.8 121.61 41.19 121.15C41.65 120.7 41.5 119.93 41.8 119.48C42.25 118.56 42.25 117.65 42.25 116.89C41.95 116.43 41.8 115.82 41.34 115.21C41.95 114.45 42.1 113.54 41.5 112.62C41.65 112.47 41.8 112.32 41.8 112.17C42.1 111.71 42.1 111.25 41.8 110.8C41.65 110.65 42.1 110.19 42.1 109.73C42.1 109.28 42.1 108.82 41.95 108.36C41.65 106.99 41.65 105.77 42.26 104.55C42.1 104.4 42.1 104.4 41.95 104.25C42.26 104.1 42.41 104.1 42.86 103.95C42.86 103.18 42.86 102.27 43.02 101.51C43.17 100.75 43.47 99.99 43.78 98.92C43.62 98.77 43.32 98.62 42.86 98.46C43.17 97.7 43.32 97.25 43.47 96.64C43.02 96.18 43.32 95.57 43.32 94.96C43.32 94.35 43.32 93.74 43.62 93.29C43.93 92.68 43.47 91.92 44.23 91.31C43.17 90.7 44.38 89.94 44.08 89.48C43.47 88.57 44.54 87.96 44.54 87.2C44.38 86.43 44.23 85.67 44.99 85.06C44.84 84.91 44.69 84.76 44.54 84.61C45.75 82.17 44.38 79.73 44.69 77.15C44.54 77.15 44.23 76.84 43.93 76.69C44.08 76.23 44.23 76.08 44.38 75.77C44.54 75.47 44.54 75.32 44.54 74.71C44.84 75.77 45.14 76.54 45.3 77.15C45.45 76.38 46.06 75.47 45.3 74.71C45.45 74.56 45.75 74.4 45.75 74.25C46.06 73.19 45.45 72.12 46.21 71.21C45.3 70.45 46.36 69.07 45.6 68.31C46.21 67.1 46.97 65.88 46.21 64.35C46.36 63.9 46.66 63.29 46.97 62.53C46.82 62.37 46.36 62.22 46.06 62.07C46.06 60.24 46.21 58.57 46.21 56.89C46.21 56.74 46.06 56.74 45.9 56.44C46.21 56.44 46.51 56.28 46.82 56.28C46.82 56.89 46.82 57.5 46.82 58.11C47.12 57.96 47.27 57.81 47.27 57.81C47.27 57.05 47.27 56.28 47.42 55.37C47.42 54.91 47.73 54.61 47.88 54.15C47.58 53.39 47.12 52.32 48.03 51.41C47.88 51.41 47.73 51.26 47.58 51.26C47.42 51.26 47.42 51.11 47.12 50.95C47.42 50.5 47.73 50.04 48.18 49.58C48.03 49.13 47.88 48.52 47.73 47.91C47.73 47.3 47.73 46.69 47.73 45.47C47.42 46.23 47.27 46.54 47.27 46.84C46.97 46.54 46.66 46.39 46.51 46.23C46.66 45.93 46.82 45.62 46.82 45.62C48.18 46.08 48.18 44.25 49.25 44.25C50.62 42.88 51.07 42.58 52.74 42.43C52.9 42.43 53.05 42.43 53.2 42.43C53.35 42.28 53.5 42.12 53.66 42.12C54.42 42.43 55.02 43.04 55.63 42.43C56.7 42.73 57.46 42.88 58.83 43.19C59.43 42.88 60.35 42.43 61.41 42.12C61.87 41.97 62.47 42.28 63.08 42.58C63.23 42.58 63.39 42.43 63.69 42.28C63.84 42.58 63.84 42.73 63.99 43.04C64.15 42.88 64.45 42.73 64.6 42.73C65.67 43.34 66.73 43.49 67.95 42.88C68.55 43.19 69.31 43.49 69.92 43.8C70.07 43.65 70.38 43.49 70.53 43.34C70.68 43.34 72.81 43.65 72.96 43.65C73.72 43.65 74.79 43.34 75.24 43.65C75.85 44.1 76.61 43.8 77.22 44.25C77.07 44.56 76.92 44.71 76.76 45.02C76.61 45.17 76.46 45.17 76.46 45.32L76.61 45.47C76.76 45.32 76.76 45.32 76.92 45.17C77.52 45.32 77.98 44.86 78.28 44.56C79.5 44.71 80.87 44.25 82.08 44.71C82.08 44.86 82.08 45.17 82.24 45.32C82.54 45.17 83 45.02 83.3 45.02C83.76 45.02 84.36 45.02 84.67 45.17C85.12 45.47 85.43 45.47 85.73 45.02C86.34 45.47 86.95 45.78 87.56 46.23C88.01 45.93 88.77 45.78 88.92 45.02C89.23 45.02 89.53 45.02 89.84 45.02C89.84 45.47 89.99 45.78 89.99 46.23C90.29 46.23 90.6 46.23 91.21 46.23C91.21 46.23 91.51 45.93 91.81 45.47C91.97 45.78 92.12 45.78 92.27 46.08C92.57 45.93 92.73 45.62 92.88 45.47C93.03 45.32 93.03 45.02 93.18 44.71C93.94 45.17 94.4 45.47 95.01 45.93C94.85 46.23 94.7 46.39 94.55 46.84C95.31 46.69 95.92 46.54 96.53 46.39C96.83 46.69 97.13 47 97.44 47.3C98.2 47.15 98.81 47 99.41 46.84C100.78 48.06 100.48 49.74 101.24 51.26C100.93 52.02 100.17 52.93 101.24 53.85C100.93 54.3 100.63 54.91 100.33 55.52C100.63 55.67 100.93 55.98 100.93 55.98C100.78 56.74 100.63 57.2 100.63 57.65C100.48 58.11 100.48 58.42 100.33 59.02C100.48 59.18 100.63 59.63 100.93 60.24C100.48 61 100.02 61.92 100.02 62.98C99.87 63.14 99.72 63.14 99.72 63.29L99.87 63.44C100.02 63.29 100.02 63.29 100.17 63.14C100.78 63.59 100.93 64.05 100.93 64.81C100.78 66.49 101.54 68.01 101.24 69.68C101.24 69.84 101.39 70.14 101.54 70.45C101.39 70.6 101.24 70.75 101.09 70.9C101.85 72.27 101.39 73.64 101.39 75.01C101.24 76.54 101.39 77.75 102.15 79.43C101.85 79.73 101.54 80.04 101.24 80.34C101.39 81.71 102 83.08 101.09 84.45C101.24 84.91 102 85.52 100.93 86.13C101.24 86.43 101.54 86.74 102 87.2C101.69 87.5 101.39 87.8 101.09 88.26C101.39 88.57 101.54 88.87 101.85 89.17C101.54 90.24 100.78 91.46 101.39 92.52C101.85 93.44 101.54 94.2 101.54 94.96C101.54 95.11 101.39 95.27 101.09 95.57C102.3 96.03 101.54 97.4 102.15 98.46C101.85 98.77 101.24 99.07 100.93 99.53C100.63 100.75 102.15 100.75 101.85 102.27C101.54 103.03 101.39 103.64 102.15 105.16C101.69 105.01 101.39 104.86 100.93 104.71C100.93 105.16 100.78 105.62 100.78 106.23C101.09 106.38 101.39 106.53 101.54 106.53C101.24 106.99 100.93 107.6 100.63 108.21C101.09 108.51 101.54 108.97 102 109.27C101.69 109.43 101.39 109.43 101.09 109.58C101.09 110.04 101.09 110.49 101.09 110.95C101.39 111.25 101.54 111.41 101.85 111.86C101.54 112.02 101.09 112.32 100.78 112.47C100.93 113.84 102.76 114 102.3 115.52C102 115.52 101.85 115.52 101.39 115.52L101.54 115.52C101.54 115.21 101.39 114.91 101.39 114.6C101.24 114.6 101.24 114.6 101.09 114.6C101.09 114.91 101.09 115.21 101.24 115.37C101.24 115.82 100.93 116.43 100.93 116.89C100.93 117.35 101.09 117.95 101.69 118.41C101.69 117.8 101.85 117.04 102 116.28C102.15 116.28 102.45 116.28 102.76 116.13C102.61 116.58 102.45 116.89 102.45 117.35C103.21 117.8 102.3 119.02 103.06 119.48C102.15 120.7 103.82 122.22 102.61 123.28C102.76 123.74 103.06 124.2 103.37 124.81C103.37 125.57 103.06 126.63 103.67 127.4C103.52 128 103.21 128.46 103.06 128.92C103.37 129.07 103.52 129.07 103.97 129.22C103.82 129.37 103.82 129.53 103.67 129.83C103.82 130.29 103.82 131.05 103.97 131.66C104.13 132.27 104.13 132.88 104.13 133.49C104.13 134.1 103.67 135.01 103.82 135.31C104.28 136.07 103.82 136.84 104.13 137.29C104.43 137.9 104.43 138.51 104.43 139.12C104.43 139.88 104.28 140.49 104.43 141.25C104.43 141.86 104.74 142.62 104.74 143.23C104.74 143.84 104.58 144.6 104.74 145.21C105.04 145.82 105.19 146.43 104.89 147.19C104.58 147.34 104.43 147.34 103.97 147.5C104.28 147.8 104.58 148.1 104.89 148.56C104.89 148.41 104.89 148.56 104.89 148.71C104.89 149.63 104.74 150.54 105.19 151.45C105.34 151.76 105.04 152.22 104.89 152.52C105.19 153.43 105.5 154.5 105.8 155.57C104.58 157.7 106.1 160.13 105.5 162.57C105.8 162.87 106.1 163.18 106.56 163.48C105.95 164.09 105.5 164.7 104.89 165.46C104.74 165.92 106.1 165.62 105.8 166.38C106.41 166.83 105.95 167.44 106.26 167.9C106.56 168.51 106.26 168.81 106.26 169.27C106.1 169.88 106.1 170.49 106.41 171.1C106.71 171.86 106.41 172.92 106.41 173.69C106.86 173.84 107.02 173.99 107.47 174.14C107.17 174.75 106.71 175.21 106.41 175.67C105.95 176.12 105.95 176.12 106.26 176.88C106.26 176.43 106.26 175.97 106.41 175.67C106.71 175.67 106.86 175.67 107.17 175.67C107.17 177.19 107.32 178.56 107.93 180.08C107.93 180.23 107.93 180.69 107.93 180.69C107.17 180.99 107.93 181.45 107.78 181.76C107.32 182.21 107.93 182.52 108.08 182.97C108.38 184.04 108.38 184.04 107.93 185.11C108.23 185.87 108.69 186.63 108.99 187.54C108.84 187.85 108.69 188.3 108.54 188.76C108.38 189.07 108.38 189.52 108.23 189.98C108.54 190.59 108.84 191.35 109.14 192.11C108.99 192.26 108.84 192.57 108.84 192.87C108.99 194.09 108.99 195.46 109.6 196.68C110.21 197.9 110.51 199.12 110.36 200.49C110.21 201.4 110.21 202.16 110.21 203.07C110.97 203.84 110.97 204.6 110.97 205.66C110.97 206.12 111.12 206.42 111.12 206.88C111.12 207.19 110.82 207.64 110.97 207.95C111.27 208.71 111.58 209.62 112.03 210.54C112.03 210.54 111.73 210.84 111.58 211.14C111.88 211.91 112.03 212.67 112.34 213.58C112.34 213.89 111.27 214.19 112.18 214.8C112.79 215.26 111.58 215.56 112.18 216.17C112.49 216.47 112.18 217.24 112.34 218C112.49 218.15 112.94 218.45 113.1 218.61C112.79 220.43 113.25 222.26 113.55 223.94C112.79 224.7 113.7 225.46 113.55 226.37C113.4 227.74 113.55 229.26 113.86 230.48C114.01 231.24 114.01 231.85 114.16 232.46C114.16 233.22 114.16 233.99 114.62 234.59C114.92 235.2 114.62 235.66 114.92 236.27C115.22 236.73 114.77 237.34 114.16 237.64C113.86 235.96 113.55 234.44 113.25 232.61C112.49 233.83 113.25 234.75 113.25 235.81C113.25 236.88 113.25 237.94 114.01 238.71C113.55 239.16 113.4 239.62 113.7 240.23C114.31 241.45 114.31 242.66 114.31 243.88C114.31 244.95 114.62 245.86 114.77 246.93C114.77 247.08 114.62 247.39 114.62 247.69C115.68 248.91 115.22 250.43 115.22 251.95C115.53 252.11 115.83 252.26 115.83 252.26C116.29 254.54 116.74 256.52 116.9 258.35C117.05 260.33 117.81 262.16 117.81 264.13C118.11 264.44 118.42 264.74 118.72 265.2C118.57 265.35 118.42 209.57 118.26 209.57C117.81 209.87 117.35 210.33 116.9 210.63C116.59 210.33 115.98 210.02 115.53 209.72C116.29 208.65 115.38 261.24 114.16 257.89C114.31 257.74 114.46 257.59 114.62 257.43C114.31 257.13 114.01 256.82 113.7 256.37C113.86 255.91 114.01 255.46 114.31 254.69C114.31 254.39 113.7 253.48 112.79 253.02C112.79 252.41 112.79 251.8 112.94 250.58C113.25 251.19 113.25 251.5 113.55 252.11C113.7 251.65 113.86 251.19 113.7 251.04C113.55 249.67 113.25 248.45 112.79 246.62C112.49 248.3 112.49 248.3 112.94 249.06C112.64 249.06 112.49 249.21 112.03 249.21C112.03 248.6 112.18 248.15 112.03 247.69C112.03 247.23 111.73 246.78 111.42 246.32C112.03 246.32 112.49 246.17 112.79 246.17C113.4 245.56 112.34 244.95 113.1 244.19C112.64 244.04 112.18 244.04 111.88 244.04C112.03 243.58 112.18 242.97 112.34 242.21C111.73 242.51 111.42 242.66 111.12 242.66C111.12 242.66 111.12 242.66 110.97 242.66C110.82 241.75 110.51 240.69 110.66 239.77C110.82 238.71 110.36 237.79 110.21 236.73C110.06 235.96 109.75 235.2 109.6 234.44C109.6 233.99 109.9 233.53 110.06 233.07C109.75 232.77 109.45 232.31 109.14 232.01C109.3 231.7 109.45 231.4 109.6 231.09C109.6 230.33 108.69 230.03 109.14 228.96C109.45 228.35 108.84 227.44 108.69 226.98C108.84 226.22 108.99 225.61 108.99 225C108.69 223.33 107.78 221.65 108.08 219.82C108.08 219.37 107.62 218.91 108.08 218.45C108.23 218.15 107.93 217.39 107.78 216.93C107.62 216.32 107.62 215.71 107.32 215.1C106.56 213.89 107.02 212.67 107.32 211.45C107.17 211.45 107.02 211.45 106.71 211.3C106.86 210.99 106.86 210.69 107.02 210.23C106.86 210.08 106.56 209.77 106.1 209.47C105.8 210.23 105.65 210.69 105.34 211.3C105.5 211.3 105.8 211.45 106.1 211.6C106.1 212.06 105.95 212.67 106.1 213.28C106.1 213.89 105.8 214.65 106.41 215.1C106.1 215.56 105.8 215.86 106.41 216.47C106.71 216.93 106.71 217.69 106.86 218.15C107.02 218.61 107.02 219.21 107.17 219.82C107.02 219.98 106.86 220.13 106.71 220.43C107.02 220.89 107.17 221.5 107.47 222.11C106.86 222.41 107.47 222.87 107.47 223.17C107.47 223.78 107.32 224.24 107.78 224.7C108.08 225 107.02 225.31 107.62 225.91C107.93 226.07 107.78 226.83 107.93 227.44C107.93 227.44 107.78 227.59 107.62 227.74C107.93 229.11 108.23 230.48 108.69 231.85C108.54 232.01 108.23 232.31 107.93 232.61C108.23 232.77 108.38 232.77 108.69 232.92C109.3 234.59 108.99 236.42 109.45 238.25C109.6 238.55 109.3 239.01 109.14 239.31C109.3 239.31 109.45 239.47 109.75 239.47C109.9 240.23 109.75 240.99 110.06 241.6C110.51 242.51 109.45 242.97 109.6 243.73C109.3 243.58 108.84 243.43 108.54 243.12C107.93 244.49 109.14 245.71 108.54 247.08C108.99 247.08 109.3 247.08 109.6 247.08C109.45 247.23 109.3 247.54 109.14 247.69C109.3 247.84 109.3 247.84 109.45 247.99C109.3 248.15 109.14 248.3 109.14 248.45C109.14 248.6 109.14 248.76 108.99 249.06C109.3 249.21 109.6 249.36 109.75 249.52C109.75 249.36 109.9 248.91 109.9 248.45C110.21 248.91 110.51 249.21 110.97 249.97C110.97 250.58 110.97 251.65 111.73 252.56C111.58 252.71 111.42 252.87 111.42 253.02C112.18 255.76 112.18 255.76 111.73 256.52C112.34 257.28 112.34 258.04 112.49 258.96C112.79 260.94 113.25 262.92 113.7 264.9C114.31 265.2 113.4 209.41 113.7 209.72C114.01 210.02 114.01 210.63 114.16 211.09C114.31 211.39 114.62 211.7 114.92 212.15C114.01 212.92 113.86 211.7 112.94 211.55C113.86 213.07 112.94 214.9 114.31 216.27C114.31 216.72 114.31 217.33 114.16 217.94C114.01 218.4 113.7 218.85 113.4 219.46C113.1 218.85 112.94 218.25 112.49 217.48C112.34 218.4 112.34 219.16 112.34 219.77C113.25 220.07 113.4 220.83 113.7 221.6C113.1 221.44 112.64 221.29 112.03 220.99C111.88 220.53 111.73 219.77 110.82 219.77C110.66 220.07 110.66 220.53 110.66 220.83C110.21 221.14 109.6 221.44 108.99 221.9C108.99 221.6 108.99 221.14 108.99 220.68C108.08 220.83 107.47 219.77 106.26 220.23C106.56 220.38 106.86 220.53 107.32 220.68C106.71 221.29 106.26 221.9 105.5 222.66C105.5 222.66 105.5 222.97 105.5 223.12C104.89 223.42 104.43 223.88 103.82 224.18C103.82 223.42 103.82 222.81 103.97 222.2C101.85 220.38 101.39 219.92 101.09 219.31C101.09 219.16 100.93 219.01 100.93 218.85L100.78 219.01C100.78 219.16 100.93 219.31 101.09 219.31ZM98.65 205.51C98.81 205.51 98.96 205.36 99.11 205.36L98.96 205.21C98.81 205.21 98.65 205.36 98.65 205.51C98.5 205.66 98.35 205.66 98.35 205.82L98.5 205.97C98.5 205.82 98.65 205.66 98.65 205.51ZM33.44 147.34C33.29 147.34 33.13 147.5 32.98 147.5L33.13 147.65C33.29 147.65 33.44 147.5 33.44 147.34C33.59 147.19 33.74 147.19 33.74 147.04L33.59 146.89C33.59 147.04 33.44 147.19 33.44 147.34ZM103.82 215.71C103.82 215.56 103.67 215.41 103.67 215.26L103.52 215.41C103.67 215.56 103.67 215.56 103.82 215.71C103.97 215.86 103.97 216.02 104.13 216.02L104.28 215.86C104.13 215.86 103.97 215.71 103.82 215.71ZM38.45 130.14C38.45 130.29 38.61 130.44 38.61 130.59L38.76 130.44C38.76 130.29 38.61 130.29 38.45 130.14C38.3 129.98 38.3 129.83 38.15 129.83L38 129.98C38.15 129.98 38.3 130.14 38.45 130.14ZM93.79 91.61C93.64 91.61 93.49 91.76 93.33 91.76L93.49 91.92C93.49 91.92 93.64 91.76 93.79 91.61C93.94 91.46 94.09 91.46 94.09 91.31L93.94 91.15C93.94 91.31 93.79 91.46 93.79 91.61ZM88.77 238.4C88.77 238.55 88.92 238.71 88.92 238.86L89.08 238.71C88.92 238.71 88.77 238.55 88.77 238.4C88.62 238.25 88.62 238.1 88.47 238.1L88.32 238.25C88.47 238.4 88.47 238.4 88.77 238.4ZM101.54 200.03C101.54 199.88 101.54 199.72 101.69 199.72C102.15 199.27 102.3 198.81 101.85 198.35C101.69 198.35 101.39 198.51 101.09 198.51C101.24 198.96 101.39 199.27 101.54 199.72C101.39 199.72 101.24 199.88 101.24 199.88C101.24 199.72 101.39 199.88 101.54 200.03C101.54 200.18 101.69 200.33 101.85 200.49L102 200.33C101.69 200.18 101.69 200.03 101.54 200.03ZM26.29 154.96C26.14 154.96 25.99 155.11 25.84 155.11L25.99 155.26C26.14 155.11 26.14 155.11 26.29 154.5C26.14 154.65 26.14 154.8 26.29 154.96C26.6 154.96 26.75 154.8 27.05 154.8C27.05 154.65 27.05 154.65 27.05 154.5C26.75 154.5 26.45 154.5 26.29 154.96ZM101.85 203.84C102 203.84 102.15 203.84 102.15 203.84C102.15 203.53 102 203.23 102 202.92C101.85 202.92 101.85 202.92 101.69 202.92C101.69 203.23 101.69 203.53 102 203.68C102.15 203.84 102.3 203.99 102.45 203.99C102.45 204.6 102.45 204.9 102.45 205.21C103.06 205.51 103.67 205.82 104.28 206.27C104.28 206.73 104.28 207.19 104.28 207.79C104.58 207.79 104.74 207.79 105.04 207.79C105.04 207.03 105.34 206.12 105.04 205.51C104.74 204.75 105.5 204.14 105.19 203.53C105.19 203.38 105.19 203.07 105.04 202.92C104.13 201.09 104.13 199.12 103.67 197.29C103.37 196.22 103.21 195.16 103.37 194.09C103.52 193.18 103.21 192.57 102.76 191.81C102.61 191.81 102.45 191.96 102.15 191.96C102.3 192.11 102.45 192.26 102.61 192.42C102.45 192.87 102.15 193.48 102.15 193.94C102.15 194.55 102.76 195.16 102.76 195.77C102.76 196.37 102.45 197.14 102.91 197.74C103.52 198.81 103.06 200.03 103.52 201.09C103.67 201.4 103.21 201.86 103.06 202.16C103.52 203.23 103.52 203.23 103.21 204.75C103.06 204.6 102.91 204.44 102.61 204.29C102.45 204.14 102.3 203.99 101.85 203.84ZM95.31 92.07C95.16 92.07 95.01 92.07 95.01 92.07C95.01 92.37 95.16 92.68 95.16 92.98C95.31 92.98 95.31 92.98 95.46 92.98C95.46 92.68 95.46 92.37 95.01 92.22C95.01 92.22 95.01 92.22 95.16 92.07C95.01 91.92 95.01 91.76 94.85 91.76L94.7 91.92C94.7 91.92 94.85 92.07 95.31 92.07ZM103.21 239.01C102.91 239.31 102.76 239.47 102.3 239.92C102.91 239.92 103.06 239.92 103.52 239.77C103.52 239.47 103.37 239.16 103.06 239.01C103.06 239.01 103.06 239.01 103.21 238.86C103.06 238.71 103.06 238.55 102.91 238.55L102.76 238.71C102.61 238.86 102.76 239.01 103.21 239.01ZM87.4 230.64C87.56 230.64 87.71 230.64 87.71 230.64C87.71 230.18 87.56 229.72 87.56 229.42C87.25 229.57 87.25 229.72 87.25 230.03C87.25 230.33 87.25 230.48 88.01 230.79C87.86 230.79 87.71 230.79 87.71 230.79C87.71 231.09 87.86 231.4 87.86 231.7C88.01 231.7 88.01 231.7 88.16 231.7C88.01 231.24 88.01 230.94 87.4 230.64ZM109.9 213.73C110.06 213.73 110.21 213.58 110.36 213.58L110.21 213.43C110.21 213.43 110.06 213.58 109.9 213.73C109.45 214.34 109.45 214.34 109.9 215.1C109.9 214.49 109.9 214.19 109.9 213.73ZM103.97 166.68C103.97 167.59 104.13 167.9 104.13 168.51C104.43 168.36 104.74 168.2 105.04 168.05C104.74 167.59 104.43 167.29 103.97 167.14C103.97 167.14 103.97 167.14 104.13 166.99C103.97 166.83 103.97 166.68 103.82 166.68L103.67 166.83C103.82 166.99 103.97 166.99 103.97 166.68ZM100.33 183.43C99.87 184.04 99.72 184.5 99.26 184.95C99.72 184.95 100.02 185.11 100.33 185.11C100.33 184.5 100.33 184.19 99.57 183.74C99.72 183.74 99.87 183.74 99.87 183.74C99.87 183.43 99.72 183.13 99.72 182.82C99.57 182.82 99.57 182.82 99.41 182.82C99.57 183.28 99.57 183.58 100.33 183.43ZM108.54 213.98C108.84 214.74 108.99 215.2 109.3 215.96C109.6 214.9 109.45 214.29 108.54 213.98C108.69 214.13 108.69 214.13 108.69 213.98C108.54 213.83 108.54 213.68 108.38 213.68L108.23 213.83C108.38 213.83 108.54 213.98 108.54 213.98ZM89.84 221.35C89.84 221.65 89.84 222.26 89.84 223.02C90.29 222.56 90.44 222.26 90.9 221.96C90.44 221.65 90.14 221.5 89.84 221.19C89.84 221.04 89.84 220.89 89.84 220.74C90.6 219.67 90.44 219.37 89.08 219.06C89.08 219.37 89.08 219.67 89.08 219.98C89.08 219.98 89.08 219.98 88.92 219.82C88.77 219.98 88.77 219.98 88.62 220.13L88.77 220.28C88.92 220.13 88.92 220.13 89.08 219.82C89.38 220.13 89.68 220.43 89.84 220.74C89.68 220.74 89.53 220.89 89.53 220.89C89.53 221.04 89.68 221.04 89.84 221.35ZM107.62 240.99C107.47 240.99 107.32 241.14 107.17 241.14L107.32 241.29C107.47 241.29 107.62 241.14 107.62 240.99C108.69 240.08 107.47 239.47 107.47 238.71C107.17 238.71 107.02 238.86 106.71 238.86C107.02 239.62 107.32 240.38 107.62 240.99ZM95.31 206.27C95.16 205.51 95.01 204.9 94.85 204.29C95.01 204.14 95.16 203.99 95.31 203.84C95.16 203.68 95.16 203.68 95.01 203.53C94.7 203.68 94.25 203.99 93.94 204.14C94.09 204.44 94.25 204.75 94.4 204.9C94.25 205.21 94.09 205.36 93.94 205.66C94.4 205.82 94.7 206.12 95.46 205.97C95.01 206.58 94.85 207.03 94.4 207.49C94.85 207.49 95.16 207.64 95.46 207.64C95.61 207.03 95.46 206.58 95.31 206.27ZM82.69 234.54C82.84 234.54 83 234.39 83.15 234.39L83 234.23C82.84 234.39 82.69 234.54 82.69 234.54L82.54 234.39C82.39 234.69 82.24 235 82.08 235.45L81.93 235.3C81.93 235.91 81.93 236.67 81.78 237.28C82.08 237.28 82.24 237.28 82.54 237.28C82.54 236.37 82.54 235.45 82.69 234.54ZM93.18 95.42C93.18 95.27 93.18 95.11 93.18 95.11C92.88 95.11 92.57 95.27 92.27 95.27C92.27 95.42 92.27 95.42 92.27 95.57C92.57 95.57 92.88 95.57 92.57 94.5C93.03 94.81 93.33 95.11 93.94 95.57C94.09 95.11 94.09 94.81 94.09 94.5C94.25 94.2 94.4 93.89 94.4 93.74C94.09 93.59 93.79 93.44 93.33 93.13C93.33 93.29 93.33 93.59 93.18 93.74C93.03 93.74 92.88 93.89 93.18 95.42ZM93.33 244.19C92.88 245.1 92.27 245.86 93.18 246.78C93.18 246.78 93.33 246.93 93.49 246.93C93.64 246.78 93.94 246.47 94.25 246.32C94.09 246.01 93.94 245.71 93.79 245.56C93.94 245.41 94.09 245.25 94.09 245.1C93.94 244.8 93.64 244.64 93.18 244.49C93.18 244.34 93.18 244.34 93.33 244.19C93.18 244.19 93.18 244.04 93.03 243.88L92.88 244.04C92.88 244.19 93.03 244.19 93.33 244.19ZM93.03 235.66C93.18 235.66 93.33 235.51 93.49 235.51L93.33 235.36C93.18 235.51 93.18 235.51 93.18 235.81C92.57 235.51 92.12 235.36 91.36 235.05C91.51 235.36 91.51 235.51 91.51 235.66C91.51 235.81 91.66 235.96 91.66 236.27C91.66 236.42 91.66 236.73 91.66 236.88C91.66 237.03 91.81 237.18 91.81 237.34C92.27 237.34 92.57 237.34 93.03 237.34C92.88 236.88 92.73 236.57 92.57 236.27C92.88 236.12 93.03 235.96 93.03 235.66ZM88.47 194.85C88.01 195.46 87.86 195.77 87.71 196.07C87.86 196.53 88.16 196.98 88.32 197.44C88.92 197.44 89.68 197.44 90.29 197.44C90.14 196.98 90.14 196.83 89.99 196.68C89.53 196.68 89.08 196.68 88.47 196.68C88.47 196.22 88.32 195.77 87.71 195.46C87.86 195.46 88.01 195.46 88.01 195.46C88.01 195.16 87.86 194.85 87.86 194.55C87.71 194.55 87.71 194.55 87.56 194.55C87.86 194.55 87.86 194.85 88.47 194.85ZM100.17 164.25C99.26 165.31 99.41 166.53 99.41 167.59C100.33 168.2 99.57 169.12 100.02 169.88C100.33 170.34 100.17 170.64 100.78 170.79C100.48 169.73 100.48 169.57 100.93 168.81C100.63 167.29 100.48 165.77 99.72 164.4C100.02 164.09 100.17 163.94 100.33 163.79C100.02 163.33 99.87 162.72 99.57 162.42C99.41 162.27 99.11 162.27 98.65 162.27C98.96 163.03 99.11 163.48 99.41 163.94C99.41 164.09 99.57 164.25 100.17 164.25ZM88.01 209.01C88.16 209.77 88.47 210.38 88.62 211.3C88.92 210.99 89.08 210.84 89.23 210.69C88.62 209.77 89.08 208.86 88.92 207.95C88.47 207.34 88.16 206.73 87.71 205.97C87.86 205.66 88.01 205.36 88.16 205.05C87.86 204.6 87.71 204.44 87.56 203.99C87.25 204.6 87.1 205.05 86.8 205.36C87.1 206.12 87.25 206.73 87.4 207.03C87.25 207.79 87.25 208.4 87.1 208.86C87.56 209.01 87.71 209.01 88.01 209.01ZM92.42 232.61C92.12 232.61 91.81 232.61 91.51 232.61C91.51 232.92 91.51 233.22 91.51 233.38C91.81 233.38 91.97 233.38 92.27 233.38C92.27 233.07 92.27 232.77 92.12 230.03C91.81 230.79 93.33 231.4 92.42 232.31C92.73 233.07 93.03 233.99 93.18 234.75C93.33 232.77 94.4 230.79 92.88 229.11C92.27 229.26 91.66 229.42 91.05 229.57C91.36 230.64 91.51 231.4 91.66 232.16L91.81 232.16C91.97 231.4 91.97 230.79 92.42 232.61ZM93.79 100.29C93.64 100.75 93.18 101.36 93.33 101.51C93.79 102.27 93.49 103.18 93.64 104.25C93.94 104.25 94.25 104.1 94.55 104.1C94.4 103.64 94.25 103.34 93.94 103.03C94.4 102.88 94.7 102.73 95.31 102.42C95.01 103.34 94.85 103.79 94.55 104.4C94.85 104.71 95.16 105.01 95.61 105.32C94.55 105.92 95.16 106.69 95.31 107.3C94.4 108.36 95.61 109.12 95.61 110.04C95.77 109.12 96.07 108.36 95.46 107.45C95.77 107.3 96.07 107.14 96.37 106.99C95.92 106.08 95.92 106.08 96.53 105.01C96.22 104.71 95.92 104.55 95.77 104.4C95.92 103.64 95.92 103.34 95.92 102.88C95.92 102.58 95.61 102.42 95.61 102.12C95.61 99.68 95.46 97.4 95.46 94.96C95.46 94.5 95.46 94.05 95.46 93.59C95.31 93.59 95.31 93.59 95.16 93.59C94.85 94.2 94.55 94.96 94.25 95.57C94.4 95.87 94.7 96.18 94.85 96.33C94.25 97.7 94.25 99.07 94.7 100.44C94.25 100.44 93.94 100.44 93.33 100.44C93.64 99.83 93.94 99.38 93.94 98.77C93.94 98.31 93.64 97.7 93.49 97.25C93.33 97.85 93.64 98.46 93.49 98.77C93.49 99.38 93.18 99.68 93.79 100.29ZM84.06 230.88C84.67 230.43 84.36 229.21 85.58 228.9C85.88 228.14 86.19 227.23 86.49 226.47C86.64 226.16 86.64 225.71 86.49 225.25C86.49 224.79 86.19 224.34 86.04 223.88C84.67 224.03 83.3 224.79 83.15 225.4C83 225.86 82.84 226.47 82.69 227.08C83.3 227.53 82.69 228.45 82.84 229.21C83.15 229.97 82.24 230.58 82.69 231.49C83 232.1 82.69 233.02 82.69 234.23C83.45 233.02 83.91 232.25 84.36 231.34C84.36 231.34 84.36 231.19 84.06 230.88ZM101.69 184.8C102.3 183.58 102.45 183.43 102.15 182.37C102 181.91 102.3 181.45 102 180.84C101.69 180.39 101.54 179.47 101.69 179.32C102.61 178.56 101.54 178.25 101.54 177.64C101.54 176.73 101.39 175.67 101.24 174.75C101.09 173.69 100.93 172.77 100.78 171.55C100.33 171.86 100.02 172.16 99.57 172.32C99.87 172.62 100.17 172.92 100.33 173.23C100.02 173.84 99.87 174.45 99.57 174.9C99.87 175.36 100.17 175.82 100.17 176.27C100.63 178.1 100.48 179.93 100.78 181.76C100.93 183.28 101.24 184.65 101.69 186.02C101.69 186.17 101.85 186.17 102.15 186.32C102.3 186.17 102.45 186.02 102.45 185.87C102.15 185.26 101.85 184.95 101.69 184.8ZM93.18 106.53C93.33 107.45 93.94 108.21 93.64 108.82C93.49 109.43 93.33 109.88 93.64 110.49C93.94 111.1 93.64 111.86 93.79 112.47C94.25 113.69 94.09 115.06 93.49 116.13C93.64 116.89 93.79 117.65 93.94 118.56C94.4 118.26 94.7 117.95 95.16 117.8C94.55 116.43 94.7 115.06 94.7 113.84C94.85 112.93 94.4 112.17 94.09 111.56C94.25 111.1 94.4 110.65 94.4 110.34C94.4 110.04 93.79 109.73 94.4 109.27C94.55 109.12 94.09 108.51 94.09 108.06C94.09 107.6 94.09 107.14 94.09 106.69C94.09 106.23 94.09 105.92 93.94 105.01C93.79 105.77 93.49 106.08 93.18 106.53ZM98.5 135.16C98.35 134.7 98.2 134.4 98.2 134.1C98.05 133.79 98.05 133.49 97.89 133.18C98.96 132.27 98.05 131.66 97.44 131.05C98.5 130.29 97.44 129.53 97.44 128.92C97.59 128.61 97.89 128.46 98.05 128.31C97.59 127.24 97.59 127.24 98.05 126.18C97.44 125.72 97.74 124.65 96.53 124.65C96.83 125.42 96.98 126.18 97.29 126.79C96.68 127.55 96.53 128.46 96.98 129.37C97.13 129.68 97.29 129.98 97.13 130.14C96.68 131.05 96.98 131.66 97.29 132.57C97.59 133.18 97.59 133.94 96.98 134.4C97.29 135.01 97.44 135.62 97.74 136.23C97.74 136.23 97.89 136.23 98.2 136.38C98.05 135.92 97.89 135.62 97.89 135.31C97.89 135.16 98.05 135.16 98.5 135.16ZM95.92 132.88C95.92 132.42 96.07 131.51 95.92 131.51C94.85 131.05 96.37 130.29 95.61 129.83C96.07 129.22 96.07 128.77 95.77 128C95.31 127.09 95.46 125.87 95.31 124.81C95.31 124.65 95.16 124.5 95.16 124.35C94.55 124.2 93.94 124.35 93.64 124.96C94.09 125.26 94.4 125.42 94.55 125.57C95.61 127.09 93.49 128.16 94.7 129.37C94.4 130.59 95.31 131.81 95.01 133.03C95.46 132.88 95.61 132.88 95.92 132.88ZM106.71 190.59C106.56 192.57 106.56 194.09 106.56 195.77C106.71 195.92 107.02 196.22 107.47 196.53C107.47 197.14 107.47 197.74 107.32 198.66C107.62 198.05 107.93 197.74 108.08 197.44C107.32 196.98 107.78 196.53 108.08 196.22C107.32 194.85 107.32 193.33 107.17 191.96C107.02 191.5 107.02 191.35 106.71 190.59ZM98.35 152.98C98.5 153.59 98.5 154.04 98.5 154.5C98.5 154.96 98.35 155.41 98.5 155.72C98.5 156.17 98.65 156.63 98.81 157.09C98.96 157.39 99.11 157.85 99.41 158.15C99.57 156.48 99.57 154.8 99.41 153.28C99.41 152.82 98.96 152.52 98.81 152.06C98.65 152.52 98.5 152.82 98.35 152.98ZM88.77 217.69C89.08 217.84 89.38 218 89.99 218.3C89.99 217.39 90.14 216.93 89.84 216.32C89.53 215.86 89.99 215.1 90.14 214.34C89.68 214.34 89.38 214.34 89.08 214.34C88.92 214.8 88.77 215.1 88.62 215.41C89.08 216.02 88.47 216.78 88.77 217.69ZM96.22 115.67C96.37 115.67 96.53 115.52 96.68 115.52C96.68 115.06 96.68 114.6 96.68 114C96.83 113.54 96.07 113.08 96.68 112.62C96.37 112.32 96.22 112.17 95.92 111.86C96.07 111.56 96.22 111.25 96.37 111.25C96.07 110.8 95.92 110.49 95.77 110.34C95.61 111.25 95.16 111.86 95.61 112.78C95.92 113.23 95.46 114 95.46 114.76C95.77 114.91 95.92 115.37 96.22 115.67ZM98.35 149.17C98.2 149.47 97.89 149.78 97.89 149.93C98.35 150.54 98.65 151.15 99.26 152.06C99.11 150.08 98.96 148.56 98.81 147.04C98.65 146.89 98.5 146.58 98.2 146.43C98.05 146.58 97.74 146.89 97.59 147.04C97.89 147.65 98.05 148.41 98.35 149.17ZM100.02 221.04C100.63 220.59 100.93 220.43 101.09 220.13C101.24 219.06 101.24 218 100.63 217.39C100.17 217.54 99.87 217.84 99.57 217.84C99.72 218.91 99.87 219.82 100.02 221.04ZM102.61 191.04C102.76 189.37 102.91 188 102.3 186.63C102.15 186.63 101.85 186.63 101.69 186.63C101.09 187.39 101.85 187.85 101.85 188.46C101.85 189.07 101.54 189.67 101.39 190.44C101.85 190.59 102.15 190.74 102.61 191.04ZM98.2 145.21C99.57 144.14 98.81 142.77 98.65 141.56C98.65 141.4 98.5 141.4 98.35 141.25C98.2 141.25 98.05 141.4 97.74 141.4C97.89 141.56 98.05 141.71 98.2 141.86C97.44 142.93 97.89 143.99 97.74 145.06C97.89 145.21 98.05 145.21 98.2 145.21ZM100.48 160.28C100.02 159.68 99.72 159.22 99.41 158.76C99.41 159.52 99.41 160.44 99.26 161.2C99.57 161.35 99.87 161.5 100.33 161.81C100.33 161.05 100.48 160.44 100.48 160.28ZM93.79 250.89C93.94 251.65 94.25 252.26 94.4 252.87C94.7 252.41 95.01 252.11 95.46 251.65C95.61 252.11 95.61 252.41 95.61 252.41C95.92 252.26 96.22 252.26 96.53 252.11C95.61 251.19 94.85 250.74 93.79 250.89ZM40.13 136.68C40.43 135.77 40.58 135.01 40.73 134.25C40.73 134.25 39.82 133.49 39.67 133.33C39.67 134.1 39.67 135.01 39.52 135.77C39.67 135.77 39.67 135.62 39.82 135.62C39.97 135.77 39.97 136.07 40.13 136.68ZM91.81 143.23C91.21 144.6 92.27 145.52 92.88 146.58C92.73 145.52 92.57 144.45 92.42 143.23C92.12 143.23 91.97 143.23 91.81 143.23ZM89.38 197.9C88.77 197.29 88.01 198.2 87.25 197.9C87.25 198.05 87.25 198.35 87.25 198.51C87.71 198.66 88.01 198.66 88.62 198.81C88.32 199.27 88.16 199.42 88.01 199.72C88.16 199.57 88.32 199.42 88.47 199.27C88.47 199.57 88.62 200.03 88.62 200.64C88.92 199.42 89.23 198.66 89.38 197.9ZM97.74 136.99L97.59 136.99C97.59 137.9 97.44 138.97 97.44 139.88C97.74 139.88 97.89 140.03 98.05 139.88C98.2 139.88 98.5 139.88 98.65 139.73C98.5 138.82 98.2 137.9 97.74 136.99ZM101.39 192.87C101.54 192.72 101.69 192.42 101.69 192.26C101.54 192.26 101.54 192.11 101.39 192.11C101.09 192.26 100.78 192.57 100.48 192.72C100.48 193.33 100.48 193.79 100.48 194.39C100.78 194.55 101.24 194.7 101.85 195.16C101.69 194.09 101.54 193.48 101.39 192.87ZM96.53 120.24C96.37 121.46 96.07 122.52 96.68 123.44C96.83 123.59 97.13 123.74 97.29 123.74C97.29 122.67 97.13 121.76 97.13 120.85C97.13 120.85 96.83 120.54 96.53 120.24ZM97.29 119.32C97.13 118.41 96.98 117.5 96.83 116.43C96.68 116.28 96.53 116.13 96.37 115.82C96.07 116.13 95.92 116.43 95.61 116.74C96.07 116.89 96.37 117.19 96.53 117.19C96.53 117.95 96.53 118.56 96.68 119.32C96.98 119.48 97.13 119.48 97.29 119.32ZM92.27 225.61C92.73 225.61 93.03 225.61 93.79 225.61C92.42 224.85 92.73 223.48 91.97 222.72C91.81 222.87 91.51 223.02 91.51 223.17C91.81 224.09 92.12 224.85 92.27 225.61ZM103.97 221.8C104.58 222.56 104.58 222.56 105.34 222.56C105.65 221.35 104.58 220.74 104.13 219.67C104.13 220.13 104.28 220.59 104.28 221.35C104.28 221.35 104.13 221.5 103.97 221.8ZM97.89 201.55C97.89 200.49 98.05 199.42 98.05 198.2C97.89 198.2 97.89 198.35 97.74 198.35C97.74 198.05 97.59 197.74 97.44 197.44C96.68 198.96 97.89 200.18 97.89 201.55ZM96.07 250.13C95.92 249.82 95.77 249.82 95.77 249.67C95.77 249.52 95.77 249.36 95.92 249.21C96.22 247.99 96.22 247.84 94.85 247.54C95.01 248.45 95.16 249.21 95.31 250.13C95.46 249.97 95.61 250.13 96.07 250.13ZM108.23 201.55C108.23 200.94 108.23 200.18 108.38 199.42C107.93 199.27 107.62 199.12 107.17 198.96C107.02 199.12 106.86 199.27 106.71 199.27C108.08 199.72 107.02 201.09 108.23 201.55ZM92.73 242.06C92.88 241.75 93.03 241.29 93.33 240.99C93.18 240.53 93.03 240.23 92.88 239.92C92.73 239.92 92.57 239.92 92.42 239.92C92.27 240.53 92.12 241.29 91.81 242.06C91.97 242.06 92.27 242.06 92.73 242.06ZM105.04 232.61C105.65 233.07 106.1 233.38 106.56 233.68C106.56 233.07 106.71 232.46 106.41 231.55C105.95 232.01 105.65 232.31 105.04 232.61ZM110.97 264.9C111.42 265.2 111.58 209.72 112.34 209.87C112.03 208.96 111.73 264.29 111.58 263.68C111.58 263.53 111.27 263.53 111.12 263.22C111.12 263.83 111.12 264.29 110.97 264.9ZM101.54 229.72C101.54 230.03 100.93 230.03 101.24 230.33C101.39 230.33 101.69 230.33 101.85 230.33C101.85 229.42 101.85 228.66 102 227.89C101.69 227.89 101.54 227.89 101.09 227.89C101.24 228.5 101.39 229.11 101.54 229.72ZM94.09 89.78C95.01 89.33 95.46 89.17 96.07 88.87C95.77 88.72 95.46 88.57 95.16 88.57C95.16 88.11 95.01 87.8 95.01 87.04C94.7 87.96 94.55 88.72 94.09 89.78ZM102.76 210.08C102.91 210.99 103.06 211.75 103.21 212.67C103.52 212.67 103.67 212.67 103.97 212.52C103.06 211.75 103.82 210.84 103.37 210.08C103.37 210.08 103.21 210.08 102.76 210.08ZM105.34 226.22C105.65 224.7 105.65 224.7 104.89 223.33C104.74 224.24 104.89 225.31 105.34 226.22ZM109.6 215.56C109.3 216.47 110.06 217.24 110.36 218C110.36 217.69 110.36 217.39 110.36 216.93C110.36 216.63 110.36 216.32 110.36 216.02C110.06 215.71 109.9 215.56 109.75 215.41C109.75 215.56 109.75 215.56 109.6 215.56ZM35.72 119.93C36.63 118.56 36.48 118.26 35.26 118.11C35.26 118.56 35.41 119.17 35.72 119.93ZM106.71 237.03C106.86 236.12 106.86 235.36 107.02 234.44C106.71 234.44 106.56 234.44 106.26 234.59C106.41 235.36 106.56 236.27 106.71 237.03ZM109.6 255.61C109.6 255 109.6 254.69 109.6 254.54C109.6 254.24 109.9 254.09 109.9 253.78C109.75 253.48 109.6 253.32 109.45 253.17C109.14 253.63 108.99 254.09 108.69 254.54C108.99 254.85 109.14 255.15 109.6 255.61ZM99.26 213.43C99.26 214.04 99.26 214.49 99.26 215.1C99.57 215.1 99.72 215.1 99.87 215.1C100.17 214.34 100.02 213.73 99.26 213.43ZM103.21 234.59C102.91 234.29 102.76 233.99 102.61 233.83C102.3 234.29 101.54 234.44 102.15 235.2C102.45 235.05 102.76 234.9 103.21 234.59ZM97.13 194.85C96.83 195.31 96.68 195.77 96.37 196.22C96.98 196.22 97.29 196.22 97.89 196.22C97.74 195.92 97.59 195.92 97.44 195.77C97.29 195.46 97.29 195.31 97.13 194.85ZM99.57 210.69C99.41 210.69 99.26 210.69 99.11 210.69C99.11 211.14 99.11 211.6 99.11 212.06C99.41 212.06 99.57 211.91 99.87 211.91C99.72 211.45 99.57 211.14 99.57 210.69ZM95.01 175.21C95.01 174.29 95.01 173.84 95.16 173.23C94.85 173.23 94.55 173.23 94.25 173.38C94.4 173.99 94.7 174.45 95.01 175.21ZM92.12 138.66C91.81 138.82 91.51 138.82 91.21 138.97C91.51 139.58 91.66 140.03 91.97 140.8C92.12 140.03 92.12 139.58 92.12 138.66ZM94.7 248.6C94.25 248.91 93.33 248.15 93.49 249.52C93.94 249.52 94.25 249.52 94.7 249.52C94.7 249.21 94.7 249.06 94.7 248.6ZM99.26 209.16C99.26 208.4 99.26 208.1 99.26 207.64C98.96 207.64 98.65 207.64 98.2 207.79C98.65 208.25 98.96 208.71 99.26 209.16ZM30.25 172.01C30.7 172.47 31.31 172.47 31.16 173.08C31.31 173.08 31.31 173.08 31.46 173.08C31.46 172.62 31.46 172.32 31.46 172.01C31.01 172.01 30.7 172.01 30.25 172.01ZM100.48 225C100.63 225 100.63 225 100.78 225.15C100.93 224.85 101.09 224.39 101.39 223.94C100.93 223.94 100.78 223.94 100.48 223.94C100.63 224.24 100.63 224.54 100.48 225ZM105.8 254.09C105.34 254.54 105.04 254.85 104.74 255.3C105.19 255.46 105.5 255.46 105.8 255.61C105.65 255.15 105.8 254.85 105.8 254.09ZM105.65 227.29C105.65 228.05 105.65 228.35 105.65 228.81C105.95 228.81 106.26 228.66 106.71 228.66C106.26 228.2 106.1 227.89 105.65 227.29ZM89.68 206.27C89.68 206.88 89.68 207.34 89.68 207.95C89.99 207.79 90.29 207.79 90.6 207.64C90.29 207.03 89.99 206.73 89.68 206.27ZM101.39 225.31C101.39 226.07 101.39 226.52 101.39 226.98C101.69 226.98 102 226.83 102.15 226.83C101.85 226.37 101.69 226.07 101.39 225.31ZM111.58 228.2C111.42 229.11 111.88 229.11 112.49 228.81C112.49 228.66 112.49 228.35 112.34 228.2C112.18 228.2 111.88 228.2 111.58 228.2ZM87.71 191.2C87.71 191.5 87.71 191.81 87.71 192.11C88.01 192.11 88.16 191.96 88.47 191.96C88.47 191.65 88.32 191.35 88.32 191.2C88.01 191.2 87.86 191.2 87.71 191.2ZM93.03 161.96C92.88 162.87 93.33 162.87 93.94 162.57C93.94 162.42 93.94 162.11 93.79 161.96C93.64 161.96 93.33 161.96 93.03 161.96ZM99.72 185.56C99.87 186.17 100.02 186.93 100.78 186.32C100.48 186.02 100.02 185.72 99.72 185.56ZM93.49 165.46C93.79 165.01 94.4 165.01 94.09 164.09C93.79 164.4 93.03 164.55 93.49 165.46ZM101.09 221.19C100.17 221.04 100.17 221.5 100.48 222.11C100.63 222.11 100.93 222.11 101.09 221.96C100.93 221.8 100.93 221.5 101.09 221.19ZM96.53 184.19C96.22 184.19 95.92 184.19 95.61 184.19C95.61 184.5 95.77 184.65 95.77 184.95C96.07 184.95 96.37 184.8 96.53 184.8C96.53 184.65 96.53 184.5 96.53 184.19ZM93.94 171.55C94.25 172.01 94.4 172.47 94.7 173.08C94.7 172.47 94.7 172.01 94.7 171.55C94.55 171.55 94.25 171.55 93.94 171.55ZM99.57 179.93C99.57 179.62 99.57 179.32 99.57 179.02C99.26 179.02 99.11 179.17 98.81 179.17C98.81 179.47 98.96 179.78 98.96 179.93C99.26 179.93 99.26 179.93 99.57 179.93ZM97.74 207.03C98.35 207.03 98.65 207.03 99.11 207.03C99.11 206.73 98.96 206.58 98.96 206.12C98.5 206.42 98.35 206.73 97.74 207.03ZM31.77 170.18C31.77 169.42 31.61 168.97 31.61 168.51C31.31 168.81 31.01 168.97 30.85 169.27C31.01 169.27 31.16 169.57 31.77 170.18ZM95.77 180.54C95.92 179.62 95.46 179.62 94.85 179.93C94.85 180.08 94.85 180.39 95.01 180.54C95.31 180.54 95.46 180.54 95.77 180.54ZM37.09 128.46C36.93 128.46 36.78 128.46 36.78 128.46C36.78 128.92 36.78 129.53 36.78 129.98C36.93 129.98 36.93 129.98 37.09 129.98C37.09 129.53 37.09 128.92 37.09 128.46ZM89.53 208.71C89.68 209.01 89.84 209.32 89.84 209.62L89.99 209.47C89.99 209.16 89.99 209.01 89.99 208.71C89.99 208.71 89.84 208.71 89.53 208.71ZM96.68 192.72C96.98 192.57 97.29 192.42 98.05 192.11C97.29 192.11 96.98 192.11 96.83 192.11C96.68 192.26 96.68 192.42 96.68 192.72ZM97.89 203.68C98.05 203.68 98.2 203.68 98.35 203.68C98.35 203.23 98.35 202.92 98.2 202.46L98.05 202.46C98.05 202.92 97.89 203.23 97.89 203.68ZM32.83 207.49C33.13 207.34 33.44 207.19 34.2 206.88C33.44 206.88 33.13 206.88 32.98 206.88C32.83 207.03 32.83 207.19 32.83 207.49ZM31.77 176.12C31.77 175.97 31.77 175.82 31.77 175.36C31.46 175.36 31.31 175.36 30.7 175.51C31.16 175.82 31.46 175.97 31.77 176.12ZM108.08 212.15C108.23 211.55 108.23 211.55 107.17 211.55C107.62 211.85 107.93 212 108.08 212.15ZM108.69 250.58C108.84 250.89 108.99 251.19 109.3 251.95C109.3 251.19 109.3 250.89 109.3 250.74C109.14 250.58 108.84 250.58 108.69 250.58ZM88.77 240.69C88.47 241.45 88.62 241.75 89.08 241.6C89.08 241.29 88.92 240.99 88.77 240.69ZM110.36 257.74C110.21 257.74 110.06 257.74 109.9 257.74C109.9 258.2 109.9 258.5 110.06 258.96L110.21 258.96C110.36 258.5 110.36 258.04 110.36 257.74ZM91.51 136.53C91.66 136.53 91.81 136.53 91.97 136.53C91.97 136.23 91.81 135.77 91.81 135.47L91.66 135.47C91.66 135.77 91.51 136.23 91.51 136.53ZM92.27 227.44C92.57 226.68 92.42 226.37 91.97 226.52C92.12 226.83 92.27 227.13 92.27 227.44ZM102.3 232.31C102.3 232.16 102.3 232.01 102.3 231.55C102 231.55 101.85 231.55 101.24 231.7C101.69 232.01 102 232.16 102.3 232.31ZM99.26 181.6L99.41 181.6C99.41 181.15 99.41 180.69 99.41 180.23L99.26 180.23C99.26 180.84 99.26 181.3 99.26 181.6ZM91.81 142.77L91.97 142.77C91.97 142.32 91.97 141.86 91.97 141.4L91.81 141.4C91.81 141.86 91.81 142.32 91.81 142.77ZM89.23 211.3C89.23 211.6 89.38 211.91 89.38 212.21C89.68 211.91 89.84 211.6 89.99 211.45C89.84 211.3 89.68 211.3 89.23 211.3ZM90.14 213.28C90.29 213.28 90.44 213.28 90.6 213.28C90.6 212.82 90.6 212.52 90.44 212.06L90.29 212.06C90.29 212.52 90.14 212.97 90.14 213.28ZM81.93 239.56C80.72 239.41 80.72 239.41 80.87 239.87C81.02 239.87 81.32 239.72 81.93 239.56ZM96.37 257.74C96.53 257.13 96.53 257.13 95.46 257.13C95.92 257.43 96.22 257.59 96.37 257.74ZM106.1 257.74C105.8 257.74 105.5 257.89 105.19 257.89C105.5 258.2 105.8 258.35 105.95 258.5C105.95 258.35 106.1 258.2 106.1 257.74ZM96.68 194.7C96.98 194.39 97.29 194.09 97.74 193.63C96.98 193.79 96.83 193.79 96.53 193.79C96.53 194.09 96.53 194.24 96.68 194.7ZM95.31 182.37C95.61 182.37 95.92 182.21 96.22 182.21C95.92 181.91 95.61 181.76 95.46 181.6C95.31 181.91 95.31 182.06 95.31 182.37ZM98.96 172.77C98.35 172.62 98.35 172.62 98.35 173.69C98.65 173.23 98.81 172.92 98.96 172.77ZM89.84 82.47L89.84 82.63C90.14 82.63 90.44 82.63 90.75 82.63L90.75 82.47C90.29 82.47 89.99 82.47 89.84 82.47ZM87.71 190.28C87.86 190.28 88.01 190.28 88.01 190.28C88.01 189.98 87.86 189.83 87.86 189.52L87.71 189.52C87.71 189.83 87.71 189.98 87.71 190.28ZM93.94 96.03L93.79 96.03C93.79 96.33 93.79 96.64 93.79 96.94L93.94 96.94C93.79 96.48 93.79 96.33 93.94 96.03ZM93.33 154.35L93.33 154.19C93.03 154.19 92.73 154.19 92.42 154.19L92.42 154.35C92.73 154.35 93.03 154.35 93.33 154.35ZM94.55 121.15L94.4 121.15C94.4 121.46 94.4 121.76 94.4 122.07L94.55 122.07C94.55 121.76 94.55 121.46 94.55 121.15ZM93.18 160.13L93.33 160.13C93.33 159.83 93.33 159.52 93.33 159.22L93.18 159.22C93.33 159.52 93.18 159.83 93.18 160.13ZM96.83 87.04L96.68 87.04C96.68 87.35 96.68 87.65 96.68 87.96L96.83 87.96C96.83 87.5 96.83 87.35 96.83 87.04ZM91.05 234.59C91.21 234.59 91.36 234.59 91.36 234.59C91.36 234.29 91.21 234.14 91.21 233.83L91.05 233.83C91.05 234.14 91.05 234.44 91.05 234.59ZM94.09 166.38C93.94 166.38 93.79 166.38 93.79 166.38C93.79 166.68 93.94 166.83 93.94 167.14L94.09 167.14C94.09 166.83 94.09 166.53 94.09 166.38ZM93.33 263.68L93.33 263.53C93.03 263.53 92.73 263.53 92.42 263.53L92.42 263.68C92.73 263.68 93.03 263.68 93.33 263.68ZM100.17 101.51C100.02 101.51 99.87 101.51 99.87 101.51C99.87 101.81 100.02 101.97 100.02 102.27L100.17 102.27C100.17 101.97 100.17 101.81 100.17 101.51ZM96.68 190.59C96.83 190.59 96.98 190.59 96.98 190.59C96.98 190.28 96.83 190.13 96.83 189.83L96.68 189.83C96.83 190.13 96.68 190.28 96.68 190.59ZM97.89 160.44C97.89 160.59 97.89 160.74 97.89 160.74C98.2 160.74 98.35 160.59 98.65 160.59L98.65 160.44C98.5 160.44 98.2 160.44 97.89 160.44ZM98.05 158.31C98.05 158.46 98.05 158.61 98.05 158.61C98.35 158.61 98.5 158.46 98.81 158.46L98.81 158.31C98.5 158.31 98.35 158.31 98.05 158.31ZM94.55 255.76C94.55 255.91 94.55 256.06 94.55 256.06C94.85 256.06 95.01 255.91 95.31 255.91L95.31 255.76C95.01 255.76 94.85 255.76 94.55 255.76ZM95.16 241.45C95.16 241.6 95.16 241.75 95.16 241.75C95.46 241.75 95.61 241.6 95.92 241.6L95.92 241.45C95.61 241.45 95.31 241.45 95.16 241.45ZM91.97 134.86C91.97 134.7 91.97 134.55 91.97 134.55C91.66 134.55 91.51 134.7 91.21 134.7L91.21 134.86C91.51 134.86 91.66 134.86 91.97 134.86ZM94.4 215.05C94.55 215.05 94.7 215.05 94.7 215.05C94.7 214.74 94.55 214.59 94.55 214.29L94.4 214.29C94.4 214.59 94.4 214.9 94.4 215.05ZM95.92 254.85L96.07 254.85C96.07 254.54 96.07 254.24 96.07 253.93L95.92 253.93C95.92 254.24 95.92 254.54 95.92 254.85ZM100.93 232.46C100.93 232.31 100.93 232.16 100.93 232.16C100.63 232.16 100.48 232.31 100.17 232.31L100.17 232.46C100.48 232.46 100.78 232.46 100.93 232.46ZM102.15 201.4C102 201.4 101.85 201.4 101.85 201.4C101.85 201.7 102 201.86 102 202.16L102.15 202.16C102.15 201.86 102.15 201.55 102.15 201.4ZM102.3 236.42C102.45 236.42 102.61 236.42 102.61 236.42C102.61 236.12 102.45 235.96 102.45 235.66L102.3 235.66C102.3 235.96 102.3 236.12 102.3 236.42ZM103.67 213.89L103.82 213.89C103.82 213.58 103.82 213.28 103.82 212.97L103.67 212.97C103.67 213.43 103.67 213.58 103.67 213.89ZM102.91 243.12C102.91 243.27 102.91 243.43 102.91 243.43C103.21 243.43 103.37 243.27 103.67 243.27L103.67 243.12C103.37 243.12 103.06 243.12 102.91 243.12ZM104.58 216.93C104.58 216.78 104.58 216.63 104.58 216.63C104.28 216.63 104.13 216.78 103.82 216.78L103.82 216.93C104.13 216.93 104.43 216.93 104.58 216.93ZM103.67 244.34C103.67 244.49 103.67 244.64 103.67 244.64C103.97 244.64 104.13 244.49 104.43 244.49L104.43 244.34C104.13 244.34 103.82 244.34 103.67 244.34ZM103.97 247.23C104.13 247.23 104.28 247.23 104.28 247.23C104.28 246.93 104.13 246.78 104.13 246.47L103.97 246.47C103.97 246.78 103.97 247.08 103.97 247.23ZM106.1 260.94L106.26 260.94C106.26 260.63 106.26 260.33 106.26 260.02L106.1 260.02C106.1 260.33 106.1 260.63 106.1 260.94ZM110.21 220.89L110.21 221.04C110.51 221.04 110.82 221.04 111.12 221.04L111.12 220.89C110.82 220.89 110.51 220.89 110.21 220.89ZM110.51 218.61L110.36 218.61C110.36 218.91 110.36 219.21 110.36 219.52L110.51 219.52C110.51 219.06 110.51 218.91 110.51 218.61ZM109.75 217.03L109.6 217.03C109.6 217.33 109.6 217.64 109.6 217.94L109.75 217.94C109.6 217.64 109.6 217.33 109.75 217.03ZM111.27 227.29C111.27 227.44 111.27 227.59 111.27 227.59C111.58 227.59 111.73 227.44 112.03 227.44L112.03 227.29C111.73 227.29 111.58 227.29 111.27 227.29ZM111.42 224.54C111.58 224.54 111.73 224.54 111.73 224.54C111.73 224.24 111.58 224.09 111.58 223.78L111.42 223.78C111.42 224.09 111.42 224.39 111.42 224.54ZM110.97 262C110.82 262 110.66 262 110.66 262C110.66 262.31 110.82 262.46 110.82 262.76L110.97 262.76C110.97 262.46 110.97 262.31 110.97 262ZM34.96 183.89L34.81 183.89C34.81 184.19 34.81 184.5 34.81 184.8L34.96 184.8C34.81 184.34 34.96 184.04 34.96 183.89ZM36.93 169.12C37.09 169.12 37.24 169.12 37.24 169.12C37.24 168.81 37.09 168.66 37.09 168.36L36.93 168.36C36.93 168.66 36.93 168.81 36.93 169.12ZM91.36 215.41C91.21 215.26 91.05 215.26 90.9 215.26L90.9 215.41C91.05 215.41 91.21 215.41 91.36 215.41ZM100.63 118.41C100.78 118.26 100.78 118.11 100.78 117.95L100.63 117.95C100.63 118.11 100.63 118.26 100.63 118.41ZM90.44 216.63C90.6 216.78 90.75 216.78 90.9 216.78L90.9 216.63C90.75 216.63 90.6 216.63 90.44 216.63ZM88.47 265.05C88.62 265.2 88.77 265.2 88.92 265.2L88.92 265.05C88.77 265.05 88.62 265.05 88.47 265.05ZM100.17 188.3C100.33 188.46 100.48 188.46 100.63 188.46L100.63 188.3C100.48 188.3 100.33 188.3 100.17 188.3ZM88.92 242.51C89.08 242.66 89.23 242.66 89.38 242.66L89.38 242.51C89.23 242.51 89.08 242.51 88.92 242.51ZM92.57 147.19C92.42 147.34 92.42 147.5 92.42 147.65L92.57 147.65C92.57 147.34 92.57 147.19 92.57 147.19ZM100.02 216.78C100.17 216.63 100.17 216.47 100.17 216.32L100.02 216.32C100.02 216.47 100.02 216.63 100.02 216.78ZM97.59 183.74C97.74 183.58 97.74 183.43 97.74 183.28L97.59 183.28C97.59 183.43 97.59 183.58 97.59 183.74ZM92.42 150.08C92.57 149.93 92.57 149.78 92.57 149.63L92.42 149.63C92.42 149.93 92.42 149.93 92.42 150.08ZM94.55 244.49C94.7 244.64 94.85 244.64 95.01 244.64L95.01 244.49C94.85 244.49 94.7 244.49 94.55 244.49ZM88.32 236.88C88.47 237.03 88.62 237.03 88.77 237.03L88.77 236.88C88.62 236.88 88.47 236.88 88.32 236.88ZM95.31 256.82C95.16 256.67 95.01 256.67 94.85 256.67L94.85 256.82C95.01 256.82 95.16 256.82 95.31 256.82ZM95.01 246.93C95.16 246.78 95.16 246.62 95.16 246.47L95.01 246.47C95.01 246.78 95.01 246.78 95.01 246.93ZM89.23 204.44C89.38 204.6 89.53 204.6 89.68 204.6L89.68 204.44C89.53 204.44 89.38 204.44 89.23 204.44ZM88.77 213.12C88.92 213.28 89.08 213.28 89.23 213.28L89.23 213.12C89.08 213.12 88.92 213.12 88.77 213.12ZM88.16 233.68C88.32 233.53 88.32 233.38 88.32 233.22L88.16 233.22C88.16 233.38 88.16 233.53 88.16 233.68ZM93.49 90.7C93.64 90.55 93.64 90.39 93.64 90.24L93.49 90.24C93.49 90.39 93.49 90.55 93.49 90.7ZM102.61 207.03C102.76 206.88 102.76 206.73 102.76 206.58L102.61 206.58C102.61 206.73 102.61 206.88 102.61 207.03ZM87.86 227.89C87.71 227.74 87.56 227.74 87.4 227.74L87.4 227.89C87.56 227.89 87.71 227.89 87.86 227.89ZM87.86 210.69C87.71 210.84 87.71 210.99 87.71 211.14L87.86 211.14C87.86 210.99 87.86 210.84 87.86 210.69ZM102 239.77C101.85 239.62 101.69 239.62 101.54 239.62L101.54 239.77C101.69 239.77 101.85 239.77 102 239.77ZM87.86 192.57C88.01 192.72 88.16 192.72 88.32 192.72L88.32 192.57C88.16 192.57 88.01 192.57 87.86 192.57ZM102 233.38C102.15 233.22 102.15 233.07 102.15 232.92L102 232.92C102 233.07 102 233.22 102 233.38ZM101.09 211.55C101.24 211.39 101.24 211.24 101.24 211.09L101.09 211.09C101.09 211.24 101.09 211.39 101.09 211.55ZM94.7 240.38C94.55 240.23 94.4 240.23 94.25 240.23L94.25 240.38C94.4 240.38 94.55 240.38 94.7 240.38ZM104.89 171.86C105.04 171.71 105.04 171.55 105.04 171.4L104.89 171.4C104.89 171.55 104.89 171.71 104.89 171.86ZM105.19 170.18C105.04 170.34 105.04 170.49 105.04 170.64L105.19 170.64C105.19 170.49 105.19 170.34 105.19 170.18ZM85.73 195C85.88 194.85 85.88 194.7 85.88 194.55L85.73 194.55C85.88 194.7 85.88 194.85 85.73 195ZM103.67 214.8C103.82 214.65 103.82 214.49 103.82 214.34L103.67 214.34C103.67 214.49 103.67 214.65 103.67 214.8ZM96.68 224.54C96.83 224.39 96.83 224.24 96.83 224.09L96.68 224.09C96.68 224.24 96.68 224.39 96.68 224.54ZM80.56 233.78C80.72 233.93 80.87 233.93 81.02 233.93L81.02 233.78C80.87 233.93 80.72 233.78 80.56 233.78ZM80.11 241.09C79.96 241.24 79.96 241.39 79.96 241.54L80.11 241.54C80.11 241.39 80.11 241.24 80.11 241.09ZM81.02 154.5C80.87 154.65 80.87 154.8 80.87 154.96L81.02 154.96C81.02 154.8 81.02 154.65 81.02 154.5ZM70.83 150.54C70.68 150.69 70.68 150.85 70.68 151L70.83 151C70.83 150.85 70.83 150.69 70.83 150.54ZM98.65 174.9C98.81 175.06 98.96 175.06 99.11 175.06L99.11 174.9C98.96 174.9 98.81 174.9 98.65 174.9ZM103.21 240.38C103.06 240.53 103.06 240.69 103.06 240.84L103.21 240.84C103.21 240.69 103.21 240.53 103.21 240.38ZM103.82 218C103.97 218.15 104.13 218.15 104.28 218.15L104.28 218C104.13 218 103.97 218 103.82 218ZM96.37 186.63C96.22 186.48 96.07 186.48 95.92 186.48L95.92 186.63C96.07 186.63 96.22 186.63 96.37 186.63ZM94.55 228.35C94.4 228.5 94.4 228.66 94.4 228.81L94.55 228.81C94.55 228.66 94.55 228.5 94.55 228.35ZM68.71 169.12C68.86 168.97 68.86 168.81 68.86 168.66L68.71 168.66C68.71 168.81 68.71 168.97 68.71 169.12ZM67.19 166.53C67.03 166.68 67.03 166.83 67.03 166.99L67.19 166.99C67.19 166.83 67.19 166.68 67.19 166.53ZM69.77 51.41C69.62 51.26 69.47 51.26 69.31 51.26L69.31 51.41C69.47 51.41 69.62 51.41 69.77 51.41ZM94.25 212.61C94.09 212.76 94.09 212.92 94.09 213.07L94.25 213.07C94.25 212.92 94.25 212.76 94.25 212.61ZM104.28 248.91C104.13 248.76 103.97 248.76 103.82 248.76L103.82 248.91C103.97 248.91 104.13 248.91 104.28 248.91ZM106.56 187.24C106.41 187.39 106.41 187.54 106.41 187.69L106.56 187.69C106.56 187.39 106.56 187.24 106.56 187.24ZM99.41 177.64C99.26 177.49 99.11 177.49 98.96 177.49L98.96 177.64C99.11 177.64 99.26 177.64 99.41 177.64ZM43.47 250.07C43.62 250.22 43.78 250.22 43.93 250.22L43.93 250.07C43.78 250.07 43.62 250.07 43.47 250.07ZM42.86 173.08C43.02 173.23 43.17 173.23 43.32 173.23L43.32 173.08C43.17 173.08 43.02 173.08 42.86 173.08ZM46.82 61.31C46.97 61.46 47.12 61.46 47.27 61.46L47.27 61.31C47.12 61.31 46.97 61.31 46.82 61.31ZM38.76 241.14C38.61 240.99 38.45 240.99 38.3 240.99L38.3 241.14C38.45 241.14 38.61 241.14 38.76 241.14ZM104.74 251.34C104.89 251.19 104.89 251.04 104.89 250.89L104.74 250.89C104.74 251.04 104.74 251.19 104.74 251.34ZM35.57 225.86C35.72 225.71 35.72 225.55 35.72 225.4L35.57 225.4C35.57 225.55 35.57 225.71 35.57 225.86ZM36.93 190.28C36.78 190.13 36.63 190.13 36.48 190.13L36.48 190.28C36.63 190.28 36.78 190.28 36.93 190.28ZM33.44 253.17C33.29 253.32 33.29 253.48 33.29 253.63L33.44 253.63C33.29 253.48 33.29 253.32 33.44 253.17ZM35.26 189.22C35.41 189.37 35.57 189.37 35.72 189.37L35.72 189.22C35.57 189.22 35.41 189.22 35.26 189.22ZM105.95 244.34C106.1 244.19 106.1 244.04 106.1 243.88L105.95 243.88C105.95 244.04 105.95 244.19 105.95 244.34ZM34.81 187.09C34.65 186.93 34.5 186.93 34.35 186.93L34.35 187.09C34.65 187.09 34.65 187.09 34.81 187.09ZM36.93 126.94C36.78 126.79 36.63 126.79 36.48 126.79L36.48 126.94C36.63 126.94 36.78 126.94 36.93 126.94ZM34.5 162.72C34.65 162.87 34.81 162.87 34.96 162.87L34.96 162.72C34.81 162.72 34.65 162.72 34.5 162.72ZM105.5 215.05C105.34 214.9 105.19 214.9 105.04 214.9L105.04 215.05C105.19 215.05 105.34 215.05 105.5 215.05ZM107.93 206.27C108.08 206.12 108.08 205.97 108.08 205.82L107.93 205.82C107.93 205.97 107.93 206.12 107.93 206.27ZM95.01 179.02C95.16 179.17 95.31 179.17 95.46 179.17L95.46 179.02C95.31 179.02 95.16 179.02 95.01 179.02ZM106.71 247.54C106.56 247.69 106.56 247.84 106.56 247.99L106.71 247.99C106.71 247.69 106.71 247.69 106.71 247.54ZM108.54 204.6C108.38 204.75 108.38 204.9 108.38 205.05L108.54 205.05C108.54 204.9 108.54 204.75 108.54 204.6ZM29.18 151.91C29.03 152.06 29.03 152.22 29.03 152.37L29.18 152.37C29.18 152.22 29.18 152.06 29.18 151.91ZM106.86 249.36C107.02 249.52 107.17 249.52 107.32 249.52L107.32 249.36C107.17 249.36 107.02 249.36 106.86 249.36ZM27.97 154.35C27.81 154.19 27.66 154.19 27.51 154.19L27.51 154.35C27.66 154.35 27.81 154.35 27.97 154.35ZM30.4 84.61C30.25 84.45 30.09 84.45 29.94 84.45L29.94 84.61C30.09 84.61 30.25 84.61 30.4 84.61ZM29.79 44.1C29.94 44.25 30.09 44.25 30.25 44.25L30.25 44.1C30.09 44.1 29.94 44.1 29.79 44.1ZM21.28 260.48C21.43 260.33 21.43 260.18 21.43 260.02L21.28 260.02C21.28 260.18 21.28 260.33 21.28 260.48ZM26.6 91.31C26.75 91.46 26.9 91.46 27.05 91.46L27.05 91.31C26.9 91.31 26.75 91.31 26.6 91.31ZM18.84 262.31C19 262.46 19.15 262.46 19.3 262.46L19.3 262.31C19.15 262.31 19 262.31 18.84 262.31ZM16.56 264.13C16.41 263.98 16.26 263.98 16.11 263.98L16.11 264.13C16.26 263.98 16.41 264.13 16.56 264.13ZM21.73 30.25C21.88 30.4 22.04 30.4 22.19 30.4L22.19 30.25C22.04 30.25 21.88 30.25 21.73 30.25ZM18.24 9.84C18.39 9.99 18.54 9.99 18.69 9.99L18.69 9.84C18.54 9.84 18.39 9.84 18.24 9.84ZM18.08 12.43C18.24 12.58 18.39 12.58 18.54 12.58L18.54 12.43C18.39 12.43 18.24 12.43 18.08 12.43ZM98.2 161.2C98.05 161.35 98.05 161.5 98.05 161.66L98.2 161.66C98.2 161.5 98.2 161.35 98.2 161.2ZM9.57 220.59C9.42 220.74 9.42 220.89 9.42 221.04L9.57 221.04C9.57 220.89 9.57 220.74 9.57 220.59ZM109.45 216.57C109.3 216.42 109.14 216.42 108.99 216.42L108.99 216.57C109.14 216.42 109.3 216.42 109.45 216.57ZM13.83 57.96C13.98 57.81 13.98 57.65 13.98 57.5L13.83 57.5C13.83 57.81 13.83 57.96 13.83 57.96ZM15.5 11.52C15.35 11.36 15.2 11.36 15.04 11.36L15.04 11.52C15.2 11.52 15.35 11.52 15.5 11.52ZM13.98 48.06C13.83 48.21 13.83 48.37 13.83 48.52L13.98 48.52C13.98 48.37 13.98 48.21 13.98 48.06ZM95.01 176.58C94.85 176.43 94.7 176.43 94.55 176.43L94.55 176.58C94.7 176.58 94.85 176.58 95.01 176.58ZM96.07 260.94C96.22 260.79 96.22 260.63 96.22 260.48L96.07 260.48C96.22 260.63 96.07 260.79 96.07 260.94ZM6.38 215.86C6.23 215.71 6.07 215.71 5.92 215.71L5.92 215.86C6.07 215.86 6.23 215.86 6.38 215.86ZM5.01 220.43C5.16 220.59 5.31 220.59 5.47 220.59L5.47 220.43C5.16 220.59 5.01 220.43 5.01 220.43ZM7.14 115.52C7.29 115.37 7.29 115.21 7.29 115.06L7.14 115.06C7.14 115.21 7.14 115.37 7.14 115.52ZM3.79 16.39C3.95 16.24 3.95 16.08 3.95 15.93L3.79 15.93C3.79 16.08 3.79 16.24 3.79 16.39ZM91.66 238.4C91.81 238.55 91.97 238.55 92.12 238.55L92.12 238.4C91.97 238.4 91.81 238.4 91.66 238.4ZM111.58 261.39C111.42 261.24 111.27 261.24 111.12 261.24L111.12 261.39C111.27 261.39 111.42 261.39 111.58 261.39ZM93.49 182.97C93.33 182.82 93.18 182.82 93.03 182.82L93.03 182.97C93.18 182.97 93.33 182.97 93.49 182.97ZM112.79 251.5C112.64 251.34 112.49 251.34 112.34 251.34L112.34 251.5C112.49 251.5 112.64 251.5 112.79 251.5ZM100.48 152.22C100.63 152.06 100.63 151.91 100.63 151.76L100.48 151.76C100.48 151.91 100.48 152.06 100.48 152.22ZM91.36 228.66C91.51 228.5 91.51 228.35 91.51 228.2L91.36 228.2C91.36 228.35 91.36 228.5 91.36 228.66ZM98.35 215.1C98.5 214.95 98.5 214.8 98.5 214.65L98.35 214.65C98.5 214.8 98.5 214.95 98.35 215.1ZM94.4 147.65C94.25 147.8 94.25 147.95 94.25 148.1L94.4 148.1C94.4 147.95 94.4 147.8 94.4 147.65ZM94.25 141.4C94.09 141.25 93.94 141.25 93.79 141.25L93.79 141.4C94.09 141.4 94.25 141.4 94.25 141.4ZM105.34 50.95C105.5 51.11 105.65 51.26 105.8 51.41C105.95 51.87 105.95 52.32 105.95 52.93C105.8 53.09 105.5 53.54 105.19 53.85C105.04 54 104.89 54 104.89 54.15L105.04 54.3C105.19 54.15 105.19 54.15 105.34 54C106.1 54.76 105.65 55.37 105.19 56.13C105.34 56.44 105.5 56.74 105.65 57.05C105.5 57.2 105.34 57.5 105.04 57.65C105.65 58.57 106.41 59.33 107.17 60.4C107.02 60.55 106.86 60.85 106.71 61.31C106.86 61.61 107.02 61.92 107.17 62.37C107.02 62.53 106.86 62.68 106.71 62.83C106.86 63.14 107.02 63.44 107.17 63.75C106.86 63.9 106.56 63.9 106.26 64.05C106.26 64.51 106.26 64.96 106.26 65.57C105.95 65.42 105.8 65.42 105.8 65.42C105.95 64.51 105.5 64.05 105.04 63.59C105.34 62.83 105.65 62.22 105.95 61.46C105.65 60.7 105.65 60.55 106.26 59.63C105.8 59.63 105.5 59.48 105.04 59.48C104.74 61.31 103.82 63.14 104.74 65.12C104.58 65.42 104.28 65.72 104.28 66.18C104.28 67.1 105.04 67.7 104.43 68.77C103.97 69.38 104.13 70.45 103.82 71.21C103.82 70.6 103.82 69.99 103.82 69.23C103.37 68.92 102.91 68.47 102.3 68.01C102.61 67.25 102.76 66.33 103.06 65.57C102.76 64.66 102.45 63.59 102.15 62.53C102.3 61.61 102.61 60.7 102.91 59.48C102.76 59.33 102.45 58.87 102.15 58.57C102.61 58.26 103.06 58.11 103.52 57.81C103.52 57.35 103.52 56.74 103.52 55.98C103.67 55.98 103.67 55.98 103.82 55.98C103.97 56.28 103.97 56.44 104.13 56.89C104.43 56.28 104.58 55.83 104.74 55.22C104.43 55.22 103.97 55.07 103.67 54.91C103.82 53.09 104.13 51.26 104.28 48.98C104.43 48.82 104.89 48.52 105.5 48.06C105.65 48.06 105.95 48.06 106.26 48.06C106.26 48.21 106.41 48.52 106.41 48.67C105.5 49.28 105.34 50.04 105.34 50.95C105.34 50.95 105.34 50.95 105.34 50.8C104.89 50.8 104.43 50.95 103.97 50.95C103.97 51.26 104.13 51.41 104.13 51.72C104.58 51.41 104.89 51.26 105.34 50.95ZM103.67 58.57C103.67 58.42 103.67 58.26 103.67 58.26C103.37 58.26 103.21 58.42 102.91 58.42L102.91 58.57C103.21 58.57 103.37 58.57 103.67 58.57ZM103.67 60.7C103.82 60.7 103.97 60.7 103.97 60.7C103.97 60.4 103.82 60.24 103.82 59.94L103.67 59.94C103.67 60.24 103.67 60.55 103.67 60.7ZM103.97 59.02C103.82 59.18 103.82 59.33 103.82 59.48L103.97 59.48C103.97 59.33 103.97 59.18 103.97 59.02ZM103.97 52.32C104.13 52.48 104.28 52.48 104.43 52.48L104.43 52.32C104.28 52.32 104.13 52.32 103.97 52.32ZM105.95 76.38C105.8 76.38 105.65 76.54 105.65 76.54C105.65 76.99 105.65 77.3 105.8 77.75C105.8 78.21 106.1 78.67 105.95 78.97C104.89 80.19 105.8 80.95 106.26 82.02C106.26 82.17 106.1 82.32 105.95 82.47C106.86 82.78 107.02 82.17 107.32 81.71C106.56 80.95 106.86 80.19 107.47 79.58C107.32 79.28 107.17 78.97 107.02 78.67C107.17 78.52 107.32 78.21 107.32 78.21C107.17 76.69 107.02 75.47 106.86 73.95C107.02 73.8 107.17 73.64 107.17 73.49C106.86 72.88 106.41 72.42 107.02 71.66C107.47 71.05 107.47 70.29 107.17 69.53C106.86 68.77 107.02 68.16 107.32 67.55C107.02 67.4 106.86 67.4 106.56 67.25C106.71 67.1 106.86 66.94 107.17 66.64C106.71 66.49 106.41 66.18 105.95 66.03C105.95 67.55 105.8 68.92 105.8 70.29C106.71 71.05 105.65 71.66 105.65 71.97C106.26 73.49 105.8 74.86 105.95 76.08C105.8 76.23 105.8 76.23 105.95 76.38ZM107.62 144.91C107.78 144.75 107.93 144.6 108.08 144.45C107.93 143.54 107.62 142.62 107.47 141.71C107.62 141.4 107.78 141.1 108.08 140.64C108.38 140.64 108.69 140.64 108.99 140.64L108.99 140.49C108.54 140.34 108.23 140.34 107.62 140.19C108.38 139.88 108.99 139.58 109.75 139.27C110.36 139.88 110.06 140.64 110.21 141.25C110.51 142.01 110.06 142.77 110.51 143.69C110.82 144.3 110.51 145.52 110.51 146.43C109.9 146.58 109.3 146.89 108.54 147.04C108.54 147.19 108.38 147.5 108.08 147.8C107.93 146.73 107.78 145.82 107.62 144.91ZM109.14 144.75C109.3 144.6 109.6 144.3 109.75 144.14C109.75 143.54 109.75 142.93 109.9 142.17C109.6 142.01 109.3 141.71 108.54 141.25C108.84 142.01 108.84 142.32 108.99 142.77C108.84 142.93 108.69 143.08 108.54 143.23C108.69 143.84 108.84 144.3 109.14 144.75ZM109.14 145.21C108.99 145.36 108.99 145.52 108.99 145.67L109.14 145.67C109.14 145.52 109.14 145.36 109.14 145.21ZM108.54 133.79C108.84 133.18 108.99 133.03 109.14 132.72C109.45 133.03 109.75 133.49 110.21 133.94C110.21 134.1 110.21 134.4 110.21 134.7C109.3 134.86 108.23 135.01 107.32 135.16C107.17 134.86 107.17 134.7 107.02 134.4C106.56 134.55 106.26 134.86 105.8 135.01C105.95 135.31 106.1 135.47 106.26 135.92C105.95 136.07 105.65 136.38 105.34 136.53C104.43 135.47 106.41 134.55 105.19 133.64C105.5 133.64 105.65 133.49 105.8 133.49C105.95 133.79 106.1 134.1 106.26 134.55C106.71 133.79 107.17 133.03 107.62 132.27C107.78 132.57 108.08 133.03 108.54 133.79ZM107.62 133.94C107.78 134.1 107.93 134.1 108.08 134.1L108.08 133.94C107.93 133.94 107.78 133.94 107.62 133.94ZM106.56 155.11C106.56 154.96 106.41 154.65 106.41 154.5C106.41 154.5 106.56 154.35 106.56 152.06C105.95 152.22 105.95 154.5 106.41 156.78C106.41 156.78 106.56 156.78 106.71 156.94C107.02 156.78 107.32 156.48 107.62 156.17C107.32 153.89 107.02 151.61 106.86 149.32C106.71 149.63 106.41 149.78 106.56 152.06C106.71 154.5 106.56 154.8 106.56 155.11ZM111.12 203.53C110.97 203.99 110.82 204.29 110.82 204.6C111.27 204.75 111.42 204.75 111.88 204.9C111.73 205.21 111.42 205.51 111.27 205.82C112.18 206.42 111.27 207.49 111.88 208.25C112.18 208.1 112.64 207.95 112.94 207.79C112.79 207.49 112.64 207.34 112.64 207.03C112.79 206.88 112.94 206.73 113.1 206.58C112.79 206.42 112.64 206.42 112.34 206.27C112.34 205.66 112.34 205.21 112.34 204.75C112.64 204.6 112.94 204.6 113.25 204.44C112.49 204.14 111.88 203.99 111.88 203.07C112.18 202.92 112.49 202.77 112.79 202.77C112.79 202.62 112.79 202.46 112.79 202.46C112.49 201.7 111.42 202.62 111.42 201.7C110.36 202.31 110.97 203.07 111.12 203.53ZM106.1 137.9C105.95 137.45 105.65 137.14 105.5 136.53C105.04 136.84 104.74 137.14 104.28 137.45C105.19 137.9 104.43 138.51 104.74 139.27C105.04 139.88 104.74 140.8 104.74 141.71C105.5 141.4 105.95 141.25 106.41 140.95C106.41 140.49 106.41 139.88 106.26 139.42C105.95 139.58 105.8 139.73 105.34 140.03C105.8 139.12 105.34 138.36 106.1 137.9ZM40.89 96.94C41.34 96.48 41.65 96.18 41.95 96.03C41.5 94.81 41.65 93.89 42.26 92.98C41.95 92.68 41.8 92.52 41.5 92.22C40.58 93.13 40.58 93.13 40.89 96.94ZM111.27 158.61C111.58 157.09 111.42 155.72 110.51 154.5C110.51 154.5 110.36 154.5 110.06 154.5C110.21 154.8 110.36 155.26 110.51 155.72C109.6 156.33 109.9 157.09 110.36 157.85C109.75 158.61 110.36 159.22 110.36 160.13C110.82 159.52 111.12 159.07 111.27 158.61ZM105.5 149.02C105.34 148.56 105.19 148.26 105.04 147.8C105.04 147.8 105.19 147.5 105.34 147.34C105.19 146.89 105.04 146.58 104.89 145.97C105.5 145.97 105.95 145.97 106.56 145.97C106.71 146.58 106.86 147.19 107.17 147.95C106.56 148.26 106.1 148.56 105.5 149.02ZM105.8 146.43C105.95 146.58 106.1 146.58 106.26 146.58L106.26 146.43C106.1 146.58 105.95 146.43 105.8 146.43ZM113.86 214.65C113.86 213.58 114.01 212.36 114.01 211.3C113.55 210.99 112.94 210.69 112.49 210.38C112.49 210.69 112.49 210.84 112.49 211.14C112.79 211.3 113.1 211.45 113.4 211.6C113.1 211.91 112.94 212.21 112.79 212.67C113.1 213.43 113.4 214.19 113.7 214.95C113.7 214.8 113.7 214.8 113.86 214.65ZM110.82 186.93C110.21 186.32 110.36 185.56 109.6 185.26C109.14 185.11 108.99 184.19 108.84 183.74C108.69 183.74 108.69 183.74 108.54 183.74C108.69 184.95 108.99 186.17 109.3 187.54C109.75 187.54 110.21 187.24 110.82 186.93ZM110.36 147.19C108.54 149.02 110.51 150.54 110.36 152.22C110.66 152.22 110.82 152.22 111.27 152.06C110.66 150.54 110.36 149.02 110.36 147.19ZM114.62 194.55C114.62 195 114.77 195.31 114.77 195.77C114.77 196.22 114.62 196.53 114.46 197.14C114.92 197.14 115.22 197.14 115.68 196.98C115.38 196.68 115.38 196.53 115.38 196.53C115.53 195.46 115.68 194.7 115.83 193.79C115.38 193.48 115.07 193.33 114.31 192.87C114.31 193.63 114.46 194.09 114.62 194.55ZM108.84 123.74C108.84 122.67 109.14 121.46 108.38 120.7C107.93 121 107.62 121.3 107.17 121.61C107.62 121.91 107.93 122.22 108.38 122.52C107.78 122.98 107.93 123.59 107.93 124.65C108.38 124.2 108.69 123.89 108.84 123.74ZM105.65 85.22C105.65 85.37 105.8 85.52 105.8 85.52C105.95 85.52 106.26 85.67 106.41 85.67C106.41 86.13 106.56 86.43 106.56 86.89C106.86 86.74 107.17 86.74 107.32 86.74C107.17 85.67 107.02 84.91 106.86 83.85C106.71 83.69 106.56 83.54 106.26 83.24C106.1 84 105.8 84.61 105.65 85.22ZM103.52 78.21C102.76 78.67 102.3 78.97 102.15 79.12C102.3 80.19 102.45 81.1 102.61 82.02C102.91 82.02 103.06 82.02 103.06 82.02C103.37 80.5 103.37 80.5 102.91 79.73C103.06 79.28 103.21 78.97 103.52 78.21ZM115.68 205.66C115.98 206.12 115.98 206.88 116.14 207.79C116.59 207.49 116.9 207.19 117.05 207.19C116.74 206.12 116.44 205.05 116.29 204.14C116.14 204.14 115.98 204.14 115.83 204.14C116.74 204.6 115.22 205.05 115.68 205.66ZM106.86 143.99C106.56 143.38 106.26 142.62 105.95 142.17C105.5 142.62 105.19 142.93 104.74 143.38C105.19 143.69 105.8 143.99 106.56 144.3C106.71 144.14 106.71 143.99 106.86 143.99ZM111.73 167.9C111.73 167.9 111.58 167.9 111.42 168.05C111.58 168.36 111.58 168.66 111.73 168.97C111.58 169.12 111.42 169.27 111.27 169.57C111.58 170.18 112.03 170.79 112.49 171.86C112.64 170.03 112.49 168.97 111.73 167.9ZM107.17 167.29C107.17 166.53 107.17 165.92 107.32 165.31C107.62 165.01 107.93 164.85 108.23 164.55C107.78 164.4 107.47 164.09 107.17 163.94C107.02 164.25 106.86 164.7 106.56 165.01C107.17 165.46 106.86 165.92 106.56 166.22L106.71 166.38C106.86 166.68 107.02 166.99 107.17 167.29ZM39.82 77.75C39.82 78.82 39.67 79.89 39.67 81.1C39.82 81.1 39.82 80.95 39.97 80.95C40.13 81.26 40.13 81.41 40.28 82.02C40.73 80.19 40.13 79.12 39.82 77.75ZM107.62 111.86C107.78 112.78 107.47 113.54 107.78 114.6C108.23 114.3 108.38 114.15 108.99 113.84C108.08 113.23 108.84 112.02 107.62 111.86ZM109.9 195.61C109.9 195.92 109.9 196.37 109.9 196.83C110.21 196.98 110.51 197.29 110.97 197.44C110.82 196.53 110.82 195.61 110.66 194.55C110.36 194.85 110.21 195.16 109.9 195.61ZM108.08 176.43C108.08 176.88 107.93 177.19 107.78 177.64C107.93 177.64 108.23 177.64 108.38 177.64C108.38 176.73 108.38 175.97 108.54 175.21C108.23 175.21 108.08 175.21 107.62 175.21C107.78 175.67 108.08 175.97 108.08 176.43ZM45.45 40.3C45.45 39.84 45.6 39.53 45.45 39.08C45.3 38.77 45.14 38.47 44.84 38.16C44.69 38.16 44.54 38.32 44.54 38.32C44.69 38.92 44.99 39.69 45.14 40.3C45.3 40.3 45.45 40.3 45.45 40.3ZM44.54 64.51C44.54 64.35 44.69 64.35 44.69 64.2C44.38 63.9 44.08 63.59 43.78 63.44C43.78 62.98 43.62 62.68 43.62 62.37L43.47 62.37C43.47 62.83 43.47 63.29 43.47 64.05C43.78 64.2 44.08 64.35 44.54 64.51ZM108.99 246.17C109.14 246.01 109.45 245.71 109.6 245.71C109.45 245.1 109.3 244.64 109.14 244.04C108.84 244.64 108.69 245.25 108.54 245.71C108.54 245.86 108.69 246.01 108.99 246.17ZM107.93 243.12C108.38 243.27 108.69 243.58 109.14 243.73C109.3 243.58 109.3 243.58 109.45 243.43C109.3 242.97 109.14 242.66 108.84 242.06C108.38 242.51 108.23 242.82 107.93 243.12ZM111.88 209.62C113.25 209.16 113.25 209.16 113.1 207.95C112.64 208.4 112.34 208.86 111.88 209.62ZM103.67 77.6C103.67 76.84 103.67 75.93 103.82 75.17C103.52 76.08 103.21 76.84 103.67 77.6ZM108.38 180.99C108.54 181.3 108.69 181.45 108.99 181.6C109.14 181.15 108.99 180.84 108.84 180.54C108.84 180.39 108.99 180.08 109.14 179.78C108.84 179.78 108.69 179.78 108.23 179.78C108.38 180.39 108.23 180.69 108.38 180.99ZM108.84 138.36C109.14 138.05 109.3 137.9 109.45 137.9C109.6 137.75 109.9 137.75 110.21 137.75C110.06 137.45 110.06 137.29 109.9 136.99C109.14 136.99 108.69 137.29 108.84 138.36ZM40.58 89.48C40.89 89.48 41.04 89.48 41.34 89.48C41.34 89.02 41.34 88.72 41.34 88.26C41.04 88.26 40.89 88.26 40.58 88.26C40.58 88.57 40.58 89.02 40.58 89.48ZM39.06 73.95C39.52 73.8 39.82 73.34 40.13 73.19C39.37 73.19 39.37 73.19 39.06 73.95ZM107.17 173.84C107.47 174.14 107.78 174.45 107.93 174.6C108.23 174.45 108.38 174.14 108.69 173.99C108.54 173.69 108.23 173.53 108.08 173.38C107.78 173.53 107.47 173.69 107.17 173.84ZM108.84 182.06C108.69 182.06 108.38 182.06 108.23 182.21C108.23 182.67 108.23 182.97 108.23 183.43C108.54 183.43 108.69 183.43 108.84 183.43C108.84 182.82 108.84 182.52 108.84 182.06ZM105.34 124.81C105.34 124.2 105.34 123.74 105.34 123.28C105.04 123.28 104.89 123.28 104.28 123.28C104.74 123.89 104.89 124.35 105.34 124.81ZM108.54 131.51C108.54 131.66 108.54 131.96 108.69 132.12C108.99 132.12 109.14 132.12 109.45 132.12C109.45 131.2 109.14 131.2 108.54 131.51ZM45.6 45.32C45.6 45.17 45.45 44.86 45.3 44.56L45.14 44.71C45.14 45.02 45.14 45.47 45.14 46.39C45.3 45.62 45.45 45.32 45.6 45.32ZM44.38 68.31C44.38 67.86 44.38 67.25 44.38 66.79C44.23 66.79 44.23 66.79 44.08 66.79C44.08 67.25 44.08 67.86 44.08 68.31C44.23 68.31 44.38 68.31 44.38 68.31ZM110.66 200.49C110.97 200.18 111.27 200.03 111.42 199.72C111.27 199.57 111.12 199.27 110.51 198.81C110.66 199.57 110.66 199.88 110.66 200.49ZM116.59 213.58C116.9 213.43 117.2 213.28 117.35 213.12C117.05 212.82 116.9 212.67 116.59 212.21C116.74 212.67 116.59 213.12 116.59 213.58ZM109.9 192.87C109.9 192.26 109.9 191.81 109.9 191.2L109.75 191.2C109.75 191.81 109.75 192.26 109.75 192.87C109.75 192.87 109.75 192.87 109.9 192.87ZM109.75 188.61C110.06 188.61 110.36 188.61 110.51 188.61C110.51 188.3 110.51 188.15 110.51 187.85C110.21 187.85 109.9 187.85 109.75 187.69C109.75 188 109.75 188.3 109.75 188.61ZM115.68 200.33C115.68 199.57 115.68 199.12 115.68 198.81C115.38 198.81 115.22 198.81 114.92 198.81C115.22 199.27 115.38 199.72 115.68 200.33ZM113.7 242.21C113.86 242.66 114.01 243.12 114.31 243.73C114.31 243.12 114.46 242.66 114.46 242.06C114.16 242.21 113.86 242.21 113.7 242.21ZM105.8 160.89C106.26 160.59 106.71 160.28 107.17 159.98C106.1 159.98 106.1 159.98 105.8 160.89ZM104.43 144.3C104.89 144.6 105.04 144.75 105.34 144.91C105.5 144.3 105.5 144.3 104.43 144.3ZM109.9 192.87C109.9 193.33 110.06 193.79 110.06 194.09C110.21 194.09 110.21 194.09 110.36 194.09C110.36 193.63 110.36 193.18 110.36 192.87C110.21 192.87 110.06 192.87 109.9 192.87ZM41.8 99.53C41.5 99.83 41.34 100.14 41.19 100.29C41.34 100.29 41.5 100.29 41.95 100.29C41.8 99.99 41.8 99.83 41.8 99.53ZM111.88 199.12C111.88 199.57 112.03 200.03 112.03 200.33C112.34 200.18 112.34 200.03 112.34 199.72C112.34 199.42 112.34 199.27 112.34 198.96C112.18 199.12 112.03 199.12 111.88 199.12ZM113.55 179.47C113.4 179.17 113.25 178.86 113.1 178.56C112.49 179.78 112.94 179.62 113.55 179.47ZM45.6 51.41C45.9 51.26 46.21 51.11 46.51 50.95C45.45 50.35 45.45 50.95 45.6 51.41ZM107.32 171.71C107.32 172.16 107.32 172.47 107.47 172.92L107.62 172.92C107.62 172.47 107.62 172.16 107.62 171.71C107.62 171.71 107.47 171.71 107.32 171.71ZM43.93 72.58C44.23 72.42 44.54 72.27 44.84 72.12C43.93 71.82 43.78 71.97 43.93 72.58ZM115.22 200.49C115.38 200.79 115.38 201.09 115.53 201.4C115.83 200.64 115.53 200.33 115.22 200.49ZM113.86 214.59C113.86 214.13 113.86 213.83 113.7 213.37L113.55 213.37C113.55 213.83 113.55 214.13 113.55 214.59C113.55 214.59 113.7 214.59 113.86 214.59ZM44.38 70.9C44.38 70.6 44.23 70.45 44.23 70.14L44.08 70.14C44.08 70.45 44.08 70.6 44.08 70.9C44.08 70.9 44.23 70.9 44.38 70.9ZM46.82 42.28C46.82 41.97 46.66 41.82 46.66 41.51L46.51 41.51C46.51 41.82 46.51 41.97 46.51 42.28C46.51 42.28 46.66 42.28 46.82 42.28ZM102.3 73.8C102.3 74.1 102.45 74.25 102.45 74.56L102.61 74.56C102.61 74.25 102.61 74.1 102.61 73.8C102.45 73.8 102.3 73.8 102.3 73.8ZM106.26 158.15C106.26 158.46 106.41 158.61 106.41 158.92L106.56 158.92C106.56 158.61 106.56 158.46 106.56 158.15C106.41 158.15 106.26 158.15 106.26 158.15ZM106.41 162.11C106.41 162.42 106.56 162.57 106.56 162.87L106.71 162.87C106.71 162.57 106.71 162.42 106.71 162.11C106.71 162.11 106.56 162.11 106.41 162.11ZM107.17 167.29C107.17 167.59 107.32 167.9 107.32 168.2C107.47 168.2 107.47 168.2 107.62 168.2C107.62 167.9 107.62 167.59 107.62 167.44C107.32 167.29 107.17 167.29 107.17 167.29ZM111.58 197.44C111.58 197.74 111.73 197.9 111.73 198.2L111.88 198.2C111.88 197.9 111.88 197.74 111.88 197.44C111.73 197.44 111.73 197.44 111.58 197.44ZM113.55 186.17C113.55 185.87 113.55 185.56 113.55 185.26L113.4 185.26C113.4 185.56 113.4 185.87 113.4 186.17C113.55 186.17 113.55 186.17 113.55 186.17ZM39.82 75.93C39.82 75.62 39.67 75.32 39.67 75.01C39.52 75.01 39.52 75.01 39.37 75.01C39.37 75.32 39.37 75.62 39.37 75.77C39.52 75.93 39.67 75.93 39.82 75.93ZM39.82 76.08C39.82 76.38 39.97 76.69 39.97 76.99C40.13 76.99 40.13 76.99 40.28 76.99C40.28 76.69 40.28 76.38 40.28 76.23C39.97 76.08 39.82 76.08 39.82 76.08ZM39.97 83.08C39.97 83.39 40.13 83.54 40.13 83.85L40.28 83.85C40.28 83.54 40.28 83.39 40.28 83.08C40.13 83.08 39.97 83.08 39.97 83.08ZM105.65 76.08C105.5 76.08 105.34 76.23 105.34 76.23C105.5 76.38 105.65 76.38 105.65 76.54C105.65 76.38 105.65 76.23 105.65 76.08ZM102.61 75.77C102.76 75.77 102.91 75.77 103.06 75.77L103.06 75.62C102.91 75.62 102.76 75.62 102.61 75.77ZM58.67 248.4C58.67 248.55 58.83 248.7 58.83 248.7C58.98 248.55 58.98 248.4 59.13 248.4C58.98 248.4 58.83 248.4 58.67 248.4ZM48.18 249.77C48.34 249.92 48.34 250.07 48.49 250.07L48.64 249.92C48.49 249.92 48.49 249.77 48.18 249.77ZM107.78 163.64C107.93 163.64 108.08 163.64 108.23 163.64L108.23 163.48C108.08 163.48 107.93 163.48 107.78 163.64ZM46.36 39.84C46.36 39.69 46.36 39.53 46.36 39.38L46.21 39.38C46.21 39.53 46.21 39.69 46.36 39.84ZM38.45 61.61C38.45 61.46 38.45 61.31 38.45 61.16L38.3 61.16C38.3 61.31 38.3 61.46 38.45 61.61ZM37.54 43.34C37.54 43.19 37.54 43.04 37.54 42.88L37.39 42.88C37.39 43.04 37.39 43.19 37.54 43.34ZM109.9 183.74C109.75 183.58 109.75 183.43 109.6 183.43L109.45 183.58C109.6 183.58 109.75 183.74 109.9 183.74ZM109.9 183.89C110.06 184.04 110.06 184.19 110.21 184.19L110.36 184.04C110.21 184.04 110.06 183.89 109.9 183.89ZM107.78 119.78C107.93 119.78 108.08 119.78 108.23 119.78L108.23 119.63C108.08 119.63 107.93 119.63 107.78 119.78ZM103.52 72.73C103.37 72.73 103.21 72.73 103.06 72.73L103.06 72.88C103.37 72.73 103.37 72.73 103.52 72.73ZM111.42 194.24C111.42 194.39 111.42 194.55 111.42 194.7L111.58 194.7C111.58 194.55 111.58 194.39 111.42 194.24ZM111.42 201.7C111.58 201.55 111.73 201.55 111.73 201.4L111.58 201.25C111.58 201.4 111.42 201.55 111.42 201.7ZM112.03 199.12C111.88 198.96 111.88 198.81 111.73 198.81L111.58 198.96C111.58 198.96 111.73 198.96 112.03 199.12ZM110.97 244.49C111.12 244.49 111.27 244.49 111.42 244.49L111.42 244.34C111.27 244.34 111.12 244.34 110.97 244.49ZM113.4 209.93C113.4 210.08 113.4 210.23 113.4 210.38L113.55 210.38C113.55 210.23 113.55 210.08 113.4 209.93ZM114.31 190.44C114.31 190.28 114.31 190.13 114.31 189.98L114.16 189.98C114.16 190.28 114.16 190.28 114.31 190.44ZM113.4 219.98C113.4 220.13 113.4 220.28 113.4 220.43L113.55 220.43C113.55 220.28 113.55 220.13 113.4 219.98ZM113.4 218.3C113.4 218.45 113.4 218.61 113.4 218.76L113.55 218.76C113.55 218.61 113.55 218.45 113.4 218.3ZM113.7 222.11C113.7 222.26 113.7 222.41 113.7 222.56L113.86 222.56C113.86 222.41 113.86 222.26 113.7 222.11ZM113.55 237.79C113.55 237.94 113.55 238.1 113.55 238.25L113.7 238.25C113.7 238.1 113.7 237.94 113.55 237.79ZM117.2 211.45C117.2 211.6 117.2 211.75 117.2 211.91L117.35 211.91C117.35 211.75 117.35 211.6 117.2 211.45ZM88.16 208.4C88.16 208.56 88.32 208.86 88.32 209.01C88.47 208.71 88.47 208.56 88.62 207.95C88.32 208.25 88.16 208.25 88.16 208.4Z" fill="#B70000" fill-opacity="1.000000" fill-rule="nonzero"/>
</svg>
