<svg width="169.000000" height="40.000000" viewBox="0 0 169 30" fill="none" xmlns="http://www.w3.org/2000/svg" xmlns:xlink="http://www.w3.org/1999/xlink">
	<desc>
			Created with Pixso.
	</desc>
	<defs/>
	<path d="M22.19 21.06L10.06 0.47L0 0.47L0 29.66L7.46 29.66L7.46 9.65L19.5 29.66L24.89 29.66L36.93 9.65L36.93 29.66L44.39 29.66L44.39 0.47L34.33 0.47L22.19 21.06ZM47.94 29.61L55.4 29.61L55.4 0.47L47.94 0.47L47.94 29.61ZM80.01 0.47L58.99 0.47L58.99 29.66L80.01 29.66C87.52 29.66 94.08 25 94.08 15.07C94.08 5.13 87.47 0.47 80.01 0.47ZM66.45 11.93C66.45 12.74 66.03 13.45 65.37 13.83C65.13 13.97 64.99 14.21 64.99 14.45L64.99 21.48C64.99 21.91 64.66 22.2 64.28 22.2C63.85 22.2 63.57 21.87 63.57 21.48L63.57 14.45C63.57 14.16 63.43 13.93 63.19 13.83C62.53 13.45 62.11 12.74 62.11 11.93L62.11 9.74C62.11 8.51 63.1 7.55 64.28 7.55C65.46 7.55 66.45 8.55 66.45 9.74L66.45 11.93ZM75.57 23.39C70.99 23.39 67.3 19.68 67.3 15.07C67.3 10.45 70.99 6.75 75.57 6.75C80.15 6.75 83.83 10.45 83.83 15.07C83.83 19.63 80.1 23.39 75.57 23.39ZM89.17 12.64C89.17 13.07 88.84 13.35 88.46 13.35C88.08 13.35 87.75 13.69 87.75 14.07L87.75 21.44C87.75 21.87 87.42 22.15 87.05 22.15C86.62 22.15 86.34 21.82 86.34 21.44L86.34 14.12C86.34 13.69 86.01 13.4 85.63 13.4C85.2 13.4 84.92 13.07 84.92 12.69L84.92 8.12C84.92 7.89 85.11 7.65 85.39 7.65C85.68 7.65 85.86 7.84 85.86 8.12L85.86 11.93L86.67 11.93L86.67 8.12C86.67 7.89 86.86 7.65 87.14 7.65C87.38 7.65 87.61 7.84 87.61 8.12L87.61 11.93L88.41 11.93L88.41 8.12C88.41 7.89 88.6 7.65 88.89 7.65C89.17 7.65 89.36 7.84 89.36 8.12L89.36 12.64L89.17 12.64ZM150.57 12.02C142.12 11.5 140.37 11.12 140.37 8.84C140.37 6.65 142.12 5.99 149.44 5.99C157.19 5.99 160.35 6.79 160.35 9.98L167.81 9.98C167.81 2.75 161.2 0 150.24 0C139.38 0 132.91 2.04 132.91 8.46C132.91 15.02 137.92 17.02 150.53 17.59C159.92 18.06 161.58 18.44 161.58 20.87C161.58 23.15 159.22 24.05 151.38 24.05C141.93 24.05 139.47 22.63 139.47 19.54L132.01 19.54C132.01 27.95 139.1 30 150.95 30C161.67 30 168.99 28.43 168.99 20.63C169.09 13.31 162 12.69 150.57 12.02ZM106.79 0.47L91.86 29.66L100.08 29.66L103.2 23.43L120.53 23.43L123.65 29.66L131.87 29.66L116.85 0.47L106.79 0.47ZM105.89 17.82L111.8 5.99L117.65 17.82L105.89 17.82Z" fill="#FFFFFF" fill-opacity="1.000000" fill-rule="nonzero"/>
</svg>
