<svg width="26.000000" height="25.000000" viewBox="0 0 26 25" fill="none" xmlns="http://www.w3.org/2000/svg" xmlns:xlink="http://www.w3.org/1999/xlink">
	<desc>
			Created with Pixso.
	</desc>
	<defs/>
	<path d="M1.57 13.32L4.28 24.1L21.71 24.1L24.42 13.32L26 13.32L26 7.23L19.99 7.23L17.05 0L15.36 0.65L18.01 7.26L7.95 7.26L10.63 0.65L8.94 0L6 7.23L0 7.23L0 13.32L1.57 13.32ZM24.19 9.06L24.19 11.55L1.83 11.55L1.83 9.06L24.19 9.06ZM22.58 13.35L20.31 22.32L5.71 22.32L3.43 13.35L22.58 13.35ZM8.59 14.83L10.43 14.83L10.43 21.27L8.59 21.27L8.59 14.83ZM12.09 14.83L13.93 14.83L13.93 21.27L12.09 21.27L12.09 14.83ZM17.43 14.83L15.59 14.83L15.59 21.27L17.43 21.27L17.43 14.83Z" fill="#000000" fill-opacity="1.000000" fill-rule="evenodd"/>
</svg>
