<svg width="16.000000" height="34.000000" viewBox="0 0 15 24" fill="none" xmlns="http://www.w3.org/2000/svg" xmlns:xlink="http://www.w3.org/1999/xlink">
	<desc>
			Created with Pixso.
	</desc>
	<defs/>
	<path d="M2.93 4.64C2.93 7.19 4.98 9.28 7.5 9.28C10.04 9.28 12.06 7.19 12.06 4.64C12.06 2.08 10.01 0 7.5 0C4.98 0 2.96 2.08 2.93 4.64ZM4.98 4.64C4.98 3.22 6.1 2.08 7.5 2.08C8.89 2.08 10.01 3.22 10.01 4.64C10.01 6.05 8.89 7.19 7.5 7.19C6.1 7.19 4.98 6.05 4.98 4.64ZM12.97 18.25L12.97 24L15 24L15 18.25C15 14.04 11.64 10.63 7.5 10.63C3.35 10.63 0 14.04 0 18.25L0 24L2.08 24L2.08 18.25C2.08 15.21 4.5 12.72 7.53 12.72C10.52 12.72 12.97 15.18 12.97 18.25Z" fill="#FFFFFF" fill-opacity="1.000000" fill-rule="evenodd"/>
</svg>
