<svg width="28.000000" height="28.000000" viewBox="0 0 24 24" fill="none" xmlns="http://www.w3.org/2000/svg" xmlns:xlink="http://www.w3.org/1999/xlink">
	<desc>
			Created with Pixso.
	</desc>
	<defs/>
	<path d="M14.74 16.26C13.19 17.48 11.23 18.21 9.1 18.21C4.07 18.21 0 14.14 0 9.1C0 4.07 4.07 0 9.1 0C14.14 0 18.21 4.07 18.21 9.1C18.21 11.23 17.48 13.19 16.26 14.74L24 22.48L22.48 24L14.74 16.26ZM16.07 9.1C16.07 12.95 12.95 16.07 9.1 16.07C5.26 16.07 2.14 12.95 2.14 9.1C2.14 5.26 5.26 2.14 9.1 2.14C12.95 2.14 16.07 5.26 16.07 9.1Z" fill="#FFFFFF" fill-opacity="1.000000" fill-rule="evenodd"/>
</svg>
